<?xml version="1.0" encoding="UTF-8" standalone="no"?>
<!DOCTYPE svg PUBLIC "-//W3C//DTD SVG 1.1//EN"
 "http://www.w3.org/Graphics/SVG/1.1/DTD/svg11.dtd">
<!-- Generated by graphviz version 2.40.1 (20161225.0304)
 -->
<!-- Title: o2::framework::MakeRootTreeWriterSpec::BranchDefinition&lt; T &gt; Pages: 1 -->
<!--zoomable 536 -->
<svg id="main" version="1.1" xmlns="http://www.w3.org/2000/svg" xmlns:xlink="http://www.w3.org/1999/xlink" xml:space="preserve" onload="init(evt)">
<style type="text/css"><![CDATA[
.edge:hover path { stroke: red; }
.edge:hover polygon { stroke: red; fill: red; }
]]></style>
<script type="text/javascript"><![CDATA[
var edges = document.getElementsByTagName('g');
if (edges && edges.length) {
  for (var i=0;i<edges.length;i++) {
    if (edges[i].id.substr(0,4)=='edge') {
      edges[i].setAttribute('class','edge');
    }
  }
}
]]></script>
        <defs>
                <circle id="rim" cx="0" cy="0" r="7"/>
                <circle id="rim2" cx="0" cy="0" r="3.5"/>
                <g id="zoomPlus">
                        <use xlink:href="#rim" fill="#404040">
                                <set attributeName="fill" to="#808080" begin="zoomplus.mouseover" end="zoomplus.mouseout"/>
                        </use>
                        <path d="M-4,0h8M0,-4v8" fill="none" stroke="white" stroke-width="1.5" pointer-events="none"/>
                </g>
                <g id="zoomMin">
                        <use xlink:href="#rim" fill="#404040">
                                <set attributeName="fill" to="#808080" begin="zoomminus.mouseover" end="zoomminus.mouseout"/>
                        </use>
                        <path d="M-4,0h8" fill="none" stroke="white" stroke-width="1.5" pointer-events="none"/>
                </g>
                <g id="dirArrow">
                        <path fill="none" stroke="white" stroke-width="1.5" d="M0,-3.0v7 M-2.5,-0.5L0,-3.0L2.5,-0.5"/>
                </g>
               <g id="resetDef">
                       <use xlink:href="#rim2" fill="#404040">
                               <set attributeName="fill" to="#808080" begin="reset.mouseover" end="reset.mouseout"/>
                       </use>
               </g>
        </defs>

<script type="text/javascript">
var viewWidth = 835;
var viewHeight = 536;
var sectionId = 'dynsection-1';
</script>
<script xlink:href="../../svgpan.js"/>
<svg id="graph" class="graph">
<g id="viewport">
<title>o2::framework::MakeRootTreeWriterSpec::BranchDefinition&lt; T &gt;</title>
<!-- Node3 -->
<g id="node1" class="node">
<title>Node3</title>
<polygon fill="#bfbfbf" stroke="#000000" points="0,-.5 0,-90.5 185,-90.5 185,-.5 0,-.5"/>
<text text-anchor="start" x="8" y="-78.5" font-family="Helvetica,sans-Serif" font-size="10.00" fill="#000000">o2::framework::MakeRootTree</text>
<text text-anchor="middle" x="92.5" y="-67.5" font-family="Helvetica,sans-Serif" font-size="10.00" fill="#000000">WriterSpec::BranchDefinition&lt; T &gt;</text>
<polyline fill="none" stroke="#000000" points="0,-60.5 185,-60.5 "/>
<text text-anchor="middle" x="92.5" y="-48.5" font-family="Helvetica,sans-Serif" font-size="10.00" fill="#000000"> </text>
<polyline fill="none" stroke="#000000" points="0,-41.5 185,-41.5 "/>
<text text-anchor="start" x="8" y="-29.5" font-family="Helvetica,sans-Serif" font-size="10.00" fill="#000000">+ BranchDefinition()</text>
<text text-anchor="start" x="8" y="-18.5" font-family="Helvetica,sans-Serif" font-size="10.00" fill="#000000">+ BranchDefinition()</text>
<text text-anchor="start" x="8" y="-7.5" font-family="Helvetica,sans-Serif" font-size="10.00" fill="#000000">+ BranchDefinition()</text>
</g>
<!-- Node4 -->
<g id="node2" class="node">
<title>Node4</title>
<g id="a_node2"><a xlink:href="../../d6/d72/structo2_1_1framework_1_1RootTreeWriter_1_1BranchDef.html" target="_top" xlink:title="{o2::framework::RootTreeWriter\l::BranchDef\&lt; T, InputSpec,\l KeyExtractor \&gt;\n||+ BranchDef()\l+ BranchDef()\l+ BranchDef()\l+ init()\l}">
<polygon fill="none" stroke="#000000" points="318,-128.5 318,-240.5 483,-240.5 483,-128.5 318,-128.5"/>
<text text-anchor="start" x="326" y="-228.5" font-family="Helvetica,sans-Serif" font-size="10.00" fill="#000000">o2::framework::RootTreeWriter</text>
<text text-anchor="start" x="326" y="-217.5" font-family="Helvetica,sans-Serif" font-size="10.00" fill="#000000">::BranchDef&lt; T, InputSpec,</text>
<text text-anchor="middle" x="400.5" y="-206.5" font-family="Helvetica,sans-Serif" font-size="10.00" fill="#000000"> KeyExtractor &gt;</text>
<polyline fill="none" stroke="#000000" points="318,-199.5 483,-199.5 "/>
<text text-anchor="middle" x="400.5" y="-187.5" font-family="Helvetica,sans-Serif" font-size="10.00" fill="#000000"> </text>
<polyline fill="none" stroke="#000000" points="318,-180.5 483,-180.5 "/>
<text text-anchor="start" x="326" y="-168.5" font-family="Helvetica,sans-Serif" font-size="10.00" fill="#000000">+ BranchDef()</text>
<text text-anchor="start" x="326" y="-157.5" font-family="Helvetica,sans-Serif" font-size="10.00" fill="#000000">+ BranchDef()</text>
<text text-anchor="start" x="326" y="-146.5" font-family="Helvetica,sans-Serif" font-size="10.00" fill="#000000">+ BranchDef()</text>
<text text-anchor="start" x="326" y="-135.5" font-family="Helvetica,sans-Serif" font-size="10.00" fill="#000000">+ init()</text>
</a>
</g>
</g>
<!-- Node4&#45;&gt;Node3 -->
<g id="edge1" class="edge">
<title>Node4&#45;&gt;Node3</title>
<path fill="none" stroke="#191970" d="M308.6996,-143.0706C269.6472,-125.4463 224.1806,-104.9273 185.0472,-87.2664"/>
<polygon fill="none" stroke="#191970" points="307.4071,-146.3272 317.9617,-147.2506 310.2866,-139.9468 307.4071,-146.3272"/>
</g>
<!-- Node5 -->
<g id="node3" class="node">
<title>Node5</title>
<polygon fill="none" stroke="#bfbfbf" points="288,-459.5 288,-516.5 403,-516.5 403,-459.5 288,-459.5"/>
<text text-anchor="middle" x="345.5" y="-504.5" font-family="Helvetica,sans-Serif" font-size="10.00" fill="#000000">vector&lt; key_type &gt;</text>
<polyline fill="none" stroke="#bfbfbf" points="288,-497.5 403,-497.5 "/>
<text text-anchor="middle" x="345.5" y="-485.5" font-family="Helvetica,sans-Serif" font-size="10.00" fill="#000000"> </text>
<polyline fill="none" stroke="#bfbfbf" points="288,-478.5 403,-478.5 "/>
<text text-anchor="middle" x="345.5" y="-466.5" font-family="Helvetica,sans-Serif" font-size="10.00" fill="#000000"> </text>
</g>
<!-- Node5&#45;&gt;Node4 -->
<g id="edge2" class="edge">
<title>Node5&#45;&gt;Node4</title>
<path fill="none" stroke="#404040" d="M394.8678,-459.4471C403.554,-455.1728 412.6505,-451.1505 421.5,-448 459.519,-434.465 484.9482,-461.2369 510.5,-430 519.228,-419.3301 504.5056,-413.844 499.5,-401 476.1416,-341.0645 501.0913,-316.1159 471.5,-259 470.0103,-256.1246 468.3756,-253.2829 466.624,-250.4846"/>
<polygon fill="none" stroke="#404040" points="466.6049,-250.4568 459.9132,-247.7696 459.8199,-240.5591 466.5116,-243.2462 466.6049,-250.4568"/>
<text text-anchor="middle" x="517" y="-342" font-family="Helvetica,sans-Serif" font-size="10.00" fill="#000000"> +keys</text>
</g>
<!-- Node11 -->
<g id="node9" class="node">
<title>Node11</title>
<g id="a_node9"><a xlink:href="../../d6/d72/structo2_1_1framework_1_1RootTreeWriter_1_1BranchDef.html" target="_top" xlink:title="BranchDef is used to define the mapping between inputs and branches. ">
<polygon fill="none" stroke="#000000" points="284,-288.5 284,-400.5 449,-400.5 449,-288.5 284,-288.5"/>
<text text-anchor="start" x="292" y="-388.5" font-family="Helvetica,sans-Serif" font-size="10.00" fill="#000000">o2::framework::RootTreeWriter</text>
<text text-anchor="start" x="292" y="-377.5" font-family="Helvetica,sans-Serif" font-size="10.00" fill="#000000">::BranchDef&lt; T, KeyType,</text>
<text text-anchor="middle" x="366.5" y="-366.5" font-family="Helvetica,sans-Serif" font-size="10.00" fill="#000000"> KeyExtractor &gt;</text>
<polyline fill="none" stroke="#000000" points="284,-359.5 449,-359.5 "/>
<text text-anchor="middle" x="366.5" y="-347.5" font-family="Helvetica,sans-Serif" font-size="10.00" fill="#000000"> </text>
<polyline fill="none" stroke="#000000" points="284,-340.5 449,-340.5 "/>
<text text-anchor="start" x="292" y="-328.5" font-family="Helvetica,sans-Serif" font-size="10.00" fill="#000000">+ BranchDef()</text>
<text text-anchor="start" x="292" y="-317.5" font-family="Helvetica,sans-Serif" font-size="10.00" fill="#000000">+ BranchDef()</text>
<text text-anchor="start" x="292" y="-306.5" font-family="Helvetica,sans-Serif" font-size="10.00" fill="#000000">+ BranchDef()</text>
<text text-anchor="start" x="292" y="-295.5" font-family="Helvetica,sans-Serif" font-size="10.00" fill="#000000">+ init()</text>
</a>
</g>
</g>
<!-- Node5&#45;&gt;Node11 -->
<g id="edge9" class="edge">
<title>Node5&#45;&gt;Node11</title>
<path fill="none" stroke="#404040" d="M328.0177,-459.3446C322.5704,-447.0224 318.8388,-432.3987 322.5,-419 323.1236,-416.7178 323.837,-414.4344 324.6269,-412.1587"/>
<polygon fill="none" stroke="#404040" points="324.6821,-412.0209 323.204,-404.9629 329.1506,-400.8839 330.6287,-407.9419 324.6821,-412.0209"/>
<text text-anchor="middle" x="340" y="-422" font-family="Helvetica,sans-Serif" font-size="10.00" fill="#000000"> +keys</text>
</g>
<!-- Node6 -->
<g id="node4" class="node">
<title>Node6</title>
<polygon fill="none" stroke="#bfbfbf" points="737,-459.5 737,-516.5 782,-516.5 782,-459.5 737,-459.5"/>
<text text-anchor="middle" x="759.5" y="-504.5" font-family="Helvetica,sans-Serif" font-size="10.00" fill="#000000">size_t</text>
<polyline fill="none" stroke="#bfbfbf" points="737,-497.5 782,-497.5 "/>
<text text-anchor="middle" x="759.5" y="-485.5" font-family="Helvetica,sans-Serif" font-size="10.00" fill="#000000"> </text>
<polyline fill="none" stroke="#bfbfbf" points="737,-478.5 782,-478.5 "/>
<text text-anchor="middle" x="759.5" y="-466.5" font-family="Helvetica,sans-Serif" font-size="10.00" fill="#000000"> </text>
</g>
<!-- Node6&#45;&gt;Node4 -->
<g id="edge3" class="edge">
<title>Node6&#45;&gt;Node4</title>
<path fill="none" stroke="#404040" d="M759.8957,-459.2517C758.8527,-415.7511 750.1901,-333.4678 702.5,-288 646.1375,-234.2639 560.6713,-208.3359 495.0267,-195.8784"/>
<polygon fill="none" stroke="#404040" points="494.82,-195.8411 488.2039,-198.7094 483.0116,-193.7054 489.6277,-190.8371 494.82,-195.8411"/>
<text text-anchor="middle" x="790" y="-342" font-family="Helvetica,sans-Serif" font-size="10.00" fill="#000000"> +nofBranches</text>
</g>
<!-- Node6&#45;&gt;Node11 -->
<g id="edge10" class="edge">
<title>Node6&#45;&gt;Node11</title>
<path fill="none" stroke="#404040" d="M737.8963,-459.2376C733.5467,-454.9334 728.6978,-450.9556 723.5,-448 665.9907,-415.2988 642.6306,-430.6057 577.5,-419 527.0011,-410.0016 511.8234,-418.2035 463.5,-401 462.4558,-400.6282 461.4101,-400.2451 460.3635,-399.8513"/>
<polygon fill="none" stroke="#404040" points="460.2465,-399.8035 453.178,-401.2306 449.142,-395.2547 456.2105,-393.8276 460.2465,-399.8035"/>
<text text-anchor="middle" x="715" y="-422" font-family="Helvetica,sans-Serif" font-size="10.00" fill="#000000"> +nofBranches</text>
</g>
<!-- Node7 -->
<g id="node5" class="node">
<title>Node7</title>
<polygon fill="none" stroke="#bfbfbf" points="72,-459.5 72,-516.5 101,-516.5 101,-459.5 72,-459.5"/>
<text text-anchor="middle" x="86.5" y="-504.5" font-family="Helvetica,sans-Serif" font-size="10.00" fill="#000000">int</text>
<polyline fill="none" stroke="#bfbfbf" points="72,-497.5 101,-497.5 "/>
<text text-anchor="middle" x="86.5" y="-485.5" font-family="Helvetica,sans-Serif" font-size="10.00" fill="#000000"> </text>
<polyline fill="none" stroke="#bfbfbf" points="72,-478.5 101,-478.5 "/>
<text text-anchor="middle" x="86.5" y="-466.5" font-family="Helvetica,sans-Serif" font-size="10.00" fill="#000000"> </text>
</g>
<!-- Node7&#45;&gt;Node3 -->
<g id="edge15" class="edge">
<title>Node7&#45;&gt;Node3</title>
<path fill="none" stroke="#404040" d="M81.2174,-459.4833C79.7136,-450.1244 78.2745,-439.6494 77.5,-430 68.1836,-313.9356 78.5066,-177.6794 86.0448,-102.5284"/>
<polygon fill="none" stroke="#404040" points="86.0479,-102.4968 82.6819,-96.1195 87.274,-90.5595 90.64,-96.9368 86.0479,-102.4968"/>
<text text-anchor="middle" x="106" y="-262" font-family="Helvetica,sans-Serif" font-size="10.00" fill="#000000"> +optionKey</text>
</g>
<!-- Node7&#45;&gt;Node4 -->
<g id="edge4" class="edge">
<title>Node7&#45;&gt;Node4</title>
<path fill="none" stroke="#404040" d="M82.5375,-459.2211C78.3701,-416.7901 77.166,-337.1715 117.5,-288 142.1714,-257.9228 233.6877,-227.8613 306.0567,-207.9481"/>
<polygon fill="none" stroke="#404040" points="306.3696,-207.8632 311.1117,-202.4307 317.9502,-204.7185 313.2082,-210.1511 306.3696,-207.8632"/>
<text text-anchor="middle" x="154.5" y="-342" font-family="Helvetica,sans-Serif" font-size="10.00" fill="#000000"> +branchName</text>
</g>
<!-- Node7&#45;&gt;Node11 -->
<g id="edge11" class="edge">
<title>Node7&#45;&gt;Node11</title>
<path fill="none" stroke="#404040" d="M101.2838,-472.4606C117.4573,-456.4479 144.9106,-432.0403 173.5,-419 212.9957,-400.9851 228.8176,-416.1456 269.5,-401 270.5388,-400.6133 271.5793,-400.2159 272.6209,-399.8084"/>
<polygon fill="none" stroke="#404040" points="272.7428,-399.757 276.7142,-393.738 283.7977,-395.089 279.8262,-401.1079 272.7428,-399.757"/>
<text text-anchor="middle" x="210.5" y="-422" font-family="Helvetica,sans-Serif" font-size="10.00" fill="#000000"> +branchName</text>
</g>
<!-- Node8 -->
<g id="node6" class="node">
<title>Node8</title>
<polygon fill="none" stroke="#bfbfbf" points="151.5,-454 151.5,-522 267.5,-522 267.5,-454 151.5,-454"/>
<text text-anchor="start" x="159.5" y="-510" font-family="Helvetica,sans-Serif" font-size="10.00" fill="#000000">function&lt; std::string</text>
<text text-anchor="middle" x="209.5" y="-499" font-family="Helvetica,sans-Serif" font-size="10.00" fill="#000000">(std::string, size_t)&gt;</text>
<polyline fill="none" stroke="#bfbfbf" points="151.5,-492 267.5,-492 "/>
<text text-anchor="middle" x="209.5" y="-480" font-family="Helvetica,sans-Serif" font-size="10.00" fill="#000000"> </text>
<polyline fill="none" stroke="#bfbfbf" points="151.5,-473 267.5,-473 "/>
<text text-anchor="middle" x="209.5" y="-461" font-family="Helvetica,sans-Serif" font-size="10.00" fill="#000000"> </text>
</g>
<!-- Node8&#45;&gt;Node4 -->
<g id="edge5" class="edge">
<title>Node8&#45;&gt;Node4</title>
<path fill="none" stroke="#404040" d="M201.3906,-453.6407C193.4119,-411.3403 186.4501,-338.8686 217.5,-288 237.7484,-254.8274 272.8109,-231.3446 306.8615,-215.2298"/>
<polygon fill="none" stroke="#404040" points="306.9281,-215.1997 310.746,-209.0823 317.8613,-210.2536 314.0434,-216.3711 306.9281,-215.1997"/>
<text text-anchor="middle" x="246" y="-342" font-family="Helvetica,sans-Serif" font-size="10.00" fill="#000000"> +getName</text>
</g>
<!-- Node8&#45;&gt;Node11 -->
<g id="edge12" class="edge">
<title>Node8&#45;&gt;Node11</title>
<path fill="none" stroke="#404040" d="M231.3603,-453.9534C239.7283,-442.2117 249.8418,-429.4067 260.5,-419 264.9133,-414.6909 269.5973,-410.4501 274.4435,-406.3125"/>
<polygon fill="none" stroke="#404040" points="274.6734,-406.1231 276.7601,-399.2205 283.9343,-398.4919 281.8476,-405.3945 274.6734,-406.1231"/>
<text text-anchor="middle" x="289" y="-422" font-family="Helvetica,sans-Serif" font-size="10.00" fill="#000000"> +getName</text>
</g>
<!-- Node9 -->
<g id="node7" class="node">
<title>Node9</title>
<polygon fill="none" stroke="#bfbfbf" points="431,-448.5 431,-527.5 552,-527.5 552,-448.5 431,-448.5"/>
<text text-anchor="start" x="439" y="-515.5" font-family="Helvetica,sans-Serif" font-size="10.00" fill="#000000">function&lt; size_t(o2</text>
<text text-anchor="start" x="439" y="-504.5" font-family="Helvetica,sans-Serif" font-size="10.00" fill="#000000">::framework::DataRef</text>
<text text-anchor="middle" x="491.5" y="-493.5" font-family="Helvetica,sans-Serif" font-size="10.00" fill="#000000"> const &amp;)&gt;</text>
<polyline fill="none" stroke="#bfbfbf" points="431,-486.5 552,-486.5 "/>
<text text-anchor="middle" x="491.5" y="-474.5" font-family="Helvetica,sans-Serif" font-size="10.00" fill="#000000"> </text>
<polyline fill="none" stroke="#bfbfbf" points="431,-467.5 552,-467.5 "/>
<text text-anchor="middle" x="491.5" y="-455.5" font-family="Helvetica,sans-Serif" font-size="10.00" fill="#000000"> </text>
</g>
<!-- Node9&#45;&gt;Node4 -->
<g id="edge6" class="edge">
<title>Node9&#45;&gt;Node4</title>
<path fill="none" stroke="#404040" d="M517.4449,-448.1907C520.7605,-442.2293 523.8986,-436.0505 526.5,-430 551.4679,-371.9289 562.3675,-344.7367 534.5,-288 524.8777,-268.4095 509.5647,-251.4764 492.6714,-237.3071"/>
<polygon fill="none" stroke="#404040" points="492.5349,-237.1983 485.3496,-236.5876 483.1498,-229.7203 490.335,-230.3309 492.5349,-237.1983"/>
<text text-anchor="middle" x="579" y="-342" font-family="Helvetica,sans-Serif" font-size="10.00" fill="#000000"> +getIndex</text>
</g>
<!-- Node9&#45;&gt;Node11 -->
<g id="edge13" class="edge">
<title>Node9&#45;&gt;Node11</title>
<path fill="none" stroke="#404040" d="M430.8288,-457.7124C405.908,-445.0193 382.3706,-432.5883 380.5,-430 376.6454,-424.6664 373.6995,-418.6587 371.4641,-412.3631"/>
<polygon fill="none" stroke="#404040" points="371.4583,-412.3426 365.9653,-407.6707 368.1652,-400.8033 373.6582,-405.4752 371.4583,-412.3426"/>
<text text-anchor="middle" x="408" y="-422" font-family="Helvetica,sans-Serif" font-size="10.00" fill="#000000"> +getIndex</text>
</g>
<!-- Node10 -->
<g id="node8" class="node">
<title>Node10</title>
<polygon fill="none" stroke="#bfbfbf" points="575,-454 575,-522 714,-522 714,-454 575,-454"/>
<text text-anchor="start" x="583" y="-510" font-family="Helvetica,sans-Serif" font-size="10.00" fill="#000000">variant&lt; std::monostate,</text>
<text text-anchor="middle" x="644.5" y="-499" font-family="Helvetica,sans-Serif" font-size="10.00" fill="#000000"> Fill, Spectator &gt;</text>
<polyline fill="none" stroke="#bfbfbf" points="575,-492 714,-492 "/>
<text text-anchor="middle" x="644.5" y="-480" font-family="Helvetica,sans-Serif" font-size="10.00" fill="#000000"> </text>
<polyline fill="none" stroke="#bfbfbf" points="575,-473 714,-473 "/>
<text text-anchor="middle" x="644.5" y="-461" font-family="Helvetica,sans-Serif" font-size="10.00" fill="#000000"> </text>
</g>
<!-- Node10&#45;&gt;Node4 -->
<g id="edge7" class="edge">
<title>Node10&#45;&gt;Node4</title>
<path fill="none" stroke="#404040" d="M647.5803,-453.9667C649.6425,-411.012 646.9189,-336.8496 610.5,-288 582.2376,-250.0909 536.2954,-225.2624 494.5782,-209.4546"/>
<polygon fill="none" stroke="#404040" points="494.506,-209.4284 487.5008,-211.1393 483.2272,-205.331 490.2325,-203.6201 494.506,-209.4284"/>
<text text-anchor="middle" x="672.5" y="-342" font-family="Helvetica,sans-Serif" font-size="10.00" fill="#000000"> +callback</text>
</g>
<!-- Node10&#45;&gt;Node11 -->
<g id="edge14" class="edge">
<title>Node10&#45;&gt;Node11</title>
<path fill="none" stroke="#404040" d="M574.803,-454.8251C528.5445,-432.7502 474.3954,-406.7799 463.5,-401 462.3164,-400.3721 461.1264,-399.7372 459.9312,-399.0961"/>
<polygon fill="none" stroke="#404040" points="459.606,-398.9191 452.4238,-399.5632 449.0667,-393.1812 456.249,-392.537 459.606,-398.9191"/>
<text text-anchor="middle" x="547.5" y="-422" font-family="Helvetica,sans-Serif" font-size="10.00" fill="#000000"> +callback</text>
</g>
<!-- Node11&#45;&gt;Node4 -->
<g id="edge8" class="edge">
<title>Node11&#45;&gt;Node4</title>
<path fill="none" stroke="#ffa500" d="M314.8008,-278.2835C313.9668,-271.8532 314.6637,-265.3571 317.5,-259 320.3402,-252.6341 324.0229,-246.5854 328.2551,-240.8905"/>
<polygon fill="#ffa500" stroke="#ffa500" points="311.4815,-279.4403 317.2841,-288.3049 318.276,-277.7566 311.4815,-279.4403"/>
<text text-anchor="middle" x="394.5" y="-262" font-family="Helvetica,sans-Serif" font-size="10.00" fill="#000000"> &lt; T, InputSpec, KeyExtractor &gt;</text>
</g>
</g>
</svg>
        <g id="navigator" transform="translate(0 0)" fill="#404254">
                <rect fill="#f2f5e9" fill-opacity="0.5" stroke="#606060" stroke-width=".5" x="0" y="0" width="60" height="60"/>
                <use id="zoomplus" xlink:href="#zoomPlus" x="17" y="9" onmousedown="handleZoom(evt,'in')"/>
                <use id="zoomminus" xlink:href="#zoomMin" x="42" y="9" onmousedown="handleZoom(evt,'out')"/>
                <use id="reset" xlink:href="#resetDef" x="30" y="36" onmousedown="handleReset()"/>
                <g id="arrowUp" xlink:href="#dirArrow" transform="translate(30 24)" onmousedown="handlePan(0,-1)">
                  <use xlink:href="#rim" fill="#404040">
                        <set attributeName="fill" to="#808080" begin="arrowUp.mouseover" end="arrowUp.mouseout"/>
                  </use>
                  <path fill="none" stroke="white" stroke-width="1.5" d="M0,-3.0v7 M-2.5,-0.5L0,-3.0L2.5,-0.5"/>
                </g>
                <g id="arrowRight" xlink:href="#dirArrow" transform="rotate(90) translate(36 -43)" onmousedown="handlePan(1,0)">
                  <use xlink:href="#rim" fill="#404040">
                        <set attributeName="fill" to="#808080" begin="arrowRight.mouseover" end="arrowRight.mouseout"/>
                  </use>
                  <path fill="none" stroke="white" stroke-width="1.5" d="M0,-3.0v7 M-2.5,-0.5L0,-3.0L2.5,-0.5"/>
                </g>
                <g id="arrowDown" xlink:href="#dirArrow" transform="rotate(180) translate(-30 -48)" onmousedown="handlePan(0,1)">
                  <use xlink:href="#rim" fill="#404040">
                        <set attributeName="fill" to="#808080" begin="arrowDown.mouseover" end="arrowDown.mouseout"/>
                  </use>
                  <path fill="none" stroke="white" stroke-width="1.5" d="M0,-3.0v7 M-2.5,-0.5L0,-3.0L2.5,-0.5"/>
                </g>
                <g id="arrowLeft" xlink:href="#dirArrow" transform="rotate(270) translate(-36 17)" onmousedown="handlePan(-1,0)">
                  <use xlink:href="#rim" fill="#404040">
                        <set attributeName="fill" to="#808080" begin="arrowLeft.mouseover" end="arrowLeft.mouseout"/>
                  </use>
                  <path fill="none" stroke="white" stroke-width="1.5" d="M0,-3.0v7 M-2.5,-0.5L0,-3.0L2.5,-0.5"/>
                </g>
        </g>
        <svg viewBox="0 0 15 15" width="100%" height="30px" preserveAspectRatio="xMaxYMin meet">
         <g id="arrow_out" transform="scale(0.3 0.3)">
          <a xlink:href="structo2_1_1framework_1_1MakeRootTreeWriterSpec_1_1BranchDefinition__coll__graph_org.svg" target="_base">
           <rect id="button" ry="5" rx="5" y="6" x="6" height="38" width="38"
                fill="#f2f5e9" fill-opacity="0.5" stroke="#606060" stroke-width="1.0"/>
           <path id="arrow"
             d="M 11.500037,31.436501 C 11.940474,20.09759 22.043105,11.32322 32.158766,21.979434 L 37.068811,17.246167 C 37.068811,17.246167 37.088388,32 37.088388,32 L 22.160133,31.978069 C 22.160133,31.978069 26.997745,27.140456 26.997745,27.140456 C 18.528582,18.264221 13.291696,25.230495 11.500037,31.436501 z"
             style="fill:#404040;"/>
          </a>
         </g>
        </svg>
</svg>
