<?xml version="1.0" encoding="UTF-8" standalone="no"?>
<!DOCTYPE svg PUBLIC "-//W3C//DTD SVG 1.1//EN"
 "http://www.w3.org/Graphics/SVG/1.1/DTD/svg11.dtd">
<!-- Generated by graphviz version 2.40.1 (20161225.0304)
 -->
<!-- Title: o2::framework::RootTreeWriter::BranchDef&lt; T, KeyType, KeyExtractor &gt; Pages: 1 -->
<svg width="708pt" height="248pt"
 viewBox="0.00 0.00 708.00 248.00" xmlns="http://www.w3.org/2000/svg" xmlns:xlink="http://www.w3.org/1999/xlink">
<g id="graph0" class="graph" transform="scale(1 1) rotate(0) translate(4 244)">
<title>o2::framework::RootTreeWriter::BranchDef&lt; T, KeyType, KeyExtractor &gt;</title>
<!-- Node4 -->
<g id="node1" class="node">
<title>Node4</title>
<polygon fill="#bfbfbf" stroke="#000000" points="217,-.5 217,-112.5 382,-112.5 382,-.5 217,-.5"/>
<text text-anchor="start" x="225" y="-100.5" font-family="Helvetica,sans-Serif" font-size="10.00" fill="#000000">o2::framework::RootTreeWriter</text>
<text text-anchor="start" x="225" y="-89.5" font-family="Helvetica,sans-Serif" font-size="10.00" fill="#000000">::BranchDef&lt; T, KeyType,</text>
<text text-anchor="middle" x="299.5" y="-78.5" font-family="Helvetica,sans-Serif" font-size="10.00" fill="#000000"> KeyExtractor &gt;</text>
<polyline fill="none" stroke="#000000" points="217,-71.5 382,-71.5 "/>
<text text-anchor="middle" x="299.5" y="-59.5" font-family="Helvetica,sans-Serif" font-size="10.00" fill="#000000"> </text>
<polyline fill="none" stroke="#000000" points="217,-52.5 382,-52.5 "/>
<text text-anchor="start" x="225" y="-40.5" font-family="Helvetica,sans-Serif" font-size="10.00" fill="#000000">+ BranchDef()</text>
<text text-anchor="start" x="225" y="-29.5" font-family="Helvetica,sans-Serif" font-size="10.00" fill="#000000">+ BranchDef()</text>
<text text-anchor="start" x="225" y="-18.5" font-family="Helvetica,sans-Serif" font-size="10.00" fill="#000000">+ BranchDef()</text>
<text text-anchor="start" x="225" y="-7.5" font-family="Helvetica,sans-Serif" font-size="10.00" fill="#000000">+ init()</text>
</g>
<!-- Node5 -->
<g id="node2" class="node">
<title>Node5</title>
<polygon fill="none" stroke="#bfbfbf" points="0,-171.5 0,-228.5 115,-228.5 115,-171.5 0,-171.5"/>
<text text-anchor="middle" x="57.5" y="-216.5" font-family="Helvetica,sans-Serif" font-size="10.00" fill="#000000">vector&lt; key_type &gt;</text>
<polyline fill="none" stroke="#bfbfbf" points="0,-209.5 115,-209.5 "/>
<text text-anchor="middle" x="57.5" y="-197.5" font-family="Helvetica,sans-Serif" font-size="10.00" fill="#000000"> </text>
<polyline fill="none" stroke="#bfbfbf" points="0,-190.5 115,-190.5 "/>
<text text-anchor="middle" x="57.5" y="-178.5" font-family="Helvetica,sans-Serif" font-size="10.00" fill="#000000"> </text>
</g>
<!-- Node5&#45;&gt;Node4 -->
<g id="edge1" class="edge">
<title>Node5&#45;&gt;Node4</title>
<path fill="none" stroke="#404040" d="M80.7541,-171.182C92.7485,-157.6768 108.2528,-142.1461 124.5,-131 149.1496,-114.0896 178.2495,-99.8229 205.5697,-88.4447"/>
<polygon fill="none" stroke="#404040" points="205.6262,-88.4218 209.6803,-82.4582 216.7445,-83.9068 212.6903,-89.8704 205.6262,-88.4218"/>
<text text-anchor="middle" x="142" y="-134" font-family="Helvetica,sans-Serif" font-size="10.00" fill="#000000"> +keys</text>
</g>
<!-- Node6 -->
<g id="node3" class="node">
<title>Node6</title>
<polygon fill="none" stroke="#bfbfbf" points="133,-171.5 133,-228.5 178,-228.5 178,-171.5 133,-171.5"/>
<text text-anchor="middle" x="155.5" y="-216.5" font-family="Helvetica,sans-Serif" font-size="10.00" fill="#000000">size_t</text>
<polyline fill="none" stroke="#bfbfbf" points="133,-209.5 178,-209.5 "/>
<text text-anchor="middle" x="155.5" y="-197.5" font-family="Helvetica,sans-Serif" font-size="10.00" fill="#000000"> </text>
<polyline fill="none" stroke="#bfbfbf" points="133,-190.5 178,-190.5 "/>
<text text-anchor="middle" x="155.5" y="-178.5" font-family="Helvetica,sans-Serif" font-size="10.00" fill="#000000"> </text>
</g>
<!-- Node6&#45;&gt;Node4 -->
<g id="edge2" class="edge">
<title>Node6&#45;&gt;Node4</title>
<path fill="none" stroke="#404040" d="M155.5069,-171.3303C156.786,-158.0181 160.2136,-142.608 168.5,-131 178.5043,-116.9855 192.0226,-105.253 206.587,-95.5554"/>
<polygon fill="none" stroke="#404040" points="206.6327,-95.5268 209.5987,-88.9539 216.8068,-89.1637 213.8408,-95.7366 206.6327,-95.5268"/>
<text text-anchor="middle" x="205" y="-134" font-family="Helvetica,sans-Serif" font-size="10.00" fill="#000000"> +nofBranches</text>
</g>
<!-- Node7 -->
<g id="node4" class="node">
<title>Node7</title>
<polygon fill="none" stroke="#bfbfbf" points="237,-171.5 237,-228.5 266,-228.5 266,-171.5 237,-171.5"/>
<text text-anchor="middle" x="251.5" y="-216.5" font-family="Helvetica,sans-Serif" font-size="10.00" fill="#000000">int</text>
<polyline fill="none" stroke="#bfbfbf" points="237,-209.5 266,-209.5 "/>
<text text-anchor="middle" x="251.5" y="-197.5" font-family="Helvetica,sans-Serif" font-size="10.00" fill="#000000"> </text>
<polyline fill="none" stroke="#bfbfbf" points="237,-190.5 266,-190.5 "/>
<text text-anchor="middle" x="251.5" y="-178.5" font-family="Helvetica,sans-Serif" font-size="10.00" fill="#000000"> </text>
</g>
<!-- Node7&#45;&gt;Node4 -->
<g id="edge3" class="edge">
<title>Node7&#45;&gt;Node4</title>
<path fill="none" stroke="#404040" d="M245.9513,-171.2424C244.6074,-158.6396 244.5295,-143.829 248.5,-131 249.2422,-128.6019 250.0912,-126.2122 251.0306,-123.8394"/>
<polygon fill="none" stroke="#404040" points="251.0456,-123.8064 249.8965,-116.6875 256.026,-112.8887 257.175,-120.0077 251.0456,-123.8064"/>
<text text-anchor="middle" x="285.5" y="-134" font-family="Helvetica,sans-Serif" font-size="10.00" fill="#000000"> +branchName</text>
</g>
<!-- Node8 -->
<g id="node5" class="node">
<title>Node8</title>
<polygon fill="none" stroke="#bfbfbf" points="287.5,-166 287.5,-234 403.5,-234 403.5,-166 287.5,-166"/>
<text text-anchor="start" x="295.5" y="-222" font-family="Helvetica,sans-Serif" font-size="10.00" fill="#000000">function&lt; std::string</text>
<text text-anchor="middle" x="345.5" y="-211" font-family="Helvetica,sans-Serif" font-size="10.00" fill="#000000">(std::string, size_t)&gt;</text>
<polyline fill="none" stroke="#bfbfbf" points="287.5,-204 403.5,-204 "/>
<text text-anchor="middle" x="345.5" y="-192" font-family="Helvetica,sans-Serif" font-size="10.00" fill="#000000"> </text>
<polyline fill="none" stroke="#bfbfbf" points="287.5,-185 403.5,-185 "/>
<text text-anchor="middle" x="345.5" y="-173" font-family="Helvetica,sans-Serif" font-size="10.00" fill="#000000"> </text>
</g>
<!-- Node8&#45;&gt;Node4 -->
<g id="edge4" class="edge">
<title>Node8&#45;&gt;Node4</title>
<path fill="none" stroke="#404040" d="M336.6562,-165.7999C333.6202,-154.6494 330.0806,-142.2476 326.5,-131 325.7958,-128.7879 325.0671,-126.5436 324.3202,-124.2812"/>
<polygon fill="none" stroke="#404040" points="324.3091,-124.2481 318.5971,-119.8465 320.4633,-112.881 326.1752,-117.2826 324.3091,-124.2481"/>
<text text-anchor="middle" x="357" y="-134" font-family="Helvetica,sans-Serif" font-size="10.00" fill="#000000"> +getName</text>
</g>
<!-- Node9 -->
<g id="node6" class="node">
<title>Node9</title>
<polygon fill="none" stroke="#bfbfbf" points="422,-160.5 422,-239.5 543,-239.5 543,-160.5 422,-160.5"/>
<text text-anchor="start" x="430" y="-227.5" font-family="Helvetica,sans-Serif" font-size="10.00" fill="#000000">function&lt; size_t(o2</text>
<text text-anchor="start" x="430" y="-216.5" font-family="Helvetica,sans-Serif" font-size="10.00" fill="#000000">::framework::DataRef</text>
<text text-anchor="middle" x="482.5" y="-205.5" font-family="Helvetica,sans-Serif" font-size="10.00" fill="#000000"> const &amp;)&gt;</text>
<polyline fill="none" stroke="#bfbfbf" points="422,-198.5 543,-198.5 "/>
<text text-anchor="middle" x="482.5" y="-186.5" font-family="Helvetica,sans-Serif" font-size="10.00" fill="#000000"> </text>
<polyline fill="none" stroke="#bfbfbf" points="422,-179.5 543,-179.5 "/>
<text text-anchor="middle" x="482.5" y="-167.5" font-family="Helvetica,sans-Serif" font-size="10.00" fill="#000000"> </text>
</g>
<!-- Node9&#45;&gt;Node4 -->
<g id="edge5" class="edge">
<title>Node9&#45;&gt;Node4</title>
<path fill="none" stroke="#404040" d="M432.01,-160.4081C416.121,-147.9487 398.1517,-133.858 380.6897,-120.1652"/>
<polygon fill="none" stroke="#404040" points="380.5003,-120.0166 373.3105,-119.4619 371.0573,-112.6118 378.247,-113.1666 380.5003,-120.0166"/>
<text text-anchor="middle" x="434" y="-134" font-family="Helvetica,sans-Serif" font-size="10.00" fill="#000000"> +getIndex</text>
</g>
<!-- Node10 -->
<g id="node7" class="node">
<title>Node10</title>
<polygon fill="none" stroke="#bfbfbf" points="561,-166 561,-234 700,-234 700,-166 561,-166"/>
<text text-anchor="start" x="569" y="-222" font-family="Helvetica,sans-Serif" font-size="10.00" fill="#000000">variant&lt; std::monostate,</text>
<text text-anchor="middle" x="630.5" y="-211" font-family="Helvetica,sans-Serif" font-size="10.00" fill="#000000"> Fill, Spectator &gt;</text>
<polyline fill="none" stroke="#bfbfbf" points="561,-204 700,-204 "/>
<text text-anchor="middle" x="630.5" y="-192" font-family="Helvetica,sans-Serif" font-size="10.00" fill="#000000"> </text>
<polyline fill="none" stroke="#bfbfbf" points="561,-185 700,-185 "/>
<text text-anchor="middle" x="630.5" y="-173" font-family="Helvetica,sans-Serif" font-size="10.00" fill="#000000"> </text>
</g>
<!-- Node10&#45;&gt;Node4 -->
<g id="edge6" class="edge">
<title>Node10&#45;&gt;Node4</title>
<path fill="none" stroke="#404040" d="M565.1604,-165.9796C560.8947,-163.9177 556.6479,-161.9077 552.5,-160 500.5104,-136.0882 441.3655,-111.7394 393.3408,-92.6705"/>
<polygon fill="none" stroke="#404040" points="393.1728,-92.6041 386.1219,-94.116 382.0144,-88.1891 389.0652,-86.6771 393.1728,-92.6041"/>
<text text-anchor="middle" x="537.5" y="-134" font-family="Helvetica,sans-Serif" font-size="10.00" fill="#000000"> +callback</text>
</g>
</g>
</svg>
