<?xml version="1.0" encoding="UTF-8" standalone="no"?>
<!DOCTYPE svg PUBLIC "-//W3C//DTD SVG 1.1//EN"
 "http://www.w3.org/Graphics/SVG/1.1/DTD/svg11.dtd">
<!-- Generated by graphviz version 2.40.1 (20161225.0304)
 -->
<!-- Title: Graphical Class Hierarchy Pages: 1 -->
<svg width="635pt" height="1215pt"
 viewBox="0.00 0.00 635.00 1215.00" xmlns="http://www.w3.org/2000/svg" xmlns:xlink="http://www.w3.org/1999/xlink">
<g id="graph0" class="graph" transform="scale(1 1) rotate(0) translate(4 1211)">
<title>Graphical Class Hierarchy</title>
<!-- Node0 -->
<g id="node1" class="node">
<title>Node0</title>
<g id="a_node1"><a xlink:href="d3/d60/classGPUCA__NAMESPACE_1_1gpu_1_1GPUKernelTemplate.html" target="_top" xlink:title="GPUCA_NAMESPACE::gpu\l::GPUKernelTemplate">
<polygon fill="none" stroke="#000000" points="0,-661.5 0,-691.5 140,-691.5 140,-661.5 0,-661.5"/>
<text text-anchor="start" x="8" y="-679.5" font-family="Helvetica,sans-Serif" font-size="10.00" fill="#000000">GPUCA_NAMESPACE::gpu</text>
<text text-anchor="middle" x="70" y="-668.5" font-family="Helvetica,sans-Serif" font-size="10.00" fill="#000000">::GPUKernelTemplate</text>
</a>
</g>
</g>
<!-- Node1 -->
<g id="node2" class="node">
<title>Node1</title>
<g id="a_node2"><a xlink:href="d8/dba/classGPUCA__NAMESPACE_1_1gpu_1_1GPUITSFitterKernel.html" target="_top" xlink:title="GPUCA_NAMESPACE::gpu\l::GPUITSFitterKernel">
<polygon fill="none" stroke="#000000" points="207.5,-1176.5 207.5,-1206.5 347.5,-1206.5 347.5,-1176.5 207.5,-1176.5"/>
<text text-anchor="start" x="215.5" y="-1194.5" font-family="Helvetica,sans-Serif" font-size="10.00" fill="#000000">GPUCA_NAMESPACE::gpu</text>
<text text-anchor="middle" x="277.5" y="-1183.5" font-family="Helvetica,sans-Serif" font-size="10.00" fill="#000000">::GPUITSFitterKernel</text>
</a>
</g>
</g>
<!-- Node0&#45;&gt;Node1 -->
<g id="edge1" class="edge">
<title>Node0&#45;&gt;Node1</title>
<path fill="none" stroke="#191970" d="M71.9729,-701.967C79.5323,-792.906 109.62,-1099.8084 176,-1167.5 184.5577,-1176.2268 195.6591,-1182.0201 207.3678,-1185.8202"/>
<polygon fill="#191970" stroke="#191970" points="75.4411,-701.4323 71.1436,-691.7482 68.4641,-701.9985 75.4411,-701.4323"/>
</g>
<!-- Node2 -->
<g id="node3" class="node">
<title>Node2</title>
<g id="a_node3"><a xlink:href="da/d27/classGPUCA__NAMESPACE_1_1gpu_1_1GPUMemClean16.html" target="_top" xlink:title="GPUCA_NAMESPACE::gpu\l::GPUMemClean16">
<polygon fill="none" stroke="#000000" points="207.5,-1127.5 207.5,-1157.5 347.5,-1157.5 347.5,-1127.5 207.5,-1127.5"/>
<text text-anchor="start" x="215.5" y="-1145.5" font-family="Helvetica,sans-Serif" font-size="10.00" fill="#000000">GPUCA_NAMESPACE::gpu</text>
<text text-anchor="middle" x="277.5" y="-1134.5" font-family="Helvetica,sans-Serif" font-size="10.00" fill="#000000">::GPUMemClean16</text>
</a>
</g>
</g>
<!-- Node0&#45;&gt;Node2 -->
<g id="edge2" class="edge">
<title>Node0&#45;&gt;Node2</title>
<path fill="none" stroke="#191970" d="M72.5914,-701.6191C81.816,-786.1652 115.7663,-1058.4578 176,-1118.5 184.5923,-1127.0649 195.6394,-1132.7906 207.268,-1136.5765"/>
<polygon fill="#191970" stroke="#191970" points="76.0653,-701.1879 71.5207,-691.6173 69.1051,-701.933 76.0653,-701.1879"/>
</g>
<!-- Node3 -->
<g id="node4" class="node">
<title>Node3</title>
<g id="a_node4"><a xlink:href="d1/d49/classGPUCA__NAMESPACE_1_1gpu_1_1GPUTPCCFChargeMapFiller.html" target="_top" xlink:title="GPUCA_NAMESPACE::gpu\l::GPUTPCCFChargeMapFiller">
<polygon fill="none" stroke="#000000" points="201.5,-1078.5 201.5,-1108.5 353.5,-1108.5 353.5,-1078.5 201.5,-1078.5"/>
<text text-anchor="start" x="209.5" y="-1096.5" font-family="Helvetica,sans-Serif" font-size="10.00" fill="#000000">GPUCA_NAMESPACE::gpu</text>
<text text-anchor="middle" x="277.5" y="-1085.5" font-family="Helvetica,sans-Serif" font-size="10.00" fill="#000000">::GPUTPCCFChargeMapFiller</text>
</a>
</g>
</g>
<!-- Node0&#45;&gt;Node3 -->
<g id="edge3" class="edge">
<title>Node0&#45;&gt;Node3</title>
<path fill="none" stroke="#191970" d="M73.3958,-701.6249C84.47,-779.8786 121.9617,-1017.1252 176,-1069.5 183.1514,-1076.4312 191.9149,-1081.492 201.2678,-1085.166"/>
<polygon fill="#191970" stroke="#191970" points="76.8559,-701.0953 72.0095,-691.6739 69.9228,-702.0612 76.8559,-701.0953"/>
</g>
<!-- Node4 -->
<g id="node5" class="node">
<title>Node4</title>
<g id="a_node5"><a xlink:href="dd/db2/classGPUCA__NAMESPACE_1_1gpu_1_1GPUTPCCFClusterizer.html" target="_top" xlink:title="GPUCA_NAMESPACE::gpu\l::GPUTPCCFClusterizer">
<polygon fill="none" stroke="#000000" points="207.5,-1029.5 207.5,-1059.5 347.5,-1059.5 347.5,-1029.5 207.5,-1029.5"/>
<text text-anchor="start" x="215.5" y="-1047.5" font-family="Helvetica,sans-Serif" font-size="10.00" fill="#000000">GPUCA_NAMESPACE::gpu</text>
<text text-anchor="middle" x="277.5" y="-1036.5" font-family="Helvetica,sans-Serif" font-size="10.00" fill="#000000">::GPUTPCCFClusterizer</text>
</a>
</g>
</g>
<!-- Node0&#45;&gt;Node4 -->
<g id="edge4" class="edge">
<title>Node0&#45;&gt;Node4</title>
<path fill="none" stroke="#191970" d="M74.4456,-701.76C87.553,-773.4235 128.1402,-975.7314 176,-1020.5 184.7938,-1028.7259 195.868,-1034.2976 207.4445,-1038.0391"/>
<polygon fill="#191970" stroke="#191970" points="77.8677,-701.0146 72.647,-691.7953 70.979,-702.258 77.8677,-701.0146"/>
</g>
<!-- Node5 -->
<g id="node6" class="node">
<title>Node5</title>
<g id="a_node6"><a xlink:href="df/d90/classGPUCA__NAMESPACE_1_1gpu_1_1GPUTPCCFDecodeZS.html" target="_top" xlink:title="GPUCA_NAMESPACE::gpu\l::GPUTPCCFDecodeZS">
<polygon fill="none" stroke="#000000" points="207.5,-980.5 207.5,-1010.5 347.5,-1010.5 347.5,-980.5 207.5,-980.5"/>
<text text-anchor="start" x="215.5" y="-998.5" font-family="Helvetica,sans-Serif" font-size="10.00" fill="#000000">GPUCA_NAMESPACE::gpu</text>
<text text-anchor="middle" x="277.5" y="-987.5" font-family="Helvetica,sans-Serif" font-size="10.00" fill="#000000">::GPUTPCCFDecodeZS</text>
</a>
</g>
</g>
<!-- Node0&#45;&gt;Node5 -->
<g id="edge5" class="edge">
<title>Node0&#45;&gt;Node5</title>
<path fill="none" stroke="#191970" d="M71.3063,-701.7725C75.6787,-758.927 94.5893,-898.7884 176,-971.5 184.9134,-979.4609 195.9772,-984.9122 207.4902,-988.6187"/>
<polygon fill="#191970" stroke="#191970" points="74.7982,-701.5327 70.6293,-691.7925 67.8143,-702.0065 74.7982,-701.5327"/>
</g>
<!-- Node6 -->
<g id="node7" class="node">
<title>Node6</title>
<g id="a_node7"><a xlink:href="d9/d9a/classGPUCA__NAMESPACE_1_1gpu_1_1GPUTPCCFDeconvolution.html" target="_top" xlink:title="GPUCA_NAMESPACE::gpu\l::GPUTPCCFDeconvolution">
<polygon fill="none" stroke="#000000" points="205,-931.5 205,-961.5 350,-961.5 350,-931.5 205,-931.5"/>
<text text-anchor="start" x="213" y="-949.5" font-family="Helvetica,sans-Serif" font-size="10.00" fill="#000000">GPUCA_NAMESPACE::gpu</text>
<text text-anchor="middle" x="277.5" y="-938.5" font-family="Helvetica,sans-Serif" font-size="10.00" fill="#000000">::GPUTPCCFDeconvolution</text>
</a>
</g>
</g>
<!-- Node0&#45;&gt;Node6 -->
<g id="edge6" class="edge">
<title>Node0&#45;&gt;Node6</title>
<path fill="none" stroke="#191970" d="M73.3318,-701.68C81.3436,-751.7844 106.4648,-864.1608 176,-922.5 184.3231,-929.483 194.3203,-934.5111 204.7497,-938.117"/>
<polygon fill="#191970" stroke="#191970" points="76.7798,-701.0719 71.8338,-691.7024 69.8574,-702.1113 76.7798,-701.0719"/>
</g>
<!-- Node7 -->
<g id="node8" class="node">
<title>Node7</title>
<g id="a_node8"><a xlink:href="d3/d02/classGPUCA__NAMESPACE_1_1gpu_1_1GPUTPCCFGather.html" target="_top" xlink:title="GPUCA_NAMESPACE::gpu\l::GPUTPCCFGather">
<polygon fill="none" stroke="#000000" points="207.5,-882.5 207.5,-912.5 347.5,-912.5 347.5,-882.5 207.5,-882.5"/>
<text text-anchor="start" x="215.5" y="-900.5" font-family="Helvetica,sans-Serif" font-size="10.00" fill="#000000">GPUCA_NAMESPACE::gpu</text>
<text text-anchor="middle" x="277.5" y="-889.5" font-family="Helvetica,sans-Serif" font-size="10.00" fill="#000000">::GPUTPCCFGather</text>
</a>
</g>
</g>
<!-- Node0&#45;&gt;Node7 -->
<g id="edge7" class="edge">
<title>Node0&#45;&gt;Node7</title>
<path fill="none" stroke="#191970" d="M76.1922,-701.362C88.0439,-743.5808 118.0613,-829.026 176,-873.5 185.1927,-880.5564 196.1329,-885.5846 207.3721,-889.1577"/>
<polygon fill="#191970" stroke="#191970" points="79.546,-700.3558 73.5645,-691.611 72.7871,-702.1772 79.546,-700.3558"/>
</g>
<!-- Node8 -->
<g id="node9" class="node">
<title>Node8</title>
<g id="a_node9"><a xlink:href="d0/dad/classGPUCA__NAMESPACE_1_1gpu_1_1GPUTPCCFMCLabelFlattener.html" target="_top" xlink:title="GPUCA_NAMESPACE::gpu\l::GPUTPCCFMCLabelFlattener">
<polygon fill="none" stroke="#000000" points="198,-833.5 198,-863.5 357,-863.5 357,-833.5 198,-833.5"/>
<text text-anchor="start" x="206" y="-851.5" font-family="Helvetica,sans-Serif" font-size="10.00" fill="#000000">GPUCA_NAMESPACE::gpu</text>
<text text-anchor="middle" x="277.5" y="-840.5" font-family="Helvetica,sans-Serif" font-size="10.00" fill="#000000">::GPUTPCCFMCLabelFlattener</text>
</a>
</g>
</g>
<!-- Node0&#45;&gt;Node8 -->
<g id="edge8" class="edge">
<title>Node0&#45;&gt;Node8</title>
<path fill="none" stroke="#191970" d="M80.8555,-701.3413C96.7571,-734.7068 129.6132,-793.3925 176,-824.5 182.6923,-828.9879 190.1249,-832.6408 197.8383,-835.6133"/>
<polygon fill="#191970" stroke="#191970" points="83.8437,-699.4645 76.4686,-691.858 77.4905,-702.4034 83.8437,-699.4645"/>
</g>
<!-- Node9 -->
<g id="node10" class="node">
<title>Node9</title>
<g id="a_node10"><a xlink:href="db/d60/classGPUCA__NAMESPACE_1_1gpu_1_1GPUTPCCFNoiseSuppression.html" target="_top" xlink:title="GPUCA_NAMESPACE::gpu\l::GPUTPCCFNoiseSuppression">
<polygon fill="none" stroke="#000000" points="197,-784.5 197,-814.5 358,-814.5 358,-784.5 197,-784.5"/>
<text text-anchor="start" x="205" y="-802.5" font-family="Helvetica,sans-Serif" font-size="10.00" fill="#000000">GPUCA_NAMESPACE::gpu</text>
<text text-anchor="middle" x="277.5" y="-791.5" font-family="Helvetica,sans-Serif" font-size="10.00" fill="#000000">::GPUTPCCFNoiseSuppression</text>
</a>
</g>
</g>
<!-- Node0&#45;&gt;Node9 -->
<g id="edge9" class="edge">
<title>Node0&#45;&gt;Node9</title>
<path fill="none" stroke="#8b1a1a" d="M88.4423,-699.6658C107.8299,-722.4287 140.4149,-756.4403 176,-775.5 182.5444,-779.0053 189.5961,-782.0033 196.8246,-784.5668"/>
<polygon fill="#8b1a1a" stroke="#8b1a1a" points="91.0073,-697.2767 81.9155,-691.837 85.6307,-701.7591 91.0073,-697.2767"/>
</g>
<!-- Node10 -->
<g id="node11" class="node">
<title>Node10</title>
<g id="a_node11"><a xlink:href="db/d88/classGPUCA__NAMESPACE_1_1gpu_1_1GPUTPCCFPeakFinder.html" target="_top" xlink:title="GPUCA_NAMESPACE::gpu\l::GPUTPCCFPeakFinder">
<polygon fill="none" stroke="#000000" points="207.5,-735.5 207.5,-765.5 347.5,-765.5 347.5,-735.5 207.5,-735.5"/>
<text text-anchor="start" x="215.5" y="-753.5" font-family="Helvetica,sans-Serif" font-size="10.00" fill="#000000">GPUCA_NAMESPACE::gpu</text>
<text text-anchor="middle" x="277.5" y="-742.5" font-family="Helvetica,sans-Serif" font-size="10.00" fill="#000000">::GPUTPCCFPeakFinder</text>
</a>
</g>
</g>
<!-- Node0&#45;&gt;Node10 -->
<g id="edge10" class="edge">
<title>Node0&#45;&gt;Node10</title>
<path fill="none" stroke="#191970" d="M106.7557,-696.1627C126.7977,-706.2851 152.2899,-718.2069 176,-726.5 185.9989,-729.9973 196.7282,-733.1495 207.332,-735.9317"/>
<polygon fill="#191970" stroke="#191970" points="108.1684,-692.9539 97.6724,-691.5104 104.9773,-699.1843 108.1684,-692.9539"/>
</g>
<!-- Node11 -->
<g id="node12" class="node">
<title>Node11</title>
<g id="a_node12"><a xlink:href="d0/d6b/classGPUCA__NAMESPACE_1_1gpu_1_1GPUTPCCompressionKernels.html" target="_top" xlink:title="GPUCA_NAMESPACE::gpu\l::GPUTPCCompressionKernels">
<polygon fill="none" stroke="#000000" points="196.5,-686.5 196.5,-716.5 358.5,-716.5 358.5,-686.5 196.5,-686.5"/>
<text text-anchor="start" x="204.5" y="-704.5" font-family="Helvetica,sans-Serif" font-size="10.00" fill="#000000">GPUCA_NAMESPACE::gpu</text>
<text text-anchor="middle" x="277.5" y="-693.5" font-family="Helvetica,sans-Serif" font-size="10.00" fill="#000000">::GPUTPCCompressionKernels</text>
</a>
</g>
</g>
<!-- Node0&#45;&gt;Node11 -->
<g id="edge11" class="edge">
<title>Node0&#45;&gt;Node11</title>
<path fill="none" stroke="#191970" d="M150.5109,-686.2001C165.5137,-688.0077 181.1999,-689.8976 196.2255,-691.7079"/>
<polygon fill="#191970" stroke="#191970" points="150.5969,-682.6852 140.25,-684.9639 149.7595,-689.635 150.5969,-682.6852"/>
</g>
<!-- Node12 -->
<g id="node13" class="node">
<title>Node12</title>
<g id="a_node13"><a xlink:href="d8/dc8/classGPUCA__NAMESPACE_1_1gpu_1_1GPUTPCConvertKernel.html" target="_top" xlink:title="GPUCA_NAMESPACE::gpu\l::GPUTPCConvertKernel">
<polygon fill="none" stroke="#000000" points="207.5,-637.5 207.5,-667.5 347.5,-667.5 347.5,-637.5 207.5,-637.5"/>
<text text-anchor="start" x="215.5" y="-655.5" font-family="Helvetica,sans-Serif" font-size="10.00" fill="#000000">GPUCA_NAMESPACE::gpu</text>
<text text-anchor="middle" x="277.5" y="-644.5" font-family="Helvetica,sans-Serif" font-size="10.00" fill="#000000">::GPUTPCConvertKernel</text>
</a>
</g>
</g>
<!-- Node0&#45;&gt;Node12 -->
<g id="edge12" class="edge">
<title>Node0&#45;&gt;Node12</title>
<path fill="none" stroke="#191970" d="M150.2733,-667.2154C169.0875,-665.0393 188.9887,-662.7374 207.3223,-660.6169"/>
<polygon fill="#191970" stroke="#191970" points="149.7816,-663.7488 140.25,-668.3747 150.586,-670.7025 149.7816,-663.7488"/>
</g>
<!-- Node13 -->
<g id="node14" class="node">
<title>Node13</title>
<g id="a_node14"><a xlink:href="d2/db6/classGPUCA__NAMESPACE_1_1gpu_1_1GPUTPCCreateSliceData.html" target="_top" xlink:title="GPUCA_NAMESPACE::gpu\l::GPUTPCCreateSliceData">
<polygon fill="none" stroke="#000000" points="207,-588.5 207,-618.5 348,-618.5 348,-588.5 207,-588.5"/>
<text text-anchor="start" x="215" y="-606.5" font-family="Helvetica,sans-Serif" font-size="10.00" fill="#000000">GPUCA_NAMESPACE::gpu</text>
<text text-anchor="middle" x="277.5" y="-595.5" font-family="Helvetica,sans-Serif" font-size="10.00" fill="#000000">::GPUTPCCreateSliceData</text>
</a>
</g>
</g>
<!-- Node0&#45;&gt;Node13 -->
<g id="edge13" class="edge">
<title>Node0&#45;&gt;Node13</title>
<path fill="none" stroke="#191970" d="M108.5689,-656.9681C128.3714,-647.4742 153.0933,-636.432 176,-628.5 186.5467,-624.8479 197.8839,-621.5078 209.0231,-618.5404"/>
<polygon fill="#191970" stroke="#191970" points="107.0242,-653.8273 99.5574,-661.3438 110.0818,-660.1242 107.0242,-653.8273"/>
</g>
<!-- Node14 -->
<g id="node15" class="node">
<title>Node14</title>
<g id="a_node15"><a xlink:href="d9/ddb/classGPUCA__NAMESPACE_1_1gpu_1_1GPUTPCGlobalTracking.html" target="_top" xlink:title="GPUCA_NAMESPACE::gpu\l::GPUTPCGlobalTracking">
<polygon fill="none" stroke="#000000" points="207.5,-539.5 207.5,-569.5 347.5,-569.5 347.5,-539.5 207.5,-539.5"/>
<text text-anchor="start" x="215.5" y="-557.5" font-family="Helvetica,sans-Serif" font-size="10.00" fill="#000000">GPUCA_NAMESPACE::gpu</text>
<text text-anchor="middle" x="277.5" y="-546.5" font-family="Helvetica,sans-Serif" font-size="10.00" fill="#000000">::GPUTPCGlobalTracking</text>
</a>
</g>
</g>
<!-- Node0&#45;&gt;Node14 -->
<g id="edge14" class="edge">
<title>Node0&#45;&gt;Node14</title>
<path fill="none" stroke="#191970" d="M88.9047,-653.5107C108.4359,-631.273 140.9357,-598.2612 176,-579.5 185.681,-574.3202 196.4551,-570.1923 207.2649,-566.9086"/>
<polygon fill="#191970" stroke="#191970" points="86.1839,-651.3065 82.315,-661.1697 91.4902,-655.872 86.1839,-651.3065"/>
</g>
<!-- Node15 -->
<g id="node16" class="node">
<title>Node15</title>
<g id="a_node16"><a xlink:href="df/da8/classGPUCA__NAMESPACE_1_1gpu_1_1GPUTPCGlobalTrackingCopyNumbers.html" target="_top" xlink:title="GPUCA_NAMESPACE::gpu\l::GPUTPCGlobalTrackingCopyNumbers">
<polygon fill="none" stroke="#000000" points="176,-490.5 176,-520.5 379,-520.5 379,-490.5 176,-490.5"/>
<text text-anchor="start" x="184" y="-508.5" font-family="Helvetica,sans-Serif" font-size="10.00" fill="#000000">GPUCA_NAMESPACE::gpu</text>
<text text-anchor="middle" x="277.5" y="-497.5" font-family="Helvetica,sans-Serif" font-size="10.00" fill="#000000">::GPUTPCGlobalTrackingCopyNumbers</text>
</a>
</g>
</g>
<!-- Node0&#45;&gt;Node15 -->
<g id="edge15" class="edge">
<title>Node0&#45;&gt;Node15</title>
<path fill="none" stroke="#191970" d="M80.9871,-652.0544C97.0404,-619.2091 130.0706,-561.3959 176,-530.5 181.7974,-526.6002 188.1468,-523.3079 194.7509,-520.5287"/>
<polygon fill="#191970" stroke="#191970" points="77.6825,-650.8542 76.5546,-661.3888 84.0058,-653.8569 77.6825,-650.8542"/>
</g>
<!-- Node16 -->
<g id="node17" class="node">
<title>Node16</title>
<g id="a_node17"><a xlink:href="da/dd0/classGPUCA__NAMESPACE_1_1gpu_1_1GPUTPCGMMergerGeneral.html" target="_top" xlink:title="GPUCA_NAMESPACE::gpu\l::GPUTPCGMMergerGeneral">
<polygon fill="none" stroke="#000000" points="202.5,-441.5 202.5,-471.5 352.5,-471.5 352.5,-441.5 202.5,-441.5"/>
<text text-anchor="start" x="210.5" y="-459.5" font-family="Helvetica,sans-Serif" font-size="10.00" fill="#000000">GPUCA_NAMESPACE::gpu</text>
<text text-anchor="middle" x="277.5" y="-448.5" font-family="Helvetica,sans-Serif" font-size="10.00" fill="#000000">::GPUTPCGMMergerGeneral</text>
</a>
</g>
</g>
<!-- Node0&#45;&gt;Node16 -->
<g id="edge16" class="edge">
<title>Node0&#45;&gt;Node16</title>
<path fill="none" stroke="#191970" d="M76.4008,-651.635C88.4934,-609.8172 118.7689,-525.6605 176,-481.5 183.8306,-475.4578 192.9273,-470.8551 202.3961,-467.353"/>
<polygon fill="#191970" stroke="#191970" points="73.0191,-650.7322 73.7128,-661.3043 79.7633,-652.6071 73.0191,-650.7322"/>
</g>
<!-- Node36 -->
<g id="node37" class="node">
<title>Node36</title>
<g id="a_node37"><a xlink:href="d2/d8c/classGPUCA__NAMESPACE_1_1gpu_1_1GPUTPCNeighboursCleaner.html" target="_top" xlink:title="GPUCA_NAMESPACE::gpu\l::GPUTPCNeighboursCleaner">
<polygon fill="none" stroke="#000000" points="200,-392.5 200,-422.5 355,-422.5 355,-392.5 200,-392.5"/>
<text text-anchor="start" x="208" y="-410.5" font-family="Helvetica,sans-Serif" font-size="10.00" fill="#000000">GPUCA_NAMESPACE::gpu</text>
<text text-anchor="middle" x="277.5" y="-399.5" font-family="Helvetica,sans-Serif" font-size="10.00" fill="#000000">::GPUTPCNeighboursCleaner</text>
</a>
</g>
</g>
<!-- Node0&#45;&gt;Node36 -->
<g id="edge36" class="edge">
<title>Node0&#45;&gt;Node36</title>
<path fill="none" stroke="#191970" d="M73.4955,-651.2615C81.7643,-601.5004 107.2695,-490.536 176,-432.5 183.0024,-426.5872 191.1918,-422.0344 199.8275,-418.535"/>
<polygon fill="#191970" stroke="#191970" points="69.989,-651.0319 71.9039,-661.4523 76.9052,-652.1122 69.989,-651.0319"/>
</g>
<!-- Node37 -->
<g id="node38" class="node">
<title>Node37</title>
<g id="a_node38"><a xlink:href="d7/dd4/classGPUCA__NAMESPACE_1_1gpu_1_1GPUTPCNeighboursFinder.html" target="_top" xlink:title="GPUCA_NAMESPACE::gpu\l::GPUTPCNeighboursFinder">
<polygon fill="none" stroke="#000000" points="204,-343.5 204,-373.5 351,-373.5 351,-343.5 204,-343.5"/>
<text text-anchor="start" x="212" y="-361.5" font-family="Helvetica,sans-Serif" font-size="10.00" fill="#000000">GPUCA_NAMESPACE::gpu</text>
<text text-anchor="middle" x="277.5" y="-350.5" font-family="Helvetica,sans-Serif" font-size="10.00" fill="#000000">::GPUTPCNeighboursFinder</text>
</a>
</g>
</g>
<!-- Node0&#45;&gt;Node37 -->
<g id="edge37" class="edge">
<title>Node0&#45;&gt;Node37</title>
<path fill="none" stroke="#191970" d="M71.4402,-651.0929C76.0829,-594.2047 95.5041,-455.9127 176,-383.5 183.9604,-376.3389 193.6428,-371.1508 203.8307,-367.4065"/>
<polygon fill="#191970" stroke="#191970" points="67.9296,-651.114 70.695,-661.3415 74.9111,-651.6217 67.9296,-651.114"/>
</g>
<!-- Node38 -->
<g id="node39" class="node">
<title>Node38</title>
<g id="a_node39"><a xlink:href="d1/d4a/classGPUCA__NAMESPACE_1_1gpu_1_1GPUTPCStartHitsFinder.html" target="_top" xlink:title="GPUCA_NAMESPACE::gpu\l::GPUTPCStartHitsFinder">
<polygon fill="none" stroke="#000000" points="207.5,-294.5 207.5,-324.5 347.5,-324.5 347.5,-294.5 207.5,-294.5"/>
<text text-anchor="start" x="215.5" y="-312.5" font-family="Helvetica,sans-Serif" font-size="10.00" fill="#000000">GPUCA_NAMESPACE::gpu</text>
<text text-anchor="middle" x="277.5" y="-301.5" font-family="Helvetica,sans-Serif" font-size="10.00" fill="#000000">::GPUTPCStartHitsFinder</text>
</a>
</g>
</g>
<!-- Node0&#45;&gt;Node38 -->
<g id="edge38" class="edge">
<title>Node0&#45;&gt;Node38</title>
<path fill="none" stroke="#191970" d="M74.4873,-651.407C87.7066,-580.214 128.5653,-379.2131 176,-334.5 184.782,-326.2219 195.8505,-320.5576 207.425,-316.7077"/>
<polygon fill="#191970" stroke="#191970" points="71.0332,-650.8388 72.6728,-661.306 77.9185,-652.1009 71.0332,-650.8388"/>
</g>
<!-- Node39 -->
<g id="node40" class="node">
<title>Node39</title>
<g id="a_node40"><a xlink:href="dc/d09/classGPUCA__NAMESPACE_1_1gpu_1_1GPUTPCStartHitsSorter.html" target="_top" xlink:title="GPUCA_NAMESPACE::gpu\l::GPUTPCStartHitsSorter">
<polygon fill="none" stroke="#000000" points="207.5,-245.5 207.5,-275.5 347.5,-275.5 347.5,-245.5 207.5,-245.5"/>
<text text-anchor="start" x="215.5" y="-263.5" font-family="Helvetica,sans-Serif" font-size="10.00" fill="#000000">GPUCA_NAMESPACE::gpu</text>
<text text-anchor="middle" x="277.5" y="-252.5" font-family="Helvetica,sans-Serif" font-size="10.00" fill="#000000">::GPUTPCStartHitsSorter</text>
</a>
</g>
</g>
<!-- Node0&#45;&gt;Node39 -->
<g id="edge39" class="edge">
<title>Node0&#45;&gt;Node39</title>
<path fill="none" stroke="#191970" d="M73.5042,-651.0435C84.7812,-572.762 122.5372,-337.7347 176,-285.5 184.6972,-277.0026 195.7944,-271.2406 207.4396,-267.3643"/>
<polygon fill="#191970" stroke="#191970" points="69.9722,-651.0232 72.0338,-661.4155 76.9029,-652.0058 69.9722,-651.0232"/>
</g>
<!-- Node40 -->
<g id="node41" class="node">
<title>Node40</title>
<g id="a_node41"><a xlink:href="d7/d66/classGPUCA__NAMESPACE_1_1gpu_1_1GPUTPCTrackletSelector.html" target="_top" xlink:title="GPUCA_NAMESPACE::gpu\l::GPUTPCTrackletSelector">
<polygon fill="none" stroke="#000000" points="207.5,-196.5 207.5,-226.5 347.5,-226.5 347.5,-196.5 207.5,-196.5"/>
<text text-anchor="start" x="215.5" y="-214.5" font-family="Helvetica,sans-Serif" font-size="10.00" fill="#000000">GPUCA_NAMESPACE::gpu</text>
<text text-anchor="middle" x="277.5" y="-203.5" font-family="Helvetica,sans-Serif" font-size="10.00" fill="#000000">::GPUTPCTrackletSelector</text>
</a>
</g>
</g>
<!-- Node0&#45;&gt;Node40 -->
<g id="edge40" class="edge">
<title>Node0&#45;&gt;Node40</title>
<path fill="none" stroke="#191970" d="M72.6292,-651.5142C81.9758,-567.414 116.272,-296.5331 176,-236.5 184.576,-227.8802 195.6154,-222.0599 207.2413,-218.1642"/>
<polygon fill="#191970" stroke="#191970" points="69.1491,-651.1426 71.5439,-661.4632 76.1078,-651.9018 69.1491,-651.1426"/>
</g>
<!-- Node41 -->
<g id="node42" class="node">
<title>Node41</title>
<g id="a_node42"><a xlink:href="d1/d08/classGPUCA__NAMESPACE_1_1gpu_1_1GPUTRDTrackerKernels.html" target="_top" xlink:title="GPUCA_NAMESPACE::gpu\l::GPUTRDTrackerKernels">
<polygon fill="none" stroke="#000000" points="207.5,-147.5 207.5,-177.5 347.5,-177.5 347.5,-147.5 207.5,-147.5"/>
<text text-anchor="start" x="215.5" y="-165.5" font-family="Helvetica,sans-Serif" font-size="10.00" fill="#000000">GPUCA_NAMESPACE::gpu</text>
<text text-anchor="middle" x="277.5" y="-154.5" font-family="Helvetica,sans-Serif" font-size="10.00" fill="#000000">::GPUTRDTrackerKernels</text>
</a>
</g>
</g>
<!-- Node0&#45;&gt;Node41 -->
<g id="edge41" class="edge">
<title>Node0&#45;&gt;Node41</title>
<path fill="none" stroke="#191970" d="M72.01,-651.1566C79.6963,-560.656 110.1644,-255.2075 176,-187.5 184.5398,-178.7174 195.6328,-172.8281 207.3388,-168.9171"/>
<polygon fill="#191970" stroke="#191970" points="68.5052,-651.0709 71.1662,-661.326 75.4812,-651.6497 68.5052,-651.0709"/>
</g>
<!-- Node17 -->
<g id="node18" class="node">
<title>Node17</title>
<g id="a_node18"><a xlink:href="d5/d9e/classGPUCA__NAMESPACE_1_1gpu_1_1GPUTPCGMMergerClearLinks.html" target="_top" xlink:title="GPUCA_NAMESPACE::gpu\l::GPUTPCGMMergerClearLinks">
<polygon fill="none" stroke="#000000" points="439.5,-905.5 439.5,-935.5 602.5,-935.5 602.5,-905.5 439.5,-905.5"/>
<text text-anchor="start" x="447.5" y="-923.5" font-family="Helvetica,sans-Serif" font-size="10.00" fill="#000000">GPUCA_NAMESPACE::gpu</text>
<text text-anchor="middle" x="521" y="-912.5" font-family="Helvetica,sans-Serif" font-size="10.00" fill="#000000">::GPUTPCGMMergerClearLinks</text>
</a>
</g>
</g>
<!-- Node16&#45;&gt;Node17 -->
<g id="edge17" class="edge">
<title>Node16&#45;&gt;Node17</title>
<path fill="none" stroke="#191970" d="M361.8299,-467.8444C368.2965,-471.3842 374.1727,-475.86 379,-481.5 439.1928,-551.8262 354.1475,-826.7439 415,-896.5 421.636,-904.107 430.1279,-909.5827 439.4101,-913.4856"/>
<polygon fill="#191970" stroke="#191970" points="363.2307,-464.6357 352.689,-463.5762 360.2691,-470.9784 363.2307,-464.6357"/>
</g>
<!-- Node18 -->
<g id="node19" class="node">
<title>Node18</title>
<g id="a_node19"><a xlink:href="d0/d77/classGPUCA__NAMESPACE_1_1gpu_1_1GPUTPCGMMergerCollect.html" target="_top" xlink:title="GPUCA_NAMESPACE::gpu\l::GPUTPCGMMergerCollect">
<polygon fill="none" stroke="#000000" points="448,-856.5 448,-886.5 594,-886.5 594,-856.5 448,-856.5"/>
<text text-anchor="start" x="456" y="-874.5" font-family="Helvetica,sans-Serif" font-size="10.00" fill="#000000">GPUCA_NAMESPACE::gpu</text>
<text text-anchor="middle" x="521" y="-863.5" font-family="Helvetica,sans-Serif" font-size="10.00" fill="#000000">::GPUTPCGMMergerCollect</text>
</a>
</g>
</g>
<!-- Node16&#45;&gt;Node18 -->
<g id="edge18" class="edge">
<title>Node16&#45;&gt;Node18</title>
<path fill="none" stroke="#191970" d="M361.7613,-467.9035C368.2421,-471.431 374.1403,-475.8879 379,-481.5 432.4989,-543.2817 360.9216,-786.2249 415,-847.5 423.6149,-857.2614 435.2865,-863.5044 447.7411,-867.4164"/>
<polygon fill="#191970" stroke="#191970" points="363.1493,-464.689 352.6057,-463.6479 360.1988,-471.0368 363.1493,-464.689"/>
</g>
<!-- Node19 -->
<g id="node20" class="node">
<title>Node19</title>
<g id="a_node20"><a xlink:href="de/dc0/classGPUCA__NAMESPACE_1_1gpu_1_1GPUTPCGMMergerFinalize.html" target="_top" xlink:title="GPUCA_NAMESPACE::gpu\l::GPUTPCGMMergerFinalize">
<polygon fill="none" stroke="#000000" points="446.5,-807.5 446.5,-837.5 595.5,-837.5 595.5,-807.5 446.5,-807.5"/>
<text text-anchor="start" x="454.5" y="-825.5" font-family="Helvetica,sans-Serif" font-size="10.00" fill="#000000">GPUCA_NAMESPACE::gpu</text>
<text text-anchor="middle" x="521" y="-814.5" font-family="Helvetica,sans-Serif" font-size="10.00" fill="#000000">::GPUTPCGMMergerFinalize</text>
</a>
</g>
</g>
<!-- Node16&#45;&gt;Node19 -->
<g id="edge19" class="edge">
<title>Node16&#45;&gt;Node19</title>
<path fill="none" stroke="#191970" d="M361.836,-468.0699C368.271,-471.5673 374.1395,-475.9715 379,-481.5 472.6238,-587.9907 320.3774,-692.8959 415,-798.5 423.3103,-807.7748 434.3812,-813.8625 446.2368,-817.79"/>
<polygon fill="#191970" stroke="#191970" points="363.2945,-464.8882 352.7514,-463.8424 360.3411,-471.2347 363.2945,-464.8882"/>
</g>
<!-- Node20 -->
<g id="node21" class="node">
<title>Node20</title>
<g id="a_node21"><a xlink:href="dd/d4c/classGPUCA__NAMESPACE_1_1gpu_1_1GPUTPCGMMergerFollowLoopers.html" target="_top" xlink:title="GPUCA_NAMESPACE::gpu\l::GPUTPCGMMergerFollowLoopers">
<polygon fill="none" stroke="#000000" points="430,-758.5 430,-788.5 612,-788.5 612,-758.5 430,-758.5"/>
<text text-anchor="start" x="438" y="-776.5" font-family="Helvetica,sans-Serif" font-size="10.00" fill="#000000">GPUCA_NAMESPACE::gpu</text>
<text text-anchor="middle" x="521" y="-765.5" font-family="Helvetica,sans-Serif" font-size="10.00" fill="#000000">::GPUTPCGMMergerFollowLoopers</text>
</a>
</g>
</g>
<!-- Node16&#45;&gt;Node20 -->
<g id="edge20" class="edge">
<title>Node16&#45;&gt;Node20</title>
<path fill="none" stroke="#191970" d="M361.7165,-468.1761C368.1763,-471.6514 374.0832,-476.0215 379,-481.5 459.2715,-570.9424 333.8896,-660.8176 415,-749.5 419.3297,-754.2339 424.3791,-758.1337 429.8806,-761.3375"/>
<polygon fill="#191970" stroke="#191970" points="363.1523,-464.984 352.606,-463.9715 360.2191,-471.3398 363.1523,-464.984"/>
</g>
<!-- Node21 -->
<g id="node22" class="node">
<title>Node21</title>
<g id="a_node22"><a xlink:href="db/dc9/classGPUCA__NAMESPACE_1_1gpu_1_1GPUTPCGMMergerLinkGlobalTracks.html" target="_top" xlink:title="GPUCA_NAMESPACE::gpu\l::GPUTPCGMMergerLinkGlobalTracks">
<polygon fill="none" stroke="#000000" points="424,-709.5 424,-739.5 618,-739.5 618,-709.5 424,-709.5"/>
<text text-anchor="start" x="432" y="-727.5" font-family="Helvetica,sans-Serif" font-size="10.00" fill="#000000">GPUCA_NAMESPACE::gpu</text>
<text text-anchor="middle" x="521" y="-716.5" font-family="Helvetica,sans-Serif" font-size="10.00" fill="#000000">::GPUTPCGMMergerLinkGlobalTracks</text>
</a>
</g>
</g>
<!-- Node16&#45;&gt;Node21 -->
<g id="edge21" class="edge">
<title>Node16&#45;&gt;Node21</title>
<path fill="none" stroke="#191970" d="M362.1492,-468.6537C368.4104,-472.043 374.1581,-476.2619 379,-481.5 445.9555,-553.9344 347.3652,-628.6995 415,-700.5 418.1051,-703.7963 421.5595,-706.6855 425.2707,-709.2149"/>
<polygon fill="#191970" stroke="#191970" points="363.1992,-465.2831 352.6539,-464.2596 360.2593,-471.6358 363.1992,-465.2831"/>
</g>
<!-- Node22 -->
<g id="node23" class="node">
<title>Node22</title>
<g id="a_node23"><a xlink:href="d6/d5e/classGPUCA__NAMESPACE_1_1gpu_1_1GPUTPCGMMergerMergeBorders.html" target="_top" xlink:title="GPUCA_NAMESPACE::gpu\l::GPUTPCGMMergerMergeBorders">
<polygon fill="none" stroke="#000000" points="431.5,-660.5 431.5,-690.5 610.5,-690.5 610.5,-660.5 431.5,-660.5"/>
<text text-anchor="start" x="439.5" y="-678.5" font-family="Helvetica,sans-Serif" font-size="10.00" fill="#000000">GPUCA_NAMESPACE::gpu</text>
<text text-anchor="middle" x="521" y="-667.5" font-family="Helvetica,sans-Serif" font-size="10.00" fill="#000000">::GPUTPCGMMergerMergeBorders</text>
</a>
</g>
</g>
<!-- Node16&#45;&gt;Node22 -->
<g id="edge22" class="edge">
<title>Node16&#45;&gt;Node22</title>
<path fill="none" stroke="#191970" d="M362.0562,-468.9805C368.3093,-472.3037 374.082,-476.4179 379,-481.5 432.7073,-536.9993 360.7724,-596.509 415,-651.5 419.7695,-656.3366 425.2937,-660.2875 431.2661,-663.5062"/>
<polygon fill="#191970" stroke="#191970" points="363.1444,-465.6298 352.5943,-464.6571 360.2352,-471.9966 363.1444,-465.6298"/>
</g>
<!-- Node23 -->
<g id="node24" class="node">
<title>Node23</title>
<g id="a_node24"><a xlink:href="df/d82/classGPUCA__NAMESPACE_1_1gpu_1_1GPUTPCGMMergerMergeCE.html" target="_top" xlink:title="GPUCA_NAMESPACE::gpu\l::GPUTPCGMMergerMergeCE">
<polygon fill="none" stroke="#000000" points="443.5,-611.5 443.5,-641.5 598.5,-641.5 598.5,-611.5 443.5,-611.5"/>
<text text-anchor="start" x="451.5" y="-629.5" font-family="Helvetica,sans-Serif" font-size="10.00" fill="#000000">GPUCA_NAMESPACE::gpu</text>
<text text-anchor="middle" x="521" y="-618.5" font-family="Helvetica,sans-Serif" font-size="10.00" fill="#000000">::GPUTPCGMMergerMergeCE</text>
</a>
</g>
</g>
<!-- Node16&#45;&gt;Node23 -->
<g id="edge23" class="edge">
<title>Node16&#45;&gt;Node23</title>
<path fill="none" stroke="#191970" d="M361.9398,-469.5963C368.1637,-472.7932 373.9643,-476.7098 379,-481.5 419.344,-519.8772 374.4669,-563.3226 415,-601.5 423.0518,-609.0838 432.9589,-614.5071 443.453,-618.3612"/>
<polygon fill="#191970" stroke="#191970" points="363.1163,-466.2886 352.558,-465.4092 360.2634,-472.6809 363.1163,-466.2886"/>
</g>
<!-- Node24 -->
<g id="node25" class="node">
<title>Node24</title>
<g id="a_node25"><a xlink:href="d2/d3b/classGPUCA__NAMESPACE_1_1gpu_1_1GPUTPCGMMergerMergeSlicesPrepare.html" target="_top" xlink:title="GPUCA_NAMESPACE::gpu\l::GPUTPCGMMergerMergeSlices\lPrepare">
<polygon fill="none" stroke="#000000" points="436,-551 436,-592 606,-592 606,-551 436,-551"/>
<text text-anchor="start" x="444" y="-580" font-family="Helvetica,sans-Serif" font-size="10.00" fill="#000000">GPUCA_NAMESPACE::gpu</text>
<text text-anchor="start" x="444" y="-569" font-family="Helvetica,sans-Serif" font-size="10.00" fill="#000000">::GPUTPCGMMergerMergeSlices</text>
<text text-anchor="middle" x="521" y="-558" font-family="Helvetica,sans-Serif" font-size="10.00" fill="#000000">Prepare</text>
</a>
</g>
</g>
<!-- Node16&#45;&gt;Node24 -->
<g id="edge24" class="edge">
<title>Node16&#45;&gt;Node24</title>
<path fill="none" stroke="#191970" d="M362.1814,-471.6892C368.1394,-474.439 373.826,-477.6803 379,-481.5 404.0191,-499.9703 390.3014,-522.6032 415,-541.5 421.3797,-546.3811 428.5192,-550.468 435.9975,-553.8901"/>
<polygon fill="#191970" stroke="#191970" points="363.2096,-468.3277 352.63,-467.7602 360.5466,-474.8014 363.2096,-468.3277"/>
</g>
<!-- Node25 -->
<g id="node26" class="node">
<title>Node25</title>
<g id="a_node26"><a xlink:href="d1/d1b/classGPUCA__NAMESPACE_1_1gpu_1_1GPUTPCGMMergerMergeWithinPrepare.html" target="_top" xlink:title="GPUCA_NAMESPACE::gpu\l::GPUTPCGMMergerMergeWithin\lPrepare">
<polygon fill="none" stroke="#000000" points="434.5,-491 434.5,-532 607.5,-532 607.5,-491 434.5,-491"/>
<text text-anchor="start" x="442.5" y="-520" font-family="Helvetica,sans-Serif" font-size="10.00" fill="#000000">GPUCA_NAMESPACE::gpu</text>
<text text-anchor="start" x="442.5" y="-509" font-family="Helvetica,sans-Serif" font-size="10.00" fill="#000000">::GPUTPCGMMergerMergeWithin</text>
<text text-anchor="middle" x="521" y="-498" font-family="Helvetica,sans-Serif" font-size="10.00" fill="#000000">Prepare</text>
</a>
</g>
</g>
<!-- Node16&#45;&gt;Node25 -->
<g id="edge25" class="edge">
<title>Node16&#45;&gt;Node25</title>
<path fill="none" stroke="#191970" d="M354.0284,-473.7857C379.5595,-479.5524 408.1831,-486.0177 434.4225,-491.9445"/>
<polygon fill="#191970" stroke="#191970" points="354.5629,-470.3183 344.0374,-471.529 353.0206,-477.1463 354.5629,-470.3183"/>
</g>
<!-- Node26 -->
<g id="node27" class="node">
<title>Node26</title>
<g id="a_node27"><a xlink:href="df/dfa/classGPUCA__NAMESPACE_1_1gpu_1_1GPUTPCGMMergerPrepareClusters.html" target="_top" xlink:title="GPUCA_NAMESPACE::gpu\l::GPUTPCGMMergerPrepareClusters">
<polygon fill="none" stroke="#000000" points="426.5,-441.5 426.5,-471.5 615.5,-471.5 615.5,-441.5 426.5,-441.5"/>
<text text-anchor="start" x="434.5" y="-459.5" font-family="Helvetica,sans-Serif" font-size="10.00" fill="#000000">GPUCA_NAMESPACE::gpu</text>
<text text-anchor="middle" x="521" y="-448.5" font-family="Helvetica,sans-Serif" font-size="10.00" fill="#000000">::GPUTPCGMMergerPrepareClusters</text>
</a>
</g>
</g>
<!-- Node16&#45;&gt;Node26 -->
<g id="edge26" class="edge">
<title>Node16&#45;&gt;Node26</title>
<path fill="none" stroke="#191970" d="M362.8197,-456.5C383.3746,-456.5 405.4554,-456.5 426.4059,-456.5"/>
<polygon fill="#191970" stroke="#191970" points="362.5449,-453.0001 352.5449,-456.5 362.5449,-460.0001 362.5449,-453.0001"/>
</g>
<!-- Node27 -->
<g id="node28" class="node">
<title>Node27</title>
<g id="a_node28"><a xlink:href="de/d91/classGPUCA__NAMESPACE_1_1gpu_1_1GPUTPCGMMergerResolve.html" target="_top" xlink:title="GPUCA_NAMESPACE::gpu\l::GPUTPCGMMergerResolve">
<polygon fill="none" stroke="#000000" points="446,-392.5 446,-422.5 596,-422.5 596,-392.5 446,-392.5"/>
<text text-anchor="start" x="454" y="-410.5" font-family="Helvetica,sans-Serif" font-size="10.00" fill="#000000">GPUCA_NAMESPACE::gpu</text>
<text text-anchor="middle" x="521" y="-399.5" font-family="Helvetica,sans-Serif" font-size="10.00" fill="#000000">::GPUTPCGMMergerResolve</text>
</a>
</g>
</g>
<!-- Node16&#45;&gt;Node27 -->
<g id="edge27" class="edge">
<title>Node16&#45;&gt;Node27</title>
<path fill="none" stroke="#191970" d="M362.1784,-439.46C389.6004,-433.9418 419.7959,-427.8655 446.4284,-422.5062"/>
<polygon fill="#191970" stroke="#191970" points="361.3258,-436.0613 352.2128,-441.4654 362.7068,-442.9237 361.3258,-436.0613"/>
</g>
<!-- Node28 -->
<g id="node29" class="node">
<title>Node28</title>
<g id="a_node29"><a xlink:href="d6/d6a/classGPUCA__NAMESPACE_1_1gpu_1_1GPUTPCGMMergerSliceRefit.html" target="_top" xlink:title="GPUCA_NAMESPACE::gpu\l::GPUTPCGMMergerSliceRefit">
<polygon fill="none" stroke="#000000" points="442.5,-343.5 442.5,-373.5 599.5,-373.5 599.5,-343.5 442.5,-343.5"/>
<text text-anchor="start" x="450.5" y="-361.5" font-family="Helvetica,sans-Serif" font-size="10.00" fill="#000000">GPUCA_NAMESPACE::gpu</text>
<text text-anchor="middle" x="521" y="-350.5" font-family="Helvetica,sans-Serif" font-size="10.00" fill="#000000">::GPUTPCGMMergerSliceRefit</text>
</a>
</g>
</g>
<!-- Node16&#45;&gt;Node28 -->
<g id="edge28" class="edge">
<title>Node16&#45;&gt;Node28</title>
<path fill="none" stroke="#191970" d="M362.1232,-441.4957C368.0498,-438.9506 373.7482,-435.976 379,-432.5 401.5347,-417.5849 392.461,-398.4086 415,-383.5 423.2792,-378.0236 432.6207,-373.742 442.2406,-370.3954"/>
<polygon fill="#191970" stroke="#191970" points="360.7215,-438.285 352.6534,-445.1521 363.2429,-444.8151 360.7215,-438.285"/>
</g>
<!-- Node29 -->
<g id="node30" class="node">
<title>Node29</title>
<g id="a_node30"><a xlink:href="d2/d55/classGPUCA__NAMESPACE_1_1gpu_1_1GPUTPCGMMergerSortTracks.html" target="_top" xlink:title="GPUCA_NAMESPACE::gpu\l::GPUTPCGMMergerSortTracks">
<polygon fill="none" stroke="#000000" points="440,-294.5 440,-324.5 602,-324.5 602,-294.5 440,-294.5"/>
<text text-anchor="start" x="448" y="-312.5" font-family="Helvetica,sans-Serif" font-size="10.00" fill="#000000">GPUCA_NAMESPACE::gpu</text>
<text text-anchor="middle" x="521" y="-301.5" font-family="Helvetica,sans-Serif" font-size="10.00" fill="#000000">::GPUTPCGMMergerSortTracks</text>
</a>
</g>
</g>
<!-- Node16&#45;&gt;Node29 -->
<g id="edge29" class="edge">
<title>Node16&#45;&gt;Node29</title>
<path fill="none" stroke="#191970" d="M361.9396,-443.7705C368.1112,-440.7303 373.9027,-437.0203 379,-432.5 413.7169,-401.7133 380.2743,-365.2768 415,-334.5 422.2165,-328.1041 430.7647,-323.2644 439.8274,-319.6146"/>
<polygon fill="#191970" stroke="#191970" points="360.465,-440.5947 352.6624,-447.762 363.2315,-447.0248 360.465,-440.5947"/>
</g>
<!-- Node30 -->
<g id="node31" class="node">
<title>Node30</title>
<g id="a_node31"><a xlink:href="d7/d86/classGPUCA__NAMESPACE_1_1gpu_1_1GPUTPCGMMergerSortTracksPrepare.html" target="_top" xlink:title="GPUCA_NAMESPACE::gpu\l::GPUTPCGMMergerSortTracksPrepare">
<polygon fill="none" stroke="#000000" points="421,-245.5 421,-275.5 621,-275.5 621,-245.5 421,-245.5"/>
<text text-anchor="start" x="429" y="-263.5" font-family="Helvetica,sans-Serif" font-size="10.00" fill="#000000">GPUCA_NAMESPACE::gpu</text>
<text text-anchor="middle" x="521" y="-252.5" font-family="Helvetica,sans-Serif" font-size="10.00" fill="#000000">::GPUTPCGMMergerSortTracksPrepare</text>
</a>
</g>
</g>
<!-- Node16&#45;&gt;Node30 -->
<g id="edge30" class="edge">
<title>Node16&#45;&gt;Node30</title>
<path fill="none" stroke="#191970" d="M362.0219,-444.6306C368.255,-441.413 374.0338,-437.4267 379,-432.5 426.7523,-385.1274 367.2342,-332.8589 415,-285.5 418.8938,-281.6394 423.2656,-278.3326 427.9573,-275.5038"/>
<polygon fill="#191970" stroke="#191970" points="360.3234,-441.5552 352.6063,-448.8146 363.166,-447.9521 360.3234,-441.5552"/>
</g>
<!-- Node31 -->
<g id="node32" class="node">
<title>Node31</title>
<g id="a_node32"><a xlink:href="d4/dd7/classGPUCA__NAMESPACE_1_1gpu_1_1GPUTPCGMMergerSortTracksQPt.html" target="_top" xlink:title="GPUCA_NAMESPACE::gpu\l::GPUTPCGMMergerSortTracksQPt">
<polygon fill="none" stroke="#000000" points="431.5,-196.5 431.5,-226.5 610.5,-226.5 610.5,-196.5 431.5,-196.5"/>
<text text-anchor="start" x="439.5" y="-214.5" font-family="Helvetica,sans-Serif" font-size="10.00" fill="#000000">GPUCA_NAMESPACE::gpu</text>
<text text-anchor="middle" x="521" y="-203.5" font-family="Helvetica,sans-Serif" font-size="10.00" fill="#000000">::GPUTPCGMMergerSortTracksQPt</text>
</a>
</g>
</g>
<!-- Node16&#45;&gt;Node31 -->
<g id="edge31" class="edge">
<title>Node16&#45;&gt;Node31</title>
<path fill="none" stroke="#191970" d="M362.1773,-445.0258C368.4046,-441.7272 374.1381,-437.614 379,-432.5 440.0248,-368.3103 353.9568,-300.6722 415,-236.5 419.6914,-231.5682 425.1595,-227.529 431.0931,-224.229"/>
<polygon fill="#191970" stroke="#191970" points="360.4101,-441.9838 352.7444,-449.2974 363.2977,-448.3605 360.4101,-441.9838"/>
</g>
<!-- Node32 -->
<g id="node33" class="node">
<title>Node32</title>
<g id="a_node33"><a xlink:href="db/d09/classGPUCA__NAMESPACE_1_1gpu_1_1GPUTPCGMMergerTrackFit.html" target="_top" xlink:title="GPUCA_NAMESPACE::gpu\l::GPUTPCGMMergerTrackFit">
<polygon fill="none" stroke="#000000" points="446.5,-147.5 446.5,-177.5 595.5,-177.5 595.5,-147.5 446.5,-147.5"/>
<text text-anchor="start" x="454.5" y="-165.5" font-family="Helvetica,sans-Serif" font-size="10.00" fill="#000000">GPUCA_NAMESPACE::gpu</text>
<text text-anchor="middle" x="521" y="-154.5" font-family="Helvetica,sans-Serif" font-size="10.00" fill="#000000">::GPUTPCGMMergerTrackFit</text>
</a>
</g>
</g>
<!-- Node16&#45;&gt;Node32 -->
<g id="edge32" class="edge">
<title>Node16&#45;&gt;Node32</title>
<path fill="none" stroke="#191970" d="M362.216,-445.2975C368.4631,-441.945 374.1892,-437.7449 379,-432.5 453.3936,-351.3928 340.5832,-268.5859 415,-187.5 423.4378,-178.306 434.5704,-172.1909 446.4475,-168.1784"/>
<polygon fill="#191970" stroke="#191970" points="360.3794,-442.2885 352.7365,-449.6258 363.2869,-448.6561 360.3794,-442.2885"/>
</g>
<!-- Node33 -->
<g id="node34" class="node">
<title>Node33</title>
<g id="a_node34"><a xlink:href="d4/dab/classGPUCA__NAMESPACE_1_1gpu_1_1GPUTPCGMMergerUnpackGlobal.html" target="_top" xlink:title="GPUCA_NAMESPACE::gpu\l::GPUTPCGMMergerUnpackGlobal">
<polygon fill="none" stroke="#000000" points="431,-98.5 431,-128.5 611,-128.5 611,-98.5 431,-98.5"/>
<text text-anchor="start" x="439" y="-116.5" font-family="Helvetica,sans-Serif" font-size="10.00" fill="#000000">GPUCA_NAMESPACE::gpu</text>
<text text-anchor="middle" x="521" y="-105.5" font-family="Helvetica,sans-Serif" font-size="10.00" fill="#000000">::GPUTPCGMMergerUnpackGlobal</text>
</a>
</g>
</g>
<!-- Node16&#45;&gt;Node33 -->
<g id="edge33" class="edge">
<title>Node16&#45;&gt;Node33</title>
<path fill="none" stroke="#191970" d="M362.1928,-445.5075C368.4732,-442.1147 374.2121,-437.8477 379,-432.5 466.8105,-334.4231 327.1614,-236.5518 415,-138.5 419.5418,-133.4301 424.9024,-129.2917 430.7618,-125.9231"/>
<polygon fill="#191970" stroke="#191970" points="360.2861,-442.5311 352.6513,-449.8769 363.2006,-448.8955 360.2861,-442.5311"/>
</g>
<!-- Node34 -->
<g id="node35" class="node">
<title>Node34</title>
<g id="a_node35"><a xlink:href="db/d92/classGPUCA__NAMESPACE_1_1gpu_1_1GPUTPCGMMergerUnpackResetIds.html" target="_top" xlink:title="GPUCA_NAMESPACE::gpu\l::GPUTPCGMMergerUnpackResetIds">
<polygon fill="none" stroke="#000000" points="426,-49.5 426,-79.5 616,-79.5 616,-49.5 426,-49.5"/>
<text text-anchor="start" x="434" y="-67.5" font-family="Helvetica,sans-Serif" font-size="10.00" fill="#000000">GPUCA_NAMESPACE::gpu</text>
<text text-anchor="middle" x="521" y="-56.5" font-family="Helvetica,sans-Serif" font-size="10.00" fill="#000000">::GPUTPCGMMergerUnpackResetIds</text>
</a>
</g>
</g>
<!-- Node16&#45;&gt;Node34 -->
<g id="edge34" class="edge">
<title>Node16&#45;&gt;Node34</title>
<path fill="none" stroke="#191970" d="M361.6909,-445.9197C368.1862,-442.4574 374.107,-438.0609 379,-432.5 480.2548,-317.4228 313.7123,-204.5483 415,-89.5 418.3734,-85.6683 422.2143,-82.3668 426.3867,-79.5262"/>
<polygon fill="#191970" stroke="#191970" points="360.1786,-442.7624 352.5201,-450.0836 363.0725,-449.1362 360.1786,-442.7624"/>
</g>
<!-- Node35 -->
<g id="node36" class="node">
<title>Node35</title>
<g id="a_node36"><a xlink:href="d0/d00/classGPUCA__NAMESPACE_1_1gpu_1_1GPUTPCGMMergerUnpackSaveNumber.html" target="_top" xlink:title="GPUCA_NAMESPACE::gpu\l::GPUTPCGMMergerUnpackSaveNumber">
<polygon fill="none" stroke="#000000" points="415,-.5 415,-30.5 627,-30.5 627,-.5 415,-.5"/>
<text text-anchor="start" x="423" y="-18.5" font-family="Helvetica,sans-Serif" font-size="10.00" fill="#000000">GPUCA_NAMESPACE::gpu</text>
<text text-anchor="middle" x="521" y="-7.5" font-family="Helvetica,sans-Serif" font-size="10.00" fill="#000000">::GPUTPCGMMergerUnpackSaveNumber</text>
</a>
</g>
</g>
<!-- Node16&#45;&gt;Node35 -->
<g id="edge35" class="edge">
<title>Node16&#45;&gt;Node35</title>
<path fill="none" stroke="#191970" d="M361.769,-445.988C368.2482,-442.5116 374.1439,-438.0931 379,-432.5 436.4955,-366.2778 357.1897,-105.4475 415,-39.5 417.9851,-36.0947 421.3422,-33.117 424.9752,-30.5165"/>
<polygon fill="#191970" stroke="#191970" points="360.2587,-442.83 352.6149,-450.1665 363.1654,-449.1979 360.2587,-442.83"/>
</g>
</g>
</svg>
