<?xml version="1.0" encoding="UTF-8" standalone="no"?>
<!DOCTYPE svg PUBLIC "-//W3C//DTD SVG 1.1//EN"
 "http://www.w3.org/Graphics/SVG/1.1/DTD/svg11.dtd">
<!-- Generated by graphviz version 2.40.1 (20161225.0304)
 -->
<!-- Title: Graphical Class Hierarchy Pages: 1 -->
<svg width="698pt" height="1088pt"
 viewBox="0.00 0.00 698.00 1087.50" xmlns="http://www.w3.org/2000/svg" xmlns:xlink="http://www.w3.org/1999/xlink">
<g id="graph0" class="graph" transform="scale(1 1) rotate(0) translate(4 1083.5)">
<title>Graphical Class Hierarchy</title>
<!-- Node1548 -->
<g id="node1" class="node">
<title>Node1548</title>
<polygon fill="none" stroke="#bfbfbf" points="0,-459 0,-478 68,-478 68,-459 0,-459"/>
<text text-anchor="middle" x="34" y="-466" font-family="Helvetica,sans-Serif" font-size="10.00" fill="#000000">false_type</text>
</g>
<!-- Node0 -->
<g id="node2" class="node">
<title>Node0</title>
<g id="a_node2"><a xlink:href="d3/de1/structo2_1_1framework_1_1has__root__dictionary.html" target="_top" xlink:title="o2::framework::has\l_root_dictionary\&lt; T\l::value_type \&gt;">
<polygon fill="none" stroke="#000000" points="146.5,-1009 146.5,-1050 259.5,-1050 259.5,-1009 146.5,-1009"/>
<text text-anchor="start" x="154.5" y="-1038" font-family="Helvetica,sans-Serif" font-size="10.00" fill="#000000">o2::framework::has</text>
<text text-anchor="start" x="154.5" y="-1027" font-family="Helvetica,sans-Serif" font-size="10.00" fill="#000000">_root_dictionary&lt; T</text>
<text text-anchor="middle" x="203" y="-1016" font-family="Helvetica,sans-Serif" font-size="10.00" fill="#000000">::value_type &gt;</text>
</a>
</g>
</g>
<!-- Node1548&#45;&gt;Node0 -->
<g id="edge1" class="edge">
<title>Node1548&#45;&gt;Node0</title>
<path fill="none" stroke="#191970" d="M34.6574,-488.5512C37.683,-570.9683 52.4079,-883.1183 104,-964.5 116.1648,-983.6888 136.273,-998.4227 155.2008,-1008.9723"/>
<polygon fill="#191970" stroke="#191970" points="38.1399,-487.9847 34.2929,-478.113 31.1441,-488.2291 38.1399,-487.9847"/>
</g>
<!-- Node1551 -->
<g id="node4" class="node">
<title>Node1551</title>
<g id="a_node4"><a xlink:href="d5/dbf/structo2_1_1framework_1_1is__boost__serializable__base.html" target="_top" xlink:title="o2::framework::is_boost\l_serializable_base\&lt; Type,\l Archive \&gt;">
<polygon fill="none" stroke="#000000" points="131.5,-914 131.5,-955 274.5,-955 274.5,-914 131.5,-914"/>
<text text-anchor="start" x="139.5" y="-943" font-family="Helvetica,sans-Serif" font-size="10.00" fill="#000000">o2::framework::is_boost</text>
<text text-anchor="start" x="139.5" y="-932" font-family="Helvetica,sans-Serif" font-size="10.00" fill="#000000">_serializable_base&lt; Type,</text>
<text text-anchor="middle" x="203" y="-921" font-family="Helvetica,sans-Serif" font-size="10.00" fill="#000000"> Archive &gt;</text>
</a>
</g>
</g>
<!-- Node1548&#45;&gt;Node1551 -->
<g id="edge3" class="edge">
<title>Node1548&#45;&gt;Node1551</title>
<path fill="none" stroke="#191970" d="M34.5055,-488.4044C36.8468,-565.0474 49.0041,-839.9602 104,-903.5 111.3078,-911.9431 120.8827,-918.1149 131.198,-922.6203"/>
<polygon fill="#191970" stroke="#191970" points="37.999,-488.1212 34.2181,-478.224 31.0018,-488.3188 37.999,-488.1212"/>
</g>
<!-- Node1555 -->
<g id="node8" class="node">
<title>Node1555</title>
<g id="a_node8"><a xlink:href="d5/dbf/structo2_1_1framework_1_1is__boost__serializable__base.html" target="_top" xlink:title="o2::framework::is_boost\l_serializable_base\&lt; Type,\l boost::archive::binary\l_oarchive \&gt;">
<polygon fill="none" stroke="#000000" points="131.5,-842.5 131.5,-894.5 274.5,-894.5 274.5,-842.5 131.5,-842.5"/>
<text text-anchor="start" x="139.5" y="-882.5" font-family="Helvetica,sans-Serif" font-size="10.00" fill="#000000">o2::framework::is_boost</text>
<text text-anchor="start" x="139.5" y="-871.5" font-family="Helvetica,sans-Serif" font-size="10.00" fill="#000000">_serializable_base&lt; Type,</text>
<text text-anchor="start" x="139.5" y="-860.5" font-family="Helvetica,sans-Serif" font-size="10.00" fill="#000000"> boost::archive::binary</text>
<text text-anchor="middle" x="203" y="-849.5" font-family="Helvetica,sans-Serif" font-size="10.00" fill="#000000">_oarchive &gt;</text>
</a>
</g>
</g>
<!-- Node1548&#45;&gt;Node1555 -->
<g id="edge7" class="edge">
<title>Node1548&#45;&gt;Node1555</title>
<path fill="none" stroke="#191970" d="M35.29,-488.5058C40.0741,-556.828 58.9072,-779.612 104,-832.5 111.3567,-841.1285 120.9568,-847.6891 131.2822,-852.6774"/>
<polygon fill="#191970" stroke="#191970" points="38.7641,-488.0033 34.5984,-478.2619 31.78,-488.4749 38.7641,-488.0033"/>
</g>
<!-- Node1558 -->
<g id="node11" class="node">
<title>Node1558</title>
<g id="a_node11"><a xlink:href="d4/df6/structnlohmann_1_1detail_1_1is__basic__json.html" target="_top" xlink:title="nlohmann::detail::is\l_basic_json\&lt; typename \&gt;">
<polygon fill="none" stroke="#000000" points="130.5,-793.5 130.5,-823.5 275.5,-823.5 275.5,-793.5 130.5,-793.5"/>
<text text-anchor="start" x="138.5" y="-811.5" font-family="Helvetica,sans-Serif" font-size="10.00" fill="#000000">nlohmann::detail::is</text>
<text text-anchor="middle" x="203" y="-800.5" font-family="Helvetica,sans-Serif" font-size="10.00" fill="#000000">_basic_json&lt; typename &gt;</text>
</a>
</g>
</g>
<!-- Node1548&#45;&gt;Node1558 -->
<g id="edge10" class="edge">
<title>Node1548&#45;&gt;Node1558</title>
<path fill="none" stroke="#191970" d="M35.7234,-488.3538C41.5281,-550.6516 62.3767,-740.6653 104,-783.5 111.2888,-791.0009 120.4763,-796.3723 130.3003,-800.1972"/>
<polygon fill="#191970" stroke="#191970" points="39.1983,-487.9167 34.813,-478.272 32.2266,-488.5463 39.1983,-487.9167"/>
</g>
<!-- Node1559 -->
<g id="node12" class="node">
<title>Node1559</title>
<g id="a_node12"><a xlink:href="dd/d13/structnlohmann_1_1detail_1_1is__compatible__integer__type__impl.html" target="_top" xlink:title="nlohmann::detail::is\l_compatible_integer_type\l_impl\&lt; bool, typename, typename \&gt;">
<polygon fill="none" stroke="#000000" points="104,-733 104,-774 302,-774 302,-733 104,-733"/>
<text text-anchor="start" x="112" y="-762" font-family="Helvetica,sans-Serif" font-size="10.00" fill="#000000">nlohmann::detail::is</text>
<text text-anchor="start" x="112" y="-751" font-family="Helvetica,sans-Serif" font-size="10.00" fill="#000000">_compatible_integer_type</text>
<text text-anchor="middle" x="203" y="-740" font-family="Helvetica,sans-Serif" font-size="10.00" fill="#000000">_impl&lt; bool, typename, typename &gt;</text>
</a>
</g>
</g>
<!-- Node1548&#45;&gt;Node1559 -->
<g id="edge11" class="edge">
<title>Node1548&#45;&gt;Node1559</title>
<path fill="none" stroke="#191970" d="M36.9508,-488.1841C45.3477,-541.7209 70.9179,-688.2549 104,-722.5 107.754,-726.386 111.9878,-729.7869 116.5372,-732.7632"/>
<polygon fill="#191970" stroke="#191970" points="40.4019,-487.5975 35.4232,-478.2453 33.4831,-488.661 40.4019,-487.5975"/>
</g>
<!-- Node1560 -->
<g id="node13" class="node">
<title>Node1560</title>
<g id="a_node13"><a xlink:href="dc/da5/structnlohmann_1_1detail_1_1is__compatible__object__type__impl.html" target="_top" xlink:title="nlohmann::detail::is\l_compatible_object_type\l_impl\&lt; B, RealType, Compatible\lObjectType \&gt;">
<polygon fill="none" stroke="#000000" points="116.5,-661.5 116.5,-713.5 289.5,-713.5 289.5,-661.5 116.5,-661.5"/>
<text text-anchor="start" x="124.5" y="-701.5" font-family="Helvetica,sans-Serif" font-size="10.00" fill="#000000">nlohmann::detail::is</text>
<text text-anchor="start" x="124.5" y="-690.5" font-family="Helvetica,sans-Serif" font-size="10.00" fill="#000000">_compatible_object_type</text>
<text text-anchor="start" x="124.5" y="-679.5" font-family="Helvetica,sans-Serif" font-size="10.00" fill="#000000">_impl&lt; B, RealType, Compatible</text>
<text text-anchor="middle" x="203" y="-668.5" font-family="Helvetica,sans-Serif" font-size="10.00" fill="#000000">ObjectType &gt;</text>
</a>
</g>
</g>
<!-- Node1548&#45;&gt;Node1560 -->
<g id="edge12" class="edge">
<title>Node1548&#45;&gt;Node1560</title>
<path fill="none" stroke="#191970" d="M36.197,-488.4343C41.3228,-525.5597 57.4072,-605.673 104,-651.5 107.7812,-655.2191 111.9762,-658.5575 116.4426,-661.5539"/>
<polygon fill="#191970" stroke="#191970" points="39.6532,-487.8652 34.9364,-478.3782 32.7075,-488.736 39.6532,-487.8652"/>
</g>
<!-- Node1561 -->
<g id="node14" class="node">
<title>Node1561</title>
<g id="a_node14"><a xlink:href="d2/db3/structnlohmann_1_1detail_1_1is__complete__type.html" target="_top" xlink:title="nlohmann::detail::is\l_complete_type\&lt; T, typename \&gt;">
<polygon fill="none" stroke="#000000" points="113.5,-612.5 113.5,-642.5 292.5,-642.5 292.5,-612.5 113.5,-612.5"/>
<text text-anchor="start" x="121.5" y="-630.5" font-family="Helvetica,sans-Serif" font-size="10.00" fill="#000000">nlohmann::detail::is</text>
<text text-anchor="middle" x="203" y="-619.5" font-family="Helvetica,sans-Serif" font-size="10.00" fill="#000000">_complete_type&lt; T, typename &gt;</text>
</a>
</g>
</g>
<!-- Node1548&#45;&gt;Node1561 -->
<g id="edge13" class="edge">
<title>Node1548&#45;&gt;Node1561</title>
<path fill="none" stroke="#191970" d="M38.6786,-487.8748C46.8029,-517.2543 66.3725,-572.7887 104,-602.5 108.8694,-606.345 114.2579,-609.6059 119.9325,-612.3706"/>
<polygon fill="#191970" stroke="#191970" points="42.0159,-486.8009 36.1115,-478.0038 35.2412,-488.5628 42.0159,-486.8009"/>
</g>
<!-- Node1562 -->
<g id="node15" class="node">
<title>Node1562</title>
<g id="a_node15"><a xlink:href="da/d82/structo2_1_1framework_1_1always__static__assert.html" target="_top" xlink:title="o2::framework::always\l_static_assert\&lt; T \&gt;">
<polygon fill="none" stroke="#000000" points="139,-563.5 139,-593.5 267,-593.5 267,-563.5 139,-563.5"/>
<text text-anchor="start" x="147" y="-581.5" font-family="Helvetica,sans-Serif" font-size="10.00" fill="#000000">o2::framework::always</text>
<text text-anchor="middle" x="203" y="-570.5" font-family="Helvetica,sans-Serif" font-size="10.00" fill="#000000">_static_assert&lt; T &gt;</text>
</a>
</g>
</g>
<!-- Node1548&#45;&gt;Node1562 -->
<g id="edge14" class="edge">
<title>Node1548&#45;&gt;Node1562</title>
<path fill="none" stroke="#191970" d="M44.3075,-486.954C56.1704,-506.4662 77.4738,-536.6984 104,-553.5 114.483,-560.1399 126.6352,-565.0178 138.7599,-568.6008"/>
<polygon fill="#191970" stroke="#191970" points="47.1961,-484.9605 39.1235,-478.0987 41.1551,-488.497 47.1961,-484.9605"/>
</g>
<!-- Node1563 -->
<g id="node16" class="node">
<title>Node1563</title>
<g id="a_node16"><a xlink:href="d7/df3/structo2_1_1framework_1_1has__messageable__value__type.html" target="_top" xlink:title="o2::framework::has\l_messageable_value_type\l\&lt; T, _ \&gt;">
<polygon fill="none" stroke="#000000" points="130,-503 130,-544 276,-544 276,-503 130,-503"/>
<text text-anchor="start" x="138" y="-532" font-family="Helvetica,sans-Serif" font-size="10.00" fill="#000000">o2::framework::has</text>
<text text-anchor="start" x="138" y="-521" font-family="Helvetica,sans-Serif" font-size="10.00" fill="#000000">_messageable_value_type</text>
<text text-anchor="middle" x="203" y="-510" font-family="Helvetica,sans-Serif" font-size="10.00" fill="#000000">&lt; T, _ &gt;</text>
</a>
</g>
</g>
<!-- Node1548&#45;&gt;Node1563 -->
<g id="edge15" class="edge">
<title>Node1548&#45;&gt;Node1563</title>
<path fill="none" stroke="#191970" d="M70.6984,-481.2894C81.4139,-484.9676 93.1581,-488.9446 104,-492.5 114.5249,-495.9514 125.7065,-499.5337 136.6218,-502.9846"/>
<polygon fill="#191970" stroke="#191970" points="71.7969,-477.966 61.2021,-478.0161 69.5157,-484.5839 71.7969,-477.966"/>
</g>
<!-- Node1564 -->
<g id="node17" class="node">
<title>Node1564</title>
<g id="a_node17"><a xlink:href="d3/de1/structo2_1_1framework_1_1has__root__dictionary.html" target="_top" xlink:title="o2::framework::has\l_root_dictionary\&lt; T, _ \&gt;">
<polygon fill="none" stroke="#000000" points="135.5,-453.5 135.5,-483.5 270.5,-483.5 270.5,-453.5 135.5,-453.5"/>
<text text-anchor="start" x="143.5" y="-471.5" font-family="Helvetica,sans-Serif" font-size="10.00" fill="#000000">o2::framework::has</text>
<text text-anchor="middle" x="203" y="-460.5" font-family="Helvetica,sans-Serif" font-size="10.00" fill="#000000">_root_dictionary&lt; T, _ &gt;</text>
</a>
</g>
</g>
<!-- Node1548&#45;&gt;Node1564 -->
<g id="edge16" class="edge">
<title>Node1548&#45;&gt;Node1564</title>
<path fill="none" stroke="#191970" d="M78.5966,-468.5C95.9593,-468.5 116.2396,-468.5 135.3262,-468.5"/>
<polygon fill="#191970" stroke="#191970" points="78.1997,-465.0001 68.1997,-468.5 78.1996,-472.0001 78.1997,-465.0001"/>
</g>
<!-- Node1565 -->
<g id="node18" class="node">
<title>Node1565</title>
<g id="a_node18"><a xlink:href="d5/df9/structo2_1_1framework_1_1has__root__setowner.html" target="_top" xlink:title="o2::framework::has\l_root_setowner\&lt; T, _ \&gt;">
<polygon fill="none" stroke="#000000" points="137.5,-404.5 137.5,-434.5 268.5,-434.5 268.5,-404.5 137.5,-404.5"/>
<text text-anchor="start" x="145.5" y="-422.5" font-family="Helvetica,sans-Serif" font-size="10.00" fill="#000000">o2::framework::has</text>
<text text-anchor="middle" x="203" y="-411.5" font-family="Helvetica,sans-Serif" font-size="10.00" fill="#000000">_root_setowner&lt; T, _ &gt;</text>
</a>
</g>
</g>
<!-- Node1548&#45;&gt;Node1565 -->
<g id="edge17" class="edge">
<title>Node1548&#45;&gt;Node1565</title>
<path fill="none" stroke="#191970" d="M68.2506,-455.4558C79.5507,-451.3706 92.2376,-447.0155 104,-443.5 114.6752,-440.3094 126.0918,-437.2357 137.2384,-434.4145"/>
<polygon fill="#191970" stroke="#191970" points="66.9169,-452.217 58.7353,-458.9485 69.329,-458.7883 66.9169,-452.217"/>
</g>
<!-- Node1566 -->
<g id="node19" class="node">
<title>Node1566</title>
<g id="a_node19"><a xlink:href="d5/dbf/structo2_1_1framework_1_1is__boost__serializable__base.html" target="_top" xlink:title="o2::framework::is_boost\l_serializable_base\&lt; Type,\l Archive, typename \&gt;">
<polygon fill="none" stroke="#000000" points="131.5,-344 131.5,-385 274.5,-385 274.5,-344 131.5,-344"/>
<text text-anchor="start" x="139.5" y="-373" font-family="Helvetica,sans-Serif" font-size="10.00" fill="#000000">o2::framework::is_boost</text>
<text text-anchor="start" x="139.5" y="-362" font-family="Helvetica,sans-Serif" font-size="10.00" fill="#000000">_serializable_base&lt; Type,</text>
<text text-anchor="middle" x="203" y="-351" font-family="Helvetica,sans-Serif" font-size="10.00" fill="#000000"> Archive, typename &gt;</text>
</a>
</g>
</g>
<!-- Node1548&#45;&gt;Node1566 -->
<g id="edge18" class="edge">
<title>Node1548&#45;&gt;Node1566</title>
<path fill="none" stroke="#191970" d="M46.7287,-450.3893C59.4231,-433.6049 80.3932,-409.0939 104,-394.5 112.4017,-389.306 121.763,-384.959 131.2836,-381.3349"/>
<polygon fill="#191970" stroke="#191970" points="43.6486,-448.6712 40.5634,-458.8069 49.2959,-452.8074 43.6486,-448.6712"/>
</g>
<!-- Node1567 -->
<g id="node20" class="node">
<title>Node1567</title>
<g id="a_node20"><a xlink:href="d5/dc1/structo2_1_1framework_1_1is__bounded__array.html" target="_top" xlink:title="o2::framework::is_bounded\l_array\&lt; T \&gt;">
<polygon fill="none" stroke="#000000" points="128.5,-294.5 128.5,-324.5 277.5,-324.5 277.5,-294.5 128.5,-294.5"/>
<text text-anchor="start" x="136.5" y="-312.5" font-family="Helvetica,sans-Serif" font-size="10.00" fill="#000000">o2::framework::is_bounded</text>
<text text-anchor="middle" x="203" y="-301.5" font-family="Helvetica,sans-Serif" font-size="10.00" fill="#000000">_array&lt; T &gt;</text>
</a>
</g>
</g>
<!-- Node1548&#45;&gt;Node1567 -->
<g id="edge19" class="edge">
<title>Node1548&#45;&gt;Node1567</title>
<path fill="none" stroke="#191970" d="M38.6786,-449.1252C46.8029,-419.7457 66.3725,-364.2113 104,-334.5 111.2346,-328.7874 119.6149,-324.3641 128.3769,-320.942"/>
<polygon fill="#191970" stroke="#191970" points="35.2412,-448.4372 36.1115,-458.9962 42.0159,-450.1991 35.2412,-448.4372"/>
</g>
<!-- Node1568 -->
<g id="node21" class="node">
<title>Node1568</title>
<g id="a_node21"><a xlink:href="dc/d9b/structo2_1_1framework_1_1is__container.html" target="_top" xlink:title="o2::framework::is_container\l\&lt; T, _ \&gt;">
<polygon fill="none" stroke="#000000" points="126.5,-245.5 126.5,-275.5 279.5,-275.5 279.5,-245.5 126.5,-245.5"/>
<text text-anchor="start" x="134.5" y="-263.5" font-family="Helvetica,sans-Serif" font-size="10.00" fill="#000000">o2::framework::is_container</text>
<text text-anchor="middle" x="203" y="-252.5" font-family="Helvetica,sans-Serif" font-size="10.00" fill="#000000">&lt; T, _ &gt;</text>
</a>
</g>
</g>
<!-- Node1548&#45;&gt;Node1568 -->
<g id="edge20" class="edge">
<title>Node1548&#45;&gt;Node1568</title>
<path fill="none" stroke="#191970" d="M35.6395,-448.4983C39.8553,-410.5777 54.5114,-328.1289 104,-284.5 110.5004,-278.7693 118.1394,-274.3531 126.2429,-270.9581"/>
<polygon fill="#191970" stroke="#191970" points="32.1274,-448.4521 34.6393,-458.7449 39.0943,-449.1322 32.1274,-448.4521"/>
</g>
<!-- Node1569 -->
<g id="node22" class="node">
<title>Node1569</title>
<g id="a_node22"><a xlink:href="da/dee/structo2_1_1framework_1_1is__forced__non__messageable.html" target="_top" xlink:title="o2::framework::is_forced\l_non_messageable\&lt; T, _ \&gt;">
<polygon fill="none" stroke="#000000" points="128,-196.5 128,-226.5 278,-226.5 278,-196.5 128,-196.5"/>
<text text-anchor="start" x="136" y="-214.5" font-family="Helvetica,sans-Serif" font-size="10.00" fill="#000000">o2::framework::is_forced</text>
<text text-anchor="middle" x="203" y="-203.5" font-family="Helvetica,sans-Serif" font-size="10.00" fill="#000000">_non_messageable&lt; T, _ &gt;</text>
</a>
</g>
</g>
<!-- Node1548&#45;&gt;Node1569 -->
<g id="edge21" class="edge">
<title>Node1548&#45;&gt;Node1569</title>
<path fill="none" stroke="#191970" d="M37.3026,-449.0187C46.2379,-398.5637 72.3582,-265.4772 104,-235.5 110.8044,-229.0535 119.0347,-224.2476 127.8089,-220.6793"/>
<polygon fill="#191970" stroke="#191970" points="33.8375,-448.5169 35.5752,-458.9682 40.7343,-449.7143 33.8375,-448.5169"/>
</g>
<!-- Node1570 -->
<g id="node23" class="node">
<title>Node1570</title>
<g id="a_node23"><a xlink:href="dd/dca/structo2_1_1framework_1_1is__messageable_3_01gsl_1_1span_3_01T_01_4_01_4.html" target="_top" xlink:title="o2::framework::is_messageable\l\&lt; gsl::span\&lt; T \&gt; \&gt;">
<polygon fill="none" stroke="#000000" points="116.5,-147.5 116.5,-177.5 289.5,-177.5 289.5,-147.5 116.5,-147.5"/>
<text text-anchor="start" x="124.5" y="-165.5" font-family="Helvetica,sans-Serif" font-size="10.00" fill="#000000">o2::framework::is_messageable</text>
<text text-anchor="middle" x="203" y="-154.5" font-family="Helvetica,sans-Serif" font-size="10.00" fill="#000000">&lt; gsl::span&lt; T &gt; &gt;</text>
</a>
</g>
</g>
<!-- Node1548&#45;&gt;Node1570 -->
<g id="edge22" class="edge">
<title>Node1548&#45;&gt;Node1570</title>
<path fill="none" stroke="#191970" d="M36.2367,-448.8503C43.1942,-391.1673 66.2771,-224.0169 104,-186.5 107.6365,-182.8834 111.7195,-179.7781 116.1012,-177.1149"/>
<polygon fill="#191970" stroke="#191970" points="32.752,-448.5162 35.0607,-458.8564 39.7041,-449.3334 32.752,-448.5162"/>
</g>
<!-- Node1571 -->
<g id="node24" class="node">
<title>Node1571</title>
<g id="a_node24"><a xlink:href="d2/d79/structo2_1_1framework_1_1is__span.html" target="_top" xlink:title="o2::framework::is_span\l\&lt; T, _ \&gt;">
<polygon fill="none" stroke="#000000" points="137.5,-98.5 137.5,-128.5 268.5,-128.5 268.5,-98.5 137.5,-98.5"/>
<text text-anchor="start" x="145.5" y="-116.5" font-family="Helvetica,sans-Serif" font-size="10.00" fill="#000000">o2::framework::is_span</text>
<text text-anchor="middle" x="203" y="-105.5" font-family="Helvetica,sans-Serif" font-size="10.00" fill="#000000">&lt; T, _ &gt;</text>
</a>
</g>
</g>
<!-- Node1548&#45;&gt;Node1571 -->
<g id="edge23" class="edge">
<title>Node1548&#45;&gt;Node1571</title>
<path fill="none" stroke="#191970" d="M35.4543,-448.8903C40.6071,-384.7501 60.0929,-182.7185 104,-137.5 112.9937,-128.2377 124.9082,-122.3063 137.3465,-118.5592"/>
<polygon fill="#191970" stroke="#191970" points="31.9627,-448.6478 34.679,-458.8885 38.9417,-449.189 31.9627,-448.6478"/>
</g>
<!-- Node1572 -->
<g id="node25" class="node">
<title>Node1572</title>
<g id="a_node25"><a xlink:href="d8/d85/structo2_1_1framework_1_1is__specialization.html" target="_top" xlink:title="o2::framework::is_specialization\l\&lt; T, Ref \&gt;">
<polygon fill="none" stroke="#000000" points="115.5,-49.5 115.5,-79.5 290.5,-79.5 290.5,-49.5 115.5,-49.5"/>
<text text-anchor="start" x="123.5" y="-67.5" font-family="Helvetica,sans-Serif" font-size="10.00" fill="#000000">o2::framework::is_specialization</text>
<text text-anchor="middle" x="203" y="-56.5" font-family="Helvetica,sans-Serif" font-size="10.00" fill="#000000">&lt; T, Ref &gt;</text>
</a>
</g>
</g>
<!-- Node1548&#45;&gt;Node1572 -->
<g id="edge24" class="edge">
<title>Node1548&#45;&gt;Node1572</title>
<path fill="none" stroke="#191970" d="M34.8771,-448.7982C38.4082,-378.5156 53.8944,-141.4754 104,-88.5 107.4027,-84.9024 111.2454,-81.8046 115.3911,-79.1405"/>
<polygon fill="#191970" stroke="#191970" points="31.3745,-448.7699 34.3946,-458.9251 38.3666,-449.1031 31.3745,-448.7699"/>
</g>
<!-- Node1573 -->
<g id="node26" class="node">
<title>Node1573</title>
<g id="a_node26"><a xlink:href="d9/d11/structo2_1_1soa_1_1is__index.html" target="_top" xlink:title="o2::soa::is_index\&lt;\l T, Ref \&gt;">
<polygon fill="none" stroke="#000000" points="149.5,-.5 149.5,-30.5 256.5,-30.5 256.5,-.5 149.5,-.5"/>
<text text-anchor="start" x="157.5" y="-18.5" font-family="Helvetica,sans-Serif" font-size="10.00" fill="#000000">o2::soa::is_index&lt;</text>
<text text-anchor="middle" x="203" y="-7.5" font-family="Helvetica,sans-Serif" font-size="10.00" fill="#000000"> T, Ref &gt;</text>
</a>
</g>
</g>
<!-- Node1548&#45;&gt;Node1573 -->
<g id="edge25" class="edge">
<title>Node1548&#45;&gt;Node1573</title>
<path fill="none" stroke="#191970" d="M34.4239,-448.7585C36.4628,-372.759 47.6494,-100.3102 104,-39.5 115.6601,-26.9171 132.6974,-20.424 149.3631,-17.2123"/>
<polygon fill="#191970" stroke="#191970" points="30.9226,-448.7719 34.1774,-458.8544 37.9206,-448.9429 30.9226,-448.7719"/>
</g>
<!-- Node1 -->
<g id="node3" class="node">
<title>Node1</title>
<g id="a_node3"><a xlink:href="d5/d6d/classo2_1_1framework_1_1has__root__dictionary_3_01T_00_01typename_01std_1_1enable__if_3_01is__co3a14f09bcf42c805e484bfdd1c1dadfb.html" target="_top" xlink:title="o2::framework::has\l_root_dictionary\&lt; T,\l typename std::enable\l_if\&lt; is_container\&lt; T \&gt;\l::value \&gt;::type \&gt;">
<polygon fill="none" stroke="#000000" points="353,-1016 353,-1079 481,-1079 481,-1016 353,-1016"/>
<text text-anchor="start" x="361" y="-1067" font-family="Helvetica,sans-Serif" font-size="10.00" fill="#000000">o2::framework::has</text>
<text text-anchor="start" x="361" y="-1056" font-family="Helvetica,sans-Serif" font-size="10.00" fill="#000000">_root_dictionary&lt; T,</text>
<text text-anchor="start" x="361" y="-1045" font-family="Helvetica,sans-Serif" font-size="10.00" fill="#000000"> typename std::enable</text>
<text text-anchor="start" x="361" y="-1034" font-family="Helvetica,sans-Serif" font-size="10.00" fill="#000000">_if&lt; is_container&lt; T &gt;</text>
<text text-anchor="middle" x="417" y="-1023" font-family="Helvetica,sans-Serif" font-size="10.00" fill="#000000">::value &gt;::type &gt;</text>
</a>
</g>
</g>
<!-- Node0&#45;&gt;Node1 -->
<g id="edge2" class="edge">
<title>Node0&#45;&gt;Node1</title>
<path fill="none" stroke="#191970" d="M269.495,-1035.093C296.1034,-1037.3311 326.6323,-1039.899 352.9877,-1042.1158"/>
<polygon fill="#191970" stroke="#191970" points="269.7641,-1031.6034 259.5059,-1034.2528 269.1773,-1038.5788 269.7641,-1031.6034"/>
</g>
<!-- Node1552 -->
<g id="node5" class="node">
<title>Node1552</title>
<g id="a_node5"><a xlink:href="d2/d70/structo2_1_1framework_1_1is__boost__serializable.html" target="_top" xlink:title="o2::framework::is_boost\l_serializable\&lt; Type::value\l_type, Archive \&gt;">
<polygon fill="none" stroke="#000000" points="344.5,-956 344.5,-997 489.5,-997 489.5,-956 344.5,-956"/>
<text text-anchor="start" x="352.5" y="-985" font-family="Helvetica,sans-Serif" font-size="10.00" fill="#000000">o2::framework::is_boost</text>
<text text-anchor="start" x="352.5" y="-974" font-family="Helvetica,sans-Serif" font-size="10.00" fill="#000000">_serializable&lt; Type::value</text>
<text text-anchor="middle" x="417" y="-963" font-family="Helvetica,sans-Serif" font-size="10.00" fill="#000000">_type, Archive &gt;</text>
</a>
</g>
</g>
<!-- Node1551&#45;&gt;Node1552 -->
<g id="edge4" class="edge">
<title>Node1551&#45;&gt;Node1552</title>
<path fill="none" stroke="#191970" d="M284.4365,-950.4829C304.1653,-954.3549 325.1257,-958.4686 344.4158,-962.2545"/>
<polygon fill="#191970" stroke="#191970" points="285.0433,-947.0353 274.5564,-948.5438 283.6951,-953.9042 285.0433,-947.0353"/>
</g>
<!-- Node1554 -->
<g id="node7" class="node">
<title>Node1554</title>
<g id="a_node7"><a xlink:href="d2/d70/structo2_1_1framework_1_1is__boost__serializable.html" target="_top" xlink:title="o2::framework::is_boost\l_serializable\&lt; Type, Archive,\l typename \&gt;">
<polygon fill="none" stroke="#000000" points="338,-896 338,-937 496,-937 496,-896 338,-896"/>
<text text-anchor="start" x="346" y="-925" font-family="Helvetica,sans-Serif" font-size="10.00" fill="#000000">o2::framework::is_boost</text>
<text text-anchor="start" x="346" y="-914" font-family="Helvetica,sans-Serif" font-size="10.00" fill="#000000">_serializable&lt; Type, Archive,</text>
<text text-anchor="middle" x="417" y="-903" font-family="Helvetica,sans-Serif" font-size="10.00" fill="#000000"> typename &gt;</text>
</a>
</g>
</g>
<!-- Node1551&#45;&gt;Node1554 -->
<g id="edge6" class="edge">
<title>Node1551&#45;&gt;Node1554</title>
<path fill="none" stroke="#191970" d="M284.6834,-927.6294C302.0951,-926.1649 320.4556,-924.6206 337.7734,-923.1639"/>
<polygon fill="#191970" stroke="#191970" points="284.2278,-924.1553 274.5564,-928.4812 284.8146,-931.1307 284.2278,-924.1553"/>
</g>
<!-- Node1553 -->
<g id="node6" class="node">
<title>Node1553</title>
<g id="a_node6"><a xlink:href="d8/ddd/structo2_1_1framework_1_1is__boost__serializable_3_01Type_00_01Archive_00_01std_1_1void__t_3_01t52f9ef0f32611a33ca82db27a4fb33ed.html" target="_top" xlink:title="o2::framework::is_boost\l_serializable\&lt; Type, Archive,\l std::void_t\&lt; typename Type\l::value_type \&gt; \&gt;">
<polygon fill="none" stroke="#000000" points="532,-950.5 532,-1002.5 690,-1002.5 690,-950.5 532,-950.5"/>
<text text-anchor="start" x="540" y="-990.5" font-family="Helvetica,sans-Serif" font-size="10.00" fill="#000000">o2::framework::is_boost</text>
<text text-anchor="start" x="540" y="-979.5" font-family="Helvetica,sans-Serif" font-size="10.00" fill="#000000">_serializable&lt; Type, Archive,</text>
<text text-anchor="start" x="540" y="-968.5" font-family="Helvetica,sans-Serif" font-size="10.00" fill="#000000"> std::void_t&lt; typename Type</text>
<text text-anchor="middle" x="611" y="-957.5" font-family="Helvetica,sans-Serif" font-size="10.00" fill="#000000">::value_type &gt; &gt;</text>
</a>
</g>
</g>
<!-- Node1552&#45;&gt;Node1553 -->
<g id="edge5" class="edge">
<title>Node1552&#45;&gt;Node1553</title>
<path fill="none" stroke="#191970" d="M499.6301,-976.5C510.2743,-976.5 521.1547,-976.5 531.743,-976.5"/>
<polygon fill="#191970" stroke="#191970" points="499.5144,-973.0001 489.5143,-976.5 499.5143,-980.0001 499.5144,-973.0001"/>
</g>
<!-- Node1556 -->
<g id="node9" class="node">
<title>Node1556</title>
<g id="a_node9"><a xlink:href="d2/d70/structo2_1_1framework_1_1is__boost__serializable.html" target="_top" xlink:title="o2::framework::is_boost\l_serializable\&lt; Type::value\l_type, boost::archive::binary\l_oarchive \&gt;">
<polygon fill="none" stroke="#000000" points="339.5,-824.5 339.5,-876.5 494.5,-876.5 494.5,-824.5 339.5,-824.5"/>
<text text-anchor="start" x="347.5" y="-864.5" font-family="Helvetica,sans-Serif" font-size="10.00" fill="#000000">o2::framework::is_boost</text>
<text text-anchor="start" x="347.5" y="-853.5" font-family="Helvetica,sans-Serif" font-size="10.00" fill="#000000">_serializable&lt; Type::value</text>
<text text-anchor="start" x="347.5" y="-842.5" font-family="Helvetica,sans-Serif" font-size="10.00" fill="#000000">_type, boost::archive::binary</text>
<text text-anchor="middle" x="417" y="-831.5" font-family="Helvetica,sans-Serif" font-size="10.00" fill="#000000">_oarchive &gt;</text>
</a>
</g>
</g>
<!-- Node1555&#45;&gt;Node1556 -->
<g id="edge8" class="edge">
<title>Node1555&#45;&gt;Node1556</title>
<path fill="none" stroke="#191970" d="M284.6791,-861.6298C302.5909,-860.1232 321.5071,-858.5321 339.2594,-857.0389"/>
<polygon fill="#191970" stroke="#191970" points="284.2278,-858.1553 274.5564,-862.4812 284.8146,-865.1307 284.2278,-858.1553"/>
</g>
<!-- Node1557 -->
<g id="node10" class="node">
<title>Node1557</title>
<g id="a_node10"><a xlink:href="da/d5c/structo2_1_1framework_1_1is__boost__serializable_3_01Type_00_01boost_1_1archive_1_1binary__oarchf8a18e484fa159a1d92458bf9fe69b23.html" target="_top" xlink:title="o2::framework::is_boost\l_serializable\&lt; Type, boost\l::archive::binary_oarchive,\l std::void_t\&lt; typename Type\l::value_type \&gt; \&gt;">
<polygon fill="none" stroke="#000000" points="532.5,-819 532.5,-882 689.5,-882 689.5,-819 532.5,-819"/>
<text text-anchor="start" x="540.5" y="-870" font-family="Helvetica,sans-Serif" font-size="10.00" fill="#000000">o2::framework::is_boost</text>
<text text-anchor="start" x="540.5" y="-859" font-family="Helvetica,sans-Serif" font-size="10.00" fill="#000000">_serializable&lt; Type, boost</text>
<text text-anchor="start" x="540.5" y="-848" font-family="Helvetica,sans-Serif" font-size="10.00" fill="#000000">::archive::binary_oarchive,</text>
<text text-anchor="start" x="540.5" y="-837" font-family="Helvetica,sans-Serif" font-size="10.00" fill="#000000"> std::void_t&lt; typename Type</text>
<text text-anchor="middle" x="611" y="-826" font-family="Helvetica,sans-Serif" font-size="10.00" fill="#000000">::value_type &gt; &gt;</text>
</a>
</g>
</g>
<!-- Node1556&#45;&gt;Node1557 -->
<g id="edge9" class="edge">
<title>Node1556&#45;&gt;Node1557</title>
<path fill="none" stroke="#191970" d="M504.5128,-850.5C513.7879,-850.5 523.1799,-850.5 532.3451,-850.5"/>
<polygon fill="#191970" stroke="#191970" points="504.5103,-847.0001 494.5103,-850.5 504.5103,-854.0001 504.5103,-847.0001"/>
</g>
</g>
</svg>
