<?xml version="1.0" encoding="UTF-8" standalone="no"?>
<!DOCTYPE svg PUBLIC "-//W3C//DTD SVG 1.1//EN"
 "http://www.w3.org/Graphics/SVG/1.1/DTD/svg11.dtd">
<!-- Generated by graphviz version 2.40.1 (20161225.0304)
 -->
<!-- Title: /home/travis/build/AliceO2Group/AliceO2/Framework/Utils/include/DPLUtils/RootTreeWriter.h Pages: 1 -->
<!--zoomable 328 -->
<svg id="main" version="1.1" xmlns="http://www.w3.org/2000/svg" xmlns:xlink="http://www.w3.org/1999/xlink" xml:space="preserve" onload="init(evt)">
<style type="text/css"><![CDATA[
.edge:hover path { stroke: red; }
.edge:hover polygon { stroke: red; fill: red; }
]]></style>
<script type="text/javascript"><![CDATA[
var edges = document.getElementsByTagName('g');
if (edges && edges.length) {
  for (var i=0;i<edges.length;i++) {
    if (edges[i].id.substr(0,4)=='edge') {
      edges[i].setAttribute('class','edge');
    }
  }
}
]]></script>
        <defs>
                <circle id="rim" cx="0" cy="0" r="7"/>
                <circle id="rim2" cx="0" cy="0" r="3.5"/>
                <g id="zoomPlus">
                        <use xlink:href="#rim" fill="#404040">
                                <set attributeName="fill" to="#808080" begin="zoomplus.mouseover" end="zoomplus.mouseout"/>
                        </use>
                        <path d="M-4,0h8M0,-4v8" fill="none" stroke="white" stroke-width="1.5" pointer-events="none"/>
                </g>
                <g id="zoomMin">
                        <use xlink:href="#rim" fill="#404040">
                                <set attributeName="fill" to="#808080" begin="zoomminus.mouseover" end="zoomminus.mouseout"/>
                        </use>
                        <path d="M-4,0h8" fill="none" stroke="white" stroke-width="1.5" pointer-events="none"/>
                </g>
                <g id="dirArrow">
                        <path fill="none" stroke="white" stroke-width="1.5" d="M0,-3.0v7 M-2.5,-0.5L0,-3.0L2.5,-0.5"/>
                </g>
               <g id="resetDef">
                       <use xlink:href="#rim2" fill="#404040">
                               <set attributeName="fill" to="#808080" begin="reset.mouseover" end="reset.mouseout"/>
                       </use>
               </g>
        </defs>

<script type="text/javascript">
var viewWidth = 3353;
var viewHeight = 328;
var sectionId = 'dynsection-1';
</script>
<script xlink:href="../../svgpan.js"/>
<svg id="graph" class="graph">
<g id="viewport">
<title>/home/travis/build/AliceO2Group/AliceO2/Framework/Utils/include/DPLUtils/RootTreeWriter.h</title>
<!-- Node88 -->
<g id="node1" class="node">
<title>Node88</title>
<polygon fill="#bfbfbf" stroke="#000000" points="170.5,-267.5 170.5,-319.5 313.5,-319.5 313.5,-267.5 170.5,-267.5"/>
<text text-anchor="start" x="178.5" y="-307.5" font-family="Helvetica,sans-Serif" font-size="10.00" fill="#000000">/home/travis/build</text>
<text text-anchor="start" x="178.5" y="-296.5" font-family="Helvetica,sans-Serif" font-size="10.00" fill="#000000">/AliceO2Group/AliceO2</text>
<text text-anchor="start" x="178.5" y="-285.5" font-family="Helvetica,sans-Serif" font-size="10.00" fill="#000000">/Framework/Utils/include</text>
<text text-anchor="middle" x="242" y="-274.5" font-family="Helvetica,sans-Serif" font-size="10.00" fill="#000000">/DPLUtils/RootTreeWriter.h</text>
</g>
<!-- Node89 -->
<g id="node2" class="node">
<title>Node89</title>
<g id="a_node2"><a xlink:href="../../d5/dc8/MakeRootTreeWriterSpec_8h.html" target="_top" xlink:title="Configurable generator for RootTreeWriter processor spec. ">
<polygon fill="none" stroke="#000000" points="1486.5,-178.5 1486.5,-230.5 1679.5,-230.5 1679.5,-178.5 1486.5,-178.5"/>
<text text-anchor="start" x="1494.5" y="-218.5" font-family="Helvetica,sans-Serif" font-size="10.00" fill="#000000">/home/travis/build</text>
<text text-anchor="start" x="1494.5" y="-207.5" font-family="Helvetica,sans-Serif" font-size="10.00" fill="#000000">/AliceO2Group/AliceO2</text>
<text text-anchor="start" x="1494.5" y="-196.5" font-family="Helvetica,sans-Serif" font-size="10.00" fill="#000000">/Framework/Utils/include</text>
<text text-anchor="middle" x="1583" y="-185.5" font-family="Helvetica,sans-Serif" font-size="10.00" fill="#000000">/DPLUtils/MakeRootTreeWriterSpec.h</text>
</a>
</g>
</g>
<!-- Node88&#45;&gt;Node89 -->
<g id="edge1" class="edge">
<title>Node88&#45;&gt;Node89</title>
<path fill="none" stroke="#191970" d="M323.8022,-288.0709C558.6369,-272.4853 1234.175,-227.651 1486.4473,-210.908"/>
<polygon fill="#191970" stroke="#191970" points="323.3701,-284.5918 313.6239,-288.7464 323.8338,-291.5764 323.3701,-284.5918"/>
</g>
<!-- Node98 -->
<g id="node11" class="node">
<title>Node98</title>
<g id="a_node11"><a xlink:href="../../da/dcf/test__RootTreeWriter_8cxx.html" target="_top" xlink:title="/home/travis/build\l/AliceO2Group/AliceO2\l/Framework/Utils/test\l/test_RootTreeWriter.cxx">
<polygon fill="none" stroke="#000000" points="0,-89.5 0,-141.5 134,-141.5 134,-89.5 0,-89.5"/>
<text text-anchor="start" x="8" y="-129.5" font-family="Helvetica,sans-Serif" font-size="10.00" fill="#000000">/home/travis/build</text>
<text text-anchor="start" x="8" y="-118.5" font-family="Helvetica,sans-Serif" font-size="10.00" fill="#000000">/AliceO2Group/AliceO2</text>
<text text-anchor="start" x="8" y="-107.5" font-family="Helvetica,sans-Serif" font-size="10.00" fill="#000000">/Framework/Utils/test</text>
<text text-anchor="middle" x="67" y="-96.5" font-family="Helvetica,sans-Serif" font-size="10.00" fill="#000000">/test_RootTreeWriter.cxx</text>
</a>
</g>
</g>
<!-- Node88&#45;&gt;Node98 -->
<g id="edge31" class="edge">
<title>Node88&#45;&gt;Node98</title>
<path fill="none" stroke="#191970" d="M208.8385,-259.7701C175.0639,-225.4164 123.4105,-172.8776 92.6427,-141.5823"/>
<polygon fill="#191970" stroke="#191970" points="206.6716,-262.5583 216.1781,-267.2355 211.6632,-257.6508 206.6716,-262.5583"/>
</g>
<!-- Node99 -->
<g id="node12" class="node">
<title>Node99</title>
<g id="a_node12"><a xlink:href="../../d1/d02/test__RootTreeWriterWorkflow_8cxx.html" target="_top" xlink:title="/home/travis/build\l/AliceO2Group/AliceO2\l/Framework/Utils/test\l/test_RootTreeWriterWorkflow.cxx">
<polygon fill="none" stroke="#000000" points="152.5,-89.5 152.5,-141.5 331.5,-141.5 331.5,-89.5 152.5,-89.5"/>
<text text-anchor="start" x="160.5" y="-129.5" font-family="Helvetica,sans-Serif" font-size="10.00" fill="#000000">/home/travis/build</text>
<text text-anchor="start" x="160.5" y="-118.5" font-family="Helvetica,sans-Serif" font-size="10.00" fill="#000000">/AliceO2Group/AliceO2</text>
<text text-anchor="start" x="160.5" y="-107.5" font-family="Helvetica,sans-Serif" font-size="10.00" fill="#000000">/Framework/Utils/test</text>
<text text-anchor="middle" x="242" y="-96.5" font-family="Helvetica,sans-Serif" font-size="10.00" fill="#000000">/test_RootTreeWriterWorkflow.cxx</text>
</a>
</g>
</g>
<!-- Node88&#45;&gt;Node99 -->
<g id="edge32" class="edge">
<title>Node88&#45;&gt;Node99</title>
<path fill="none" stroke="#191970" d="M242,-257.1378C242,-222.7809 242,-172.0886 242,-141.5823"/>
<polygon fill="#191970" stroke="#191970" points="238.5001,-257.2355 242,-267.2355 245.5001,-257.2355 238.5001,-257.2355"/>
</g>
<!-- Node90 -->
<g id="node3" class="node">
<title>Node90</title>
<g id="a_node3"><a xlink:href="../../dd/d16/CPV_2workflow_2src_2RecoWorkflow_8cxx.html" target="_top" xlink:title="/home/travis/build\l/AliceO2Group/AliceO2\l/Detectors/CPV/workflow\l/src/RecoWorkflow.cxx">
<polygon fill="none" stroke="#000000" points="2347.5,-89.5 2347.5,-141.5 2484.5,-141.5 2484.5,-89.5 2347.5,-89.5"/>
<text text-anchor="start" x="2355.5" y="-129.5" font-family="Helvetica,sans-Serif" font-size="10.00" fill="#000000">/home/travis/build</text>
<text text-anchor="start" x="2355.5" y="-118.5" font-family="Helvetica,sans-Serif" font-size="10.00" fill="#000000">/AliceO2Group/AliceO2</text>
<text text-anchor="start" x="2355.5" y="-107.5" font-family="Helvetica,sans-Serif" font-size="10.00" fill="#000000">/Detectors/CPV/workflow</text>
<text text-anchor="middle" x="2416" y="-96.5" font-family="Helvetica,sans-Serif" font-size="10.00" fill="#000000">/src/RecoWorkflow.cxx</text>
</a>
</g>
</g>
<!-- Node89&#45;&gt;Node90 -->
<g id="edge2" class="edge">
<title>Node89&#45;&gt;Node90</title>
<path fill="none" stroke="#191970" d="M1690.003,-198.88C1867.9796,-188.9889 2217.2092,-167.1213 2338,-142 2341.0805,-141.3593 2344.2076,-140.6331 2347.3505,-139.8407"/>
<polygon fill="#191970" stroke="#191970" points="1689.626,-195.3954 1679.8346,-199.4425 1690.0127,-202.3848 1689.626,-195.3954"/>
</g>
<!-- Node91 -->
<g id="node4" class="node">
<title>Node91</title>
<g id="a_node4"><a xlink:href="../../d2/dbf/EMCAL_2workflow_2src_2RecoWorkflow_8cxx.html" target="_top" xlink:title="/home/travis/build\l/AliceO2Group/AliceO2\l/Detectors/EMCAL/workflow\l/src/RecoWorkflow.cxx">
<polygon fill="none" stroke="#000000" points="2503,-89.5 2503,-141.5 2653,-141.5 2653,-89.5 2503,-89.5"/>
<text text-anchor="start" x="2511" y="-129.5" font-family="Helvetica,sans-Serif" font-size="10.00" fill="#000000">/home/travis/build</text>
<text text-anchor="start" x="2511" y="-118.5" font-family="Helvetica,sans-Serif" font-size="10.00" fill="#000000">/AliceO2Group/AliceO2</text>
<text text-anchor="start" x="2511" y="-107.5" font-family="Helvetica,sans-Serif" font-size="10.00" fill="#000000">/Detectors/EMCAL/workflow</text>
<text text-anchor="middle" x="2578" y="-96.5" font-family="Helvetica,sans-Serif" font-size="10.00" fill="#000000">/src/RecoWorkflow.cxx</text>
</a>
</g>
</g>
<!-- Node89&#45;&gt;Node91 -->
<g id="edge3" class="edge">
<title>Node89&#45;&gt;Node91</title>
<path fill="none" stroke="#191970" d="M1690.1277,-200.339C1896.6295,-191.7918 2342.7344,-170.6283 2494,-142 2496.8548,-141.4597 2499.7485,-140.8536 2502.6597,-140.1945"/>
<polygon fill="#191970" stroke="#191970" points="1689.7242,-196.8525 1679.8767,-200.7611 1690.0123,-203.8466 1689.7242,-196.8525"/>
</g>
<!-- Node92 -->
<g id="node5" class="node">
<title>Node92</title>
<g id="a_node5"><a xlink:href="../../d2/de0/MUON_2MID_2Workflow_2src_2RecoWorkflow_8cxx.html" target="_top" xlink:title="Definition of MID reconstruction workflow. ">
<polygon fill="none" stroke="#000000" points="2671,-89.5 2671,-141.5 2841,-141.5 2841,-89.5 2671,-89.5"/>
<text text-anchor="start" x="2679" y="-129.5" font-family="Helvetica,sans-Serif" font-size="10.00" fill="#000000">/home/travis/build</text>
<text text-anchor="start" x="2679" y="-118.5" font-family="Helvetica,sans-Serif" font-size="10.00" fill="#000000">/AliceO2Group/AliceO2</text>
<text text-anchor="start" x="2679" y="-107.5" font-family="Helvetica,sans-Serif" font-size="10.00" fill="#000000">/Detectors/MUON/MID/Workflow</text>
<text text-anchor="middle" x="2756" y="-96.5" font-family="Helvetica,sans-Serif" font-size="10.00" fill="#000000">/src/RecoWorkflow.cxx</text>
</a>
</g>
</g>
<!-- Node89&#45;&gt;Node92 -->
<g id="edge4" class="edge">
<title>Node89&#45;&gt;Node92</title>
<path fill="none" stroke="#191970" d="M1689.9475,-201.2568C1924.3724,-193.6669 2477.2665,-173.0116 2662,-142 2664.9263,-141.5088 2667.8917,-140.9608 2670.8773,-140.3663"/>
<polygon fill="#191970" stroke="#191970" points="1689.588,-197.7664 1679.7059,-201.5866 1689.8134,-204.7628 1689.588,-197.7664"/>
</g>
<!-- Node93 -->
<g id="node6" class="node">
<title>Node93</title>
<g id="a_node6"><a xlink:href="../../dd/d65/RecoWorkflowMC_8cxx.html" target="_top" xlink:title="Definition of MID reconstruction workflow for MC. ">
<polygon fill="none" stroke="#000000" points="2859,-89.5 2859,-141.5 3029,-141.5 3029,-89.5 2859,-89.5"/>
<text text-anchor="start" x="2867" y="-129.5" font-family="Helvetica,sans-Serif" font-size="10.00" fill="#000000">/home/travis/build</text>
<text text-anchor="start" x="2867" y="-118.5" font-family="Helvetica,sans-Serif" font-size="10.00" fill="#000000">/AliceO2Group/AliceO2</text>
<text text-anchor="start" x="2867" y="-107.5" font-family="Helvetica,sans-Serif" font-size="10.00" fill="#000000">/Detectors/MUON/MID/Workflow</text>
<text text-anchor="middle" x="2944" y="-96.5" font-family="Helvetica,sans-Serif" font-size="10.00" fill="#000000">/src/RecoWorkflowMC.cxx</text>
</a>
</g>
</g>
<!-- Node89&#45;&gt;Node93 -->
<g id="edge5" class="edge">
<title>Node89&#45;&gt;Node93</title>
<path fill="none" stroke="#191970" d="M1690.0991,-202.3206C1953.5905,-196.459 2628.0107,-178.2885 2850,-142 2852.9284,-141.5213 2855.8956,-140.9842 2858.8828,-140.399"/>
<polygon fill="#191970" stroke="#191970" points="1689.6809,-198.8289 1679.7607,-202.549 1689.8356,-205.8272 1689.6809,-198.8289"/>
</g>
<!-- Node94 -->
<g id="node7" class="node">
<title>Node94</title>
<g id="a_node7"><a xlink:href="../../d8/d7e/PHOS_2workflow_2src_2RecoWorkflow_8cxx.html" target="_top" xlink:title="/home/travis/build\l/AliceO2Group/AliceO2\l/Detectors/PHOS/workflow\l/src/RecoWorkflow.cxx">
<polygon fill="none" stroke="#000000" points="3047,-89.5 3047,-141.5 3191,-141.5 3191,-89.5 3047,-89.5"/>
<text text-anchor="start" x="3055" y="-129.5" font-family="Helvetica,sans-Serif" font-size="10.00" fill="#000000">/home/travis/build</text>
<text text-anchor="start" x="3055" y="-118.5" font-family="Helvetica,sans-Serif" font-size="10.00" fill="#000000">/AliceO2Group/AliceO2</text>
<text text-anchor="start" x="3055" y="-107.5" font-family="Helvetica,sans-Serif" font-size="10.00" fill="#000000">/Detectors/PHOS/workflow</text>
<text text-anchor="middle" x="3119" y="-96.5" font-family="Helvetica,sans-Serif" font-size="10.00" fill="#000000">/src/RecoWorkflow.cxx</text>
</a>
</g>
</g>
<!-- Node89&#45;&gt;Node94 -->
<g id="edge6" class="edge">
<title>Node89&#45;&gt;Node94</title>
<path fill="none" stroke="#191970" d="M1689.8486,-203.6865C1980.1964,-200.874 2779.2356,-188.9688 3038,-142 3040.9116,-141.4715 3043.8627,-140.8638 3046.8292,-140.1926"/>
<polygon fill="#191970" stroke="#191970" points="1689.7026,-200.1876 1679.7364,-203.7827 1689.7693,-207.1873 1689.7026,-200.1876"/>
</g>
<!-- Node95 -->
<g id="node8" class="node">
<title>Node95</title>
<g id="a_node8"><a xlink:href="../../d0/d80/TPC_2workflow_2src_2RecoWorkflow_8cxx.html" target="_top" xlink:title="/home/travis/build\l/AliceO2Group/AliceO2\l/Detectors/TPC/workflow\l/src/RecoWorkflow.cxx">
<polygon fill="none" stroke="#000000" points="3209,-89.5 3209,-141.5 3345,-141.5 3345,-89.5 3209,-89.5"/>
<text text-anchor="start" x="3217" y="-129.5" font-family="Helvetica,sans-Serif" font-size="10.00" fill="#000000">/home/travis/build</text>
<text text-anchor="start" x="3217" y="-118.5" font-family="Helvetica,sans-Serif" font-size="10.00" fill="#000000">/AliceO2Group/AliceO2</text>
<text text-anchor="start" x="3217" y="-107.5" font-family="Helvetica,sans-Serif" font-size="10.00" fill="#000000">/Detectors/TPC/workflow</text>
<text text-anchor="middle" x="3277" y="-96.5" font-family="Helvetica,sans-Serif" font-size="10.00" fill="#000000">/src/RecoWorkflow.cxx</text>
</a>
</g>
</g>
<!-- Node89&#45;&gt;Node95 -->
<g id="edge7" class="edge">
<title>Node89&#45;&gt;Node95</title>
<path fill="none" stroke="#191970" d="M1689.8293,-202.1829C2026.6217,-194.6256 3052.6256,-169.5866 3200,-142 3202.9182,-141.4537 3205.8758,-140.8188 3208.8466,-140.1134"/>
<polygon fill="#191970" stroke="#191970" points="1689.5045,-198.6892 1679.5853,-202.4121 1689.6611,-205.6874 1689.5045,-198.6892"/>
</g>
<!-- Node96 -->
<g id="node9" class="node">
<title>Node96</title>
<g id="a_node9"><a xlink:href="../../dd/d1a/TRDDigitWriterSpec_8cxx.html" target="_top" xlink:title="/home/travis/build\l/AliceO2Group/AliceO2\l/Detectors/TRD/workflow\l/src/TRDDigitWriterSpec.cxx">
<polygon fill="none" stroke="#000000" points="349.5,-89.5 349.5,-141.5 502.5,-141.5 502.5,-89.5 349.5,-89.5"/>
<text text-anchor="start" x="357.5" y="-129.5" font-family="Helvetica,sans-Serif" font-size="10.00" fill="#000000">/home/travis/build</text>
<text text-anchor="start" x="357.5" y="-118.5" font-family="Helvetica,sans-Serif" font-size="10.00" fill="#000000">/AliceO2Group/AliceO2</text>
<text text-anchor="start" x="357.5" y="-107.5" font-family="Helvetica,sans-Serif" font-size="10.00" fill="#000000">/Detectors/TRD/workflow</text>
<text text-anchor="middle" x="426" y="-96.5" font-family="Helvetica,sans-Serif" font-size="10.00" fill="#000000">/src/TRDDigitWriterSpec.cxx</text>
</a>
</g>
</g>
<!-- Node89&#45;&gt;Node96 -->
<g id="edge8" class="edge">
<title>Node89&#45;&gt;Node96</title>
<path fill="none" stroke="#191970" d="M1475.926,-201.5243C1242.634,-194.5078 694.751,-174.9907 512,-142 508.925,-141.4449 505.8056,-140.8148 502.6675,-140.1248"/>
<polygon fill="#191970" stroke="#191970" points="1476.0196,-205.0286 1486.1197,-201.829 1476.2288,-198.0317 1476.0196,-205.0286"/>
</g>
<!-- Node97 -->
<g id="node10" class="node">
<title>Node97</title>
<g id="a_node10"><a xlink:href="../../d0/dfb/TRDTrackletWriterSpec_8cxx.html" target="_top" xlink:title="/home/travis/build\l/AliceO2Group/AliceO2\l/Detectors/TRD/workflow\l/src/TRDTrackletWriterSpec.cxx">
<polygon fill="none" stroke="#000000" points="521,-89.5 521,-141.5 689,-141.5 689,-89.5 521,-89.5"/>
<text text-anchor="start" x="529" y="-129.5" font-family="Helvetica,sans-Serif" font-size="10.00" fill="#000000">/home/travis/build</text>
<text text-anchor="start" x="529" y="-118.5" font-family="Helvetica,sans-Serif" font-size="10.00" fill="#000000">/AliceO2Group/AliceO2</text>
<text text-anchor="start" x="529" y="-107.5" font-family="Helvetica,sans-Serif" font-size="10.00" fill="#000000">/Detectors/TRD/workflow</text>
<text text-anchor="middle" x="605" y="-96.5" font-family="Helvetica,sans-Serif" font-size="10.00" fill="#000000">/src/TRDTrackletWriterSpec.cxx</text>
</a>
</g>
</g>
<!-- Node89&#45;&gt;Node97 -->
<g id="edge9" class="edge">
<title>Node89&#45;&gt;Node97</title>
<path fill="none" stroke="#191970" d="M1476.3159,-199.7372C1274.6672,-190.276 844.6655,-167.7876 698,-142 695.1064,-141.4912 692.1738,-140.9282 689.2211,-140.3207"/>
<polygon fill="#191970" stroke="#191970" points="1476.1783,-203.2345 1486.3308,-200.2052 1476.5051,-196.2421 1476.1783,-203.2345"/>
</g>
<!-- Node89&#45;&gt;Node98 -->
<g id="edge10" class="edge">
<title>Node89&#45;&gt;Node98</title>
<path fill="none" stroke="#191970" d="M1476.1773,-203.8938C1187.8451,-201.6152 398.3262,-190.9557 143,-142 140.1181,-141.4474 137.1975,-140.8072 134.2641,-140.0974"/>
<polygon fill="#191970" stroke="#191970" points="1476.1943,-207.3939 1486.2211,-203.9714 1476.2484,-200.3941 1476.1943,-207.3939"/>
</g>
<!-- Node89&#45;&gt;Node99 -->
<g id="edge11" class="edge">
<title>Node89&#45;&gt;Node99</title>
<path fill="none" stroke="#191970" d="M1476.0719,-202.0604C1216.3094,-195.6601 557.439,-176.4581 340,-142 337.2148,-141.5586 334.3949,-141.0689 331.5555,-140.5386"/>
<polygon fill="#191970" stroke="#191970" points="1476.1846,-205.5641 1486.2673,-202.31 1476.356,-198.5662 1476.1846,-205.5641"/>
</g>
<!-- Node100 -->
<g id="node13" class="node">
<title>Node100</title>
<g id="a_node13"><a xlink:href="../../d1/dc0/CPVDigitWriterSpec_8h.html" target="_top" xlink:title="/home/travis/build\l/AliceO2Group/AliceO2\l/Steer/DigitizerWorkflow\l/src/CPVDigitWriterSpec.h">
<polygon fill="none" stroke="#000000" points="1193.5,-89.5 1193.5,-141.5 1334.5,-141.5 1334.5,-89.5 1193.5,-89.5"/>
<text text-anchor="start" x="1201.5" y="-129.5" font-family="Helvetica,sans-Serif" font-size="10.00" fill="#000000">/home/travis/build</text>
<text text-anchor="start" x="1201.5" y="-118.5" font-family="Helvetica,sans-Serif" font-size="10.00" fill="#000000">/AliceO2Group/AliceO2</text>
<text text-anchor="start" x="1201.5" y="-107.5" font-family="Helvetica,sans-Serif" font-size="10.00" fill="#000000">/Steer/DigitizerWorkflow</text>
<text text-anchor="middle" x="1264" y="-96.5" font-family="Helvetica,sans-Serif" font-size="10.00" fill="#000000">/src/CPVDigitWriterSpec.h</text>
</a>
</g>
</g>
<!-- Node89&#45;&gt;Node100 -->
<g id="edge12" class="edge">
<title>Node89&#45;&gt;Node100</title>
<path fill="none" stroke="#191970" d="M1476.5225,-178.2131C1435.0039,-167.5568 1387.1164,-154.7645 1344,-142 1340.9136,-141.0863 1337.7668,-140.1339 1334.5929,-139.1562"/>
<polygon fill="#191970" stroke="#191970" points="1475.8241,-181.6471 1486.3795,-180.7337 1477.5584,-174.8653 1475.8241,-181.6471"/>
</g>
<!-- Node102 -->
<g id="node15" class="node">
<title>Node102</title>
<g id="a_node15"><a xlink:href="../../d9/db2/EMCALDigitWriterSpec_8cxx.html" target="_top" xlink:title="/home/travis/build\l/AliceO2Group/AliceO2\l/Steer/DigitizerWorkflow\l/src/EMCALDigitWriterSpec.cxx">
<polygon fill="none" stroke="#000000" points="2163,-89.5 2163,-141.5 2329,-141.5 2329,-89.5 2163,-89.5"/>
<text text-anchor="start" x="2171" y="-129.5" font-family="Helvetica,sans-Serif" font-size="10.00" fill="#000000">/home/travis/build</text>
<text text-anchor="start" x="2171" y="-118.5" font-family="Helvetica,sans-Serif" font-size="10.00" fill="#000000">/AliceO2Group/AliceO2</text>
<text text-anchor="start" x="2171" y="-107.5" font-family="Helvetica,sans-Serif" font-size="10.00" fill="#000000">/Steer/DigitizerWorkflow</text>
<text text-anchor="middle" x="2246" y="-96.5" font-family="Helvetica,sans-Serif" font-size="10.00" fill="#000000">/src/EMCALDigitWriterSpec.cxx</text>
</a>
</g>
</g>
<!-- Node89&#45;&gt;Node102 -->
<g id="edge14" class="edge">
<title>Node89&#45;&gt;Node102</title>
<path fill="none" stroke="#191970" d="M1689.9836,-198.2843C1805.3406,-190.3077 1993.971,-173.5636 2154,-142 2156.9353,-141.421 2159.9127,-140.7925 2162.9118,-140.1242"/>
<polygon fill="#191970" stroke="#191970" points="1689.4805,-194.8104 1679.7419,-198.9827 1689.9569,-201.7942 1689.4805,-194.8104"/>
</g>
<!-- Node103 -->
<g id="node16" class="node">
<title>Node103</title>
<g id="a_node16"><a xlink:href="../../d8/dcd/FDDDigitWriterSpec_8h.html" target="_top" xlink:title="/home/travis/build\l/AliceO2Group/AliceO2\l/Steer/DigitizerWorkflow\l/src/FDDDigitWriterSpec.h">
<polygon fill="none" stroke="#000000" points="1353,-89.5 1353,-141.5 1495,-141.5 1495,-89.5 1353,-89.5"/>
<text text-anchor="start" x="1361" y="-129.5" font-family="Helvetica,sans-Serif" font-size="10.00" fill="#000000">/home/travis/build</text>
<text text-anchor="start" x="1361" y="-118.5" font-family="Helvetica,sans-Serif" font-size="10.00" fill="#000000">/AliceO2Group/AliceO2</text>
<text text-anchor="start" x="1361" y="-107.5" font-family="Helvetica,sans-Serif" font-size="10.00" fill="#000000">/Steer/DigitizerWorkflow</text>
<text text-anchor="middle" x="1424" y="-96.5" font-family="Helvetica,sans-Serif" font-size="10.00" fill="#000000">/src/FDDDigitWriterSpec.h</text>
</a>
</g>
</g>
<!-- Node89&#45;&gt;Node103 -->
<g id="edge15" class="edge">
<title>Node89&#45;&gt;Node103</title>
<path fill="none" stroke="#191970" d="M1527.2288,-173.2821C1508.6955,-162.9082 1488.2682,-151.4741 1470.5104,-141.5341"/>
<polygon fill="#191970" stroke="#191970" points="1525.7192,-176.4481 1536.1547,-178.2784 1529.1383,-170.3399 1525.7192,-176.4481"/>
</g>
<!-- Node104 -->
<g id="node17" class="node">
<title>Node104</title>
<g id="a_node17"><a xlink:href="../../d4/d85/FT0DigitWriterSpec_8h.html" target="_top" xlink:title="/home/travis/build\l/AliceO2Group/AliceO2\l/Steer/DigitizerWorkflow\l/src/FT0DigitWriterSpec.h">
<polygon fill="none" stroke="#000000" points="1513.5,-89.5 1513.5,-141.5 1652.5,-141.5 1652.5,-89.5 1513.5,-89.5"/>
<text text-anchor="start" x="1521.5" y="-129.5" font-family="Helvetica,sans-Serif" font-size="10.00" fill="#000000">/home/travis/build</text>
<text text-anchor="start" x="1521.5" y="-118.5" font-family="Helvetica,sans-Serif" font-size="10.00" fill="#000000">/AliceO2Group/AliceO2</text>
<text text-anchor="start" x="1521.5" y="-107.5" font-family="Helvetica,sans-Serif" font-size="10.00" fill="#000000">/Steer/DigitizerWorkflow</text>
<text text-anchor="middle" x="1583" y="-96.5" font-family="Helvetica,sans-Serif" font-size="10.00" fill="#000000">/src/FT0DigitWriterSpec.h</text>
</a>
</g>
</g>
<!-- Node89&#45;&gt;Node104 -->
<g id="edge17" class="edge">
<title>Node89&#45;&gt;Node104</title>
<path fill="none" stroke="#191970" d="M1583,-168.1155C1583,-159.2061 1583,-149.8475 1583,-141.5341"/>
<polygon fill="#191970" stroke="#191970" points="1579.5001,-168.2784 1583,-178.2784 1586.5001,-168.2785 1579.5001,-168.2784"/>
</g>
<!-- Node105 -->
<g id="node18" class="node">
<title>Node105</title>
<g id="a_node18"><a xlink:href="../../d3/d12/FV0DigitWriterSpec_8h.html" target="_top" xlink:title="/home/travis/build\l/AliceO2Group/AliceO2\l/Steer/DigitizerWorkflow\l/src/FV0DigitWriterSpec.h">
<polygon fill="none" stroke="#000000" points="1671,-89.5 1671,-141.5 1811,-141.5 1811,-89.5 1671,-89.5"/>
<text text-anchor="start" x="1679" y="-129.5" font-family="Helvetica,sans-Serif" font-size="10.00" fill="#000000">/home/travis/build</text>
<text text-anchor="start" x="1679" y="-118.5" font-family="Helvetica,sans-Serif" font-size="10.00" fill="#000000">/AliceO2Group/AliceO2</text>
<text text-anchor="start" x="1679" y="-107.5" font-family="Helvetica,sans-Serif" font-size="10.00" fill="#000000">/Steer/DigitizerWorkflow</text>
<text text-anchor="middle" x="1741" y="-96.5" font-family="Helvetica,sans-Serif" font-size="10.00" fill="#000000">/src/FV0DigitWriterSpec.h</text>
</a>
</g>
</g>
<!-- Node89&#45;&gt;Node105 -->
<g id="edge19" class="edge">
<title>Node89&#45;&gt;Node105</title>
<path fill="none" stroke="#191970" d="M1638.4205,-173.2821C1656.8371,-162.9082 1677.136,-151.4741 1694.7821,-141.5341"/>
<polygon fill="#191970" stroke="#191970" points="1636.5457,-170.321 1629.5506,-178.2784 1639.9812,-176.42 1636.5457,-170.321"/>
</g>
<!-- Node106 -->
<g id="node19" class="node">
<title>Node106</title>
<g id="a_node19"><a xlink:href="../../d5/d5b/HMPIDDigitWriterSpec_8h.html" target="_top" xlink:title="/home/travis/build\l/AliceO2Group/AliceO2\l/Steer/DigitizerWorkflow\l/src/HMPIDDigitWriterSpec.h">
<polygon fill="none" stroke="#000000" points="1829,-89.5 1829,-141.5 1983,-141.5 1983,-89.5 1829,-89.5"/>
<text text-anchor="start" x="1837" y="-129.5" font-family="Helvetica,sans-Serif" font-size="10.00" fill="#000000">/home/travis/build</text>
<text text-anchor="start" x="1837" y="-118.5" font-family="Helvetica,sans-Serif" font-size="10.00" fill="#000000">/AliceO2Group/AliceO2</text>
<text text-anchor="start" x="1837" y="-107.5" font-family="Helvetica,sans-Serif" font-size="10.00" fill="#000000">/Steer/DigitizerWorkflow</text>
<text text-anchor="middle" x="1906" y="-96.5" font-family="Helvetica,sans-Serif" font-size="10.00" fill="#000000">/src/HMPIDDigitWriterSpec.h</text>
</a>
</g>
</g>
<!-- Node89&#45;&gt;Node106 -->
<g id="edge21" class="edge">
<title>Node89&#45;&gt;Node106</title>
<path fill="none" stroke="#191970" d="M1689.2574,-177.4718C1730.2203,-166.7924 1777.3875,-154.1785 1820,-142 1822.8542,-141.1843 1825.7584,-140.3437 1828.6895,-139.4864"/>
<polygon fill="#191970" stroke="#191970" points="1688.3277,-174.0971 1679.5308,-180.0017 1690.0899,-180.8717 1688.3277,-174.0971"/>
</g>
<!-- Node107 -->
<g id="node20" class="node">
<title>Node107</title>
<g id="a_node20"><a xlink:href="../../d8/d60/MCHDigitWriterSpec_8h.html" target="_top" xlink:title="/home/travis/build\l/AliceO2Group/AliceO2\l/Steer/DigitizerWorkflow\l/src/MCHDigitWriterSpec.h">
<polygon fill="none" stroke="#000000" points="2001,-89.5 2001,-141.5 2145,-141.5 2145,-89.5 2001,-89.5"/>
<text text-anchor="start" x="2009" y="-129.5" font-family="Helvetica,sans-Serif" font-size="10.00" fill="#000000">/home/travis/build</text>
<text text-anchor="start" x="2009" y="-118.5" font-family="Helvetica,sans-Serif" font-size="10.00" fill="#000000">/AliceO2Group/AliceO2</text>
<text text-anchor="start" x="2009" y="-107.5" font-family="Helvetica,sans-Serif" font-size="10.00" fill="#000000">/Steer/DigitizerWorkflow</text>
<text text-anchor="middle" x="2073" y="-96.5" font-family="Helvetica,sans-Serif" font-size="10.00" fill="#000000">/src/MCHDigitWriterSpec.h</text>
</a>
</g>
</g>
<!-- Node89&#45;&gt;Node107 -->
<g id="edge23" class="edge">
<title>Node89&#45;&gt;Node107</title>
<path fill="none" stroke="#191970" d="M1689.6799,-193.0762C1772.7589,-183.0099 1890.6102,-166.1585 1992,-142 1994.8786,-141.3141 1997.8018,-140.5736 2000.7451,-139.7913"/>
<polygon fill="#191970" stroke="#191970" points="1689.2362,-189.6043 1679.7242,-194.2702 1690.0698,-196.5545 1689.2362,-189.6043"/>
</g>
<!-- Node108 -->
<g id="node21" class="node">
<title>Node108</title>
<g id="a_node21"><a xlink:href="../../d9/d65/MIDDigitWriterSpec_8h.html" target="_top" xlink:title="/home/travis/build\l/AliceO2Group/AliceO2\l/Steer/DigitizerWorkflow\l/src/MIDDigitWriterSpec.h">
<polygon fill="none" stroke="#000000" points="707,-89.5 707,-141.5 847,-141.5 847,-89.5 707,-89.5"/>
<text text-anchor="start" x="715" y="-129.5" font-family="Helvetica,sans-Serif" font-size="10.00" fill="#000000">/home/travis/build</text>
<text text-anchor="start" x="715" y="-118.5" font-family="Helvetica,sans-Serif" font-size="10.00" fill="#000000">/AliceO2Group/AliceO2</text>
<text text-anchor="start" x="715" y="-107.5" font-family="Helvetica,sans-Serif" font-size="10.00" fill="#000000">/Steer/DigitizerWorkflow</text>
<text text-anchor="middle" x="777" y="-96.5" font-family="Helvetica,sans-Serif" font-size="10.00" fill="#000000">/src/MIDDigitWriterSpec.h</text>
</a>
</g>
</g>
<!-- Node89&#45;&gt;Node108 -->
<g id="edge25" class="edge">
<title>Node89&#45;&gt;Node108</title>
<path fill="none" stroke="#191970" d="M1476.1517,-198.3816C1303.8648,-187.997 972.3426,-165.7266 857,-142 853.8472,-141.3514 850.6454,-140.6187 847.4265,-139.8209"/>
<polygon fill="#191970" stroke="#191970" points="1476.0635,-201.8826 1486.2553,-198.988 1476.4829,-194.8951 1476.0635,-201.8826"/>
</g>
<!-- Node109 -->
<g id="node22" class="node">
<title>Node109</title>
<g id="a_node22"><a xlink:href="../../d4/d33/PHOSDigitWriterSpec_8h.html" target="_top" xlink:title="/home/travis/build\l/AliceO2Group/AliceO2\l/Steer/DigitizerWorkflow\l/src/PHOSDigitWriterSpec.h">
<polygon fill="none" stroke="#000000" points="865.5,-89.5 865.5,-141.5 1014.5,-141.5 1014.5,-89.5 865.5,-89.5"/>
<text text-anchor="start" x="873.5" y="-129.5" font-family="Helvetica,sans-Serif" font-size="10.00" fill="#000000">/home/travis/build</text>
<text text-anchor="start" x="873.5" y="-118.5" font-family="Helvetica,sans-Serif" font-size="10.00" fill="#000000">/AliceO2Group/AliceO2</text>
<text text-anchor="start" x="873.5" y="-107.5" font-family="Helvetica,sans-Serif" font-size="10.00" fill="#000000">/Steer/DigitizerWorkflow</text>
<text text-anchor="middle" x="940" y="-96.5" font-family="Helvetica,sans-Serif" font-size="10.00" fill="#000000">/src/PHOSDigitWriterSpec.h</text>
</a>
</g>
</g>
<!-- Node89&#45;&gt;Node109 -->
<g id="edge27" class="edge">
<title>Node89&#45;&gt;Node109</title>
<path fill="none" stroke="#191970" d="M1476.3415,-198.7512C1363.1257,-191.2162 1179.4555,-174.8855 1024,-142 1021.0079,-141.367 1017.9705,-140.6712 1014.9134,-139.9263"/>
<polygon fill="#191970" stroke="#191970" points="1476.1898,-202.2487 1486.3972,-199.4096 1476.6473,-195.2636 1476.1898,-202.2487"/>
</g>
<!-- Node110 -->
<g id="node23" class="node">
<title>Node110</title>
<g id="a_node23"><a xlink:href="../../d9/d31/ZDCDigitWriterSpec_8h.html" target="_top" xlink:title="/home/travis/build\l/AliceO2Group/AliceO2\l/Steer/DigitizerWorkflow\l/src/ZDCDigitWriterSpec.h">
<polygon fill="none" stroke="#000000" points="1032.5,-89.5 1032.5,-141.5 1175.5,-141.5 1175.5,-89.5 1032.5,-89.5"/>
<text text-anchor="start" x="1040.5" y="-129.5" font-family="Helvetica,sans-Serif" font-size="10.00" fill="#000000">/home/travis/build</text>
<text text-anchor="start" x="1040.5" y="-118.5" font-family="Helvetica,sans-Serif" font-size="10.00" fill="#000000">/AliceO2Group/AliceO2</text>
<text text-anchor="start" x="1040.5" y="-107.5" font-family="Helvetica,sans-Serif" font-size="10.00" fill="#000000">/Steer/DigitizerWorkflow</text>
<text text-anchor="middle" x="1104" y="-96.5" font-family="Helvetica,sans-Serif" font-size="10.00" fill="#000000">/src/ZDCDigitWriterSpec.h</text>
</a>
</g>
</g>
<!-- Node89&#45;&gt;Node110 -->
<g id="edge29" class="edge">
<title>Node89&#45;&gt;Node110</title>
<path fill="none" stroke="#191970" d="M1476.2857,-192.4652C1395.6194,-182.2313 1282.4985,-165.4439 1185,-142 1181.979,-141.2736 1178.9085,-140.488 1175.8171,-139.6579"/>
<polygon fill="#191970" stroke="#191970" points="1476.0959,-195.9687 1486.4541,-193.7423 1476.9683,-189.0233 1476.0959,-195.9687"/>
</g>
<!-- Node101 -->
<g id="node14" class="node">
<title>Node101</title>
<g id="a_node14"><a xlink:href="../../d2/dd7/SimpleDigitizerWorkflow_8cxx.html" target="_top" xlink:title="/home/travis/build\l/AliceO2Group/AliceO2\l/Steer/DigitizerWorkflow\l/src/SimpleDigitizerWorkflow.cxx">
<polygon fill="none" stroke="#000000" points="1336,-.5 1336,-52.5 1512,-52.5 1512,-.5 1336,-.5"/>
<text text-anchor="start" x="1344" y="-40.5" font-family="Helvetica,sans-Serif" font-size="10.00" fill="#000000">/home/travis/build</text>
<text text-anchor="start" x="1344" y="-29.5" font-family="Helvetica,sans-Serif" font-size="10.00" fill="#000000">/AliceO2Group/AliceO2</text>
<text text-anchor="start" x="1344" y="-18.5" font-family="Helvetica,sans-Serif" font-size="10.00" fill="#000000">/Steer/DigitizerWorkflow</text>
<text text-anchor="middle" x="1424" y="-7.5" font-family="Helvetica,sans-Serif" font-size="10.00" fill="#000000">/src/SimpleDigitizerWorkflow.cxx</text>
</a>
</g>
</g>
<!-- Node100&#45;&gt;Node101 -->
<g id="edge13" class="edge">
<title>Node100&#45;&gt;Node101</title>
<path fill="none" stroke="#191970" d="M1320.122,-84.2821C1338.7718,-73.9082 1359.3275,-62.4741 1377.197,-52.5341"/>
<polygon fill="#191970" stroke="#191970" points="1318.1775,-81.3587 1311.1399,-89.2784 1321.5803,-87.476 1318.1775,-81.3587"/>
</g>
<!-- Node103&#45;&gt;Node101 -->
<g id="edge16" class="edge">
<title>Node103&#45;&gt;Node101</title>
<path fill="none" stroke="#191970" d="M1424,-79.1155C1424,-70.2061 1424,-60.8475 1424,-52.5341"/>
<polygon fill="#191970" stroke="#191970" points="1420.5001,-79.2784 1424,-89.2784 1427.5001,-79.2785 1420.5001,-79.2784"/>
</g>
<!-- Node104&#45;&gt;Node101 -->
<g id="edge18" class="edge">
<title>Node104&#45;&gt;Node101</title>
<path fill="none" stroke="#191970" d="M1527.2288,-84.2821C1508.6955,-73.9082 1488.2682,-62.4741 1470.5104,-52.5341"/>
<polygon fill="#191970" stroke="#191970" points="1525.7192,-87.4481 1536.1547,-89.2784 1529.1383,-81.3399 1525.7192,-87.4481"/>
</g>
<!-- Node105&#45;&gt;Node101 -->
<g id="edge20" class="edge">
<title>Node105&#45;&gt;Node101</title>
<path fill="none" stroke="#191970" d="M1661.0221,-88.7724C1606.5244,-72.6465 1554.7342,-58.9711 1512.2715,-48.1834"/>
<polygon fill="#191970" stroke="#191970" points="1660.2833,-92.2042 1670.8663,-91.7035 1662.2809,-85.4953 1660.2833,-92.2042"/>
</g>
<!-- Node106&#45;&gt;Node101 -->
<g id="edge22" class="edge">
<title>Node106&#45;&gt;Node101</title>
<path fill="none" stroke="#191970" d="M1818.8,-88.8433C1708.2806,-63.7307 1590.7271,-46.7418 1512.3788,-36.785"/>
<polygon fill="#191970" stroke="#191970" points="1818.2563,-92.3096 1828.7863,-91.1394 1819.8248,-85.4876 1818.2563,-92.3096"/>
</g>
<!-- Node107&#45;&gt;Node101 -->
<g id="edge24" class="edge">
<title>Node107&#45;&gt;Node101</title>
<path fill="none" stroke="#191970" d="M1990.9569,-88.9501C1817.3501,-52.2592 1622.8994,-36.9152 1512.4794,-30.57"/>
<polygon fill="#191970" stroke="#191970" points="1990.2689,-92.382 2000.7802,-91.054 1991.735,-85.5373 1990.2689,-92.382"/>
</g>
<!-- Node108&#45;&gt;Node101 -->
<g id="edge26" class="edge">
<title>Node108&#45;&gt;Node101</title>
<path fill="none" stroke="#191970" d="M856.6916,-89.0675C856.7945,-89.0449 856.8973,-89.0224 857,-89 1023.9062,-52.5815 1223.3233,-36.8649 1335.6551,-30.4867"/>
<polygon fill="#191970" stroke="#191970" points="855.9182,-85.6537 847.0081,-91.3861 857.5483,-92.4612 855.9182,-85.6537"/>
</g>
<!-- Node109&#45;&gt;Node101 -->
<g id="edge28" class="edge">
<title>Node109&#45;&gt;Node101</title>
<path fill="none" stroke="#191970" d="M1024.7518,-88.9594C1137.0727,-63.1371 1256.641,-46.1802 1335.873,-36.3963"/>
<polygon fill="#191970" stroke="#191970" points="1023.8971,-85.5647 1014.9504,-91.2399 1025.4834,-92.3826 1023.8971,-85.5647"/>
</g>
<!-- Node110&#45;&gt;Node101 -->
<g id="edge30" class="edge">
<title>Node110&#45;&gt;Node101</title>
<path fill="none" stroke="#191970" d="M1185.5335,-88.9016C1240.776,-72.7891 1293.1485,-59.0298 1335.9621,-48.1689"/>
<polygon fill="#191970" stroke="#191970" points="1184.5292,-85.5487 1175.9184,-91.7216 1186.4992,-92.2658 1184.5292,-85.5487"/>
</g>
</g>
</svg>
        <g id="navigator" transform="translate(0 0)" fill="#404254">
                <rect fill="#f2f5e9" fill-opacity="0.5" stroke="#606060" stroke-width=".5" x="0" y="0" width="60" height="60"/>
                <use id="zoomplus" xlink:href="#zoomPlus" x="17" y="9" onmousedown="handleZoom(evt,'in')"/>
                <use id="zoomminus" xlink:href="#zoomMin" x="42" y="9" onmousedown="handleZoom(evt,'out')"/>
                <use id="reset" xlink:href="#resetDef" x="30" y="36" onmousedown="handleReset()"/>
                <g id="arrowUp" xlink:href="#dirArrow" transform="translate(30 24)" onmousedown="handlePan(0,-1)">
                  <use xlink:href="#rim" fill="#404040">
                        <set attributeName="fill" to="#808080" begin="arrowUp.mouseover" end="arrowUp.mouseout"/>
                  </use>
                  <path fill="none" stroke="white" stroke-width="1.5" d="M0,-3.0v7 M-2.5,-0.5L0,-3.0L2.5,-0.5"/>
                </g>
                <g id="arrowRight" xlink:href="#dirArrow" transform="rotate(90) translate(36 -43)" onmousedown="handlePan(1,0)">
                  <use xlink:href="#rim" fill="#404040">
                        <set attributeName="fill" to="#808080" begin="arrowRight.mouseover" end="arrowRight.mouseout"/>
                  </use>
                  <path fill="none" stroke="white" stroke-width="1.5" d="M0,-3.0v7 M-2.5,-0.5L0,-3.0L2.5,-0.5"/>
                </g>
                <g id="arrowDown" xlink:href="#dirArrow" transform="rotate(180) translate(-30 -48)" onmousedown="handlePan(0,1)">
                  <use xlink:href="#rim" fill="#404040">
                        <set attributeName="fill" to="#808080" begin="arrowDown.mouseover" end="arrowDown.mouseout"/>
                  </use>
                  <path fill="none" stroke="white" stroke-width="1.5" d="M0,-3.0v7 M-2.5,-0.5L0,-3.0L2.5,-0.5"/>
                </g>
                <g id="arrowLeft" xlink:href="#dirArrow" transform="rotate(270) translate(-36 17)" onmousedown="handlePan(-1,0)">
                  <use xlink:href="#rim" fill="#404040">
                        <set attributeName="fill" to="#808080" begin="arrowLeft.mouseover" end="arrowLeft.mouseout"/>
                  </use>
                  <path fill="none" stroke="white" stroke-width="1.5" d="M0,-3.0v7 M-2.5,-0.5L0,-3.0L2.5,-0.5"/>
                </g>
        </g>
        <svg viewBox="0 0 15 15" width="100%" height="30px" preserveAspectRatio="xMaxYMin meet">
         <g id="arrow_out" transform="scale(0.3 0.3)">
          <a xlink:href="RootTreeWriter_8h__dep__incl_org.svg" target="_base">
           <rect id="button" ry="5" rx="5" y="6" x="6" height="38" width="38"
                fill="#f2f5e9" fill-opacity="0.5" stroke="#606060" stroke-width="1.0"/>
           <path id="arrow"
             d="M 11.500037,31.436501 C 11.940474,20.09759 22.043105,11.32322 32.158766,21.979434 L 37.068811,17.246167 C 37.068811,17.246167 37.088388,32 37.088388,32 L 22.160133,31.978069 C 22.160133,31.978069 26.997745,27.140456 26.997745,27.140456 C 18.528582,18.264221 13.291696,25.230495 11.500037,31.436501 z"
             style="fill:#404040;"/>
          </a>
         </g>
        </svg>
</svg>
