<?xml version="1.0" encoding="UTF-8" standalone="no"?>
<!DOCTYPE svg PUBLIC "-//W3C//DTD SVG 1.1//EN"
 "http://www.w3.org/Graphics/SVG/1.1/DTD/svg11.dtd">
<!-- Generated by graphviz version 2.40.1 (20161225.0304)
 -->
<!-- Title: GPUCA_NAMESPACE::gpu::CfUtils Pages: 1 -->
<svg width="312pt" height="347pt"
 viewBox="0.00 0.00 312.00 347.00" xmlns="http://www.w3.org/2000/svg" xmlns:xlink="http://www.w3.org/1999/xlink">
<g id="graph0" class="graph" transform="scale(1 1) rotate(0) translate(4 343)">
<title>GPUCA_NAMESPACE::gpu::CfUtils</title>
<!-- Node1 -->
<g id="node1" class="node">
<title>Node1</title>
<polygon fill="#bfbfbf" stroke="#000000" points="45,-.5 45,-145.5 185,-145.5 185,-.5 45,-.5"/>
<text text-anchor="start" x="53" y="-133.5" font-family="Helvetica,sans-Serif" font-size="10.00" fill="#000000">GPUCA_NAMESPACE::gpu</text>
<text text-anchor="middle" x="115" y="-122.5" font-family="Helvetica,sans-Serif" font-size="10.00" fill="#000000">::CfUtils</text>
<polyline fill="none" stroke="#000000" points="45,-115.5 185,-115.5 "/>
<text text-anchor="middle" x="115" y="-103.5" font-family="Helvetica,sans-Serif" font-size="10.00" fill="#000000"> </text>
<polyline fill="none" stroke="#000000" points="45,-96.5 185,-96.5 "/>
<text text-anchor="start" x="53" y="-84.5" font-family="Helvetica,sans-Serif" font-size="10.00" fill="#000000">+ GPUconstexprref()</text>
<text text-anchor="start" x="53" y="-73.5" font-family="Helvetica,sans-Serif" font-size="10.00" fill="#000000">+ GPUconstexprref()</text>
<text text-anchor="start" x="53" y="-62.5" font-family="Helvetica,sans-Serif" font-size="10.00" fill="#000000">+ GPUdi()</text>
<text text-anchor="start" x="53" y="-51.5" font-family="Helvetica,sans-Serif" font-size="10.00" fill="#000000">+ GPUdi()</text>
<text text-anchor="start" x="53" y="-40.5" font-family="Helvetica,sans-Serif" font-size="10.00" fill="#000000">+ GPUdi()</text>
<text text-anchor="start" x="53" y="-29.5" font-family="Helvetica,sans-Serif" font-size="10.00" fill="#000000">+ GPUdi()</text>
<text text-anchor="start" x="53" y="-18.5" font-family="Helvetica,sans-Serif" font-size="10.00" fill="#000000">+ GPUdi()</text>
<text text-anchor="start" x="53" y="-7.5" font-family="Helvetica,sans-Serif" font-size="10.00" fill="#000000">+ GPUdi()</text>
</g>
<!-- Node2 -->
<g id="node2" class="node">
<title>Node2</title>
<polygon fill="none" stroke="#bfbfbf" points="0,-281.5 0,-338.5 46,-338.5 46,-281.5 0,-281.5"/>
<text text-anchor="middle" x="23" y="-326.5" font-family="Helvetica,sans-Serif" font-size="10.00" fill="#000000">return</text>
<polyline fill="none" stroke="#bfbfbf" points="0,-319.5 46,-319.5 "/>
<text text-anchor="middle" x="23" y="-307.5" font-family="Helvetica,sans-Serif" font-size="10.00" fill="#000000"> </text>
<polyline fill="none" stroke="#bfbfbf" points="0,-300.5 46,-300.5 "/>
<text text-anchor="middle" x="23" y="-288.5" font-family="Helvetica,sans-Serif" font-size="10.00" fill="#000000"> </text>
</g>
<!-- Node2&#45;&gt;Node1 -->
<g id="edge1" class="edge">
<title>Node2&#45;&gt;Node1</title>
<path fill="none" stroke="#404040" d="M24.9223,-281.25C27.7538,-251.0304 34.6212,-202.6094 51,-164 52.0572,-161.5079 53.1905,-159.0159 54.3883,-156.5315"/>
<polygon fill="none" stroke="#404040" points="54.4798,-156.3556 53.7005,-149.1867 60.0183,-145.7101 60.7975,-152.879 54.4798,-156.3556"/>
<text text-anchor="middle" x="65.5" y="-211" font-family="Helvetica,sans-Serif" font-size="10.00" fill="#000000"> +pos</text>
</g>
<!-- Node3 -->
<g id="node3" class="node">
<title>Node3</title>
<polygon fill="none" stroke="#bfbfbf" points="64.5,-281.5 64.5,-338.5 111.5,-338.5 111.5,-281.5 64.5,-281.5"/>
<text text-anchor="middle" x="88" y="-326.5" font-family="Helvetica,sans-Serif" font-size="10.00" fill="#000000">ushort</text>
<polyline fill="none" stroke="#bfbfbf" points="64.5,-319.5 111.5,-319.5 "/>
<text text-anchor="middle" x="88" y="-307.5" font-family="Helvetica,sans-Serif" font-size="10.00" fill="#000000"> </text>
<polyline fill="none" stroke="#bfbfbf" points="64.5,-300.5 111.5,-300.5 "/>
<text text-anchor="middle" x="88" y="-288.5" font-family="Helvetica,sans-Serif" font-size="10.00" fill="#000000"> </text>
</g>
<!-- Node3&#45;&gt;Node1 -->
<g id="edge2" class="edge">
<title>Node3&#45;&gt;Node1</title>
<path fill="none" stroke="#404040" d="M85.9153,-281.2938C84.3007,-251.7277 83.2012,-204.3959 89,-164 89.3104,-161.8374 89.6588,-159.6539 90.0402,-157.4576"/>
<polygon fill="none" stroke="#404040" points="90.0498,-157.4087 87.2847,-150.7488 92.3689,-145.6349 95.1339,-152.2949 90.0498,-157.4087"/>
<text text-anchor="middle" x="105" y="-222" font-family="Helvetica,sans-Serif" font-size="10.00" fill="#000000"> +lpos</text>
<text text-anchor="middle" x="105" y="-211" font-family="Helvetica,sans-Serif" font-size="10.00" fill="#000000">+pos</text>
<text text-anchor="middle" x="105" y="-200" font-family="Helvetica,sans-Serif" font-size="10.00" fill="#000000">+part</text>
</g>
<!-- Node4 -->
<g id="node4" class="node">
<title>Node4</title>
<polygon fill="none" stroke="#bfbfbf" points="129.5,-281.5 129.5,-338.5 158.5,-338.5 158.5,-281.5 129.5,-281.5"/>
<text text-anchor="middle" x="144" y="-326.5" font-family="Helvetica,sans-Serif" font-size="10.00" fill="#000000">*</text>
<polyline fill="none" stroke="#bfbfbf" points="129.5,-319.5 158.5,-319.5 "/>
<text text-anchor="middle" x="144" y="-307.5" font-family="Helvetica,sans-Serif" font-size="10.00" fill="#000000"> </text>
<polyline fill="none" stroke="#bfbfbf" points="129.5,-300.5 158.5,-300.5 "/>
<text text-anchor="middle" x="144" y="-288.5" font-family="Helvetica,sans-Serif" font-size="10.00" fill="#000000"> </text>
</g>
<!-- Node4&#45;&gt;Node1 -->
<g id="edge3" class="edge">
<title>Node4&#45;&gt;Node1</title>
<path fill="none" stroke="#404040" d="M140.5019,-281.4123C136.7634,-250.8591 130.6576,-200.9606 125.3578,-157.6483"/>
<polygon fill="none" stroke="#404040" points="125.3446,-157.5394 120.6454,-152.0697 123.887,-145.6282 128.5862,-151.098 125.3446,-157.5394"/>
<text text-anchor="middle" x="172.5" y="-211" font-family="Helvetica,sans-Serif" font-size="10.00" fill="#000000"> +newPartSize</text>
</g>
<!-- Node5 -->
<g id="node5" class="node">
<title>Node5</title>
<polygon fill="none" stroke="#bfbfbf" points="215,-281.5 215,-338.5 259,-338.5 259,-281.5 215,-281.5"/>
<text text-anchor="middle" x="237" y="-326.5" font-family="Helvetica,sans-Serif" font-size="10.00" fill="#000000">static</text>
<polyline fill="none" stroke="#bfbfbf" points="215,-319.5 259,-319.5 "/>
<text text-anchor="middle" x="237" y="-307.5" font-family="Helvetica,sans-Serif" font-size="10.00" fill="#000000"> </text>
<polyline fill="none" stroke="#bfbfbf" points="215,-300.5 259,-300.5 "/>
<text text-anchor="middle" x="237" y="-288.5" font-family="Helvetica,sans-Serif" font-size="10.00" fill="#000000"> </text>
</g>
<!-- Node5&#45;&gt;Node1 -->
<g id="edge4" class="edge">
<title>Node5&#45;&gt;Node1</title>
<path fill="none" stroke="#404040" d="M237.3743,-281.3761C236.6181,-250.6152 231.9765,-201.1433 212,-164 206.8595,-154.4419 200.3369,-145.3262 193.1131,-136.8124"/>
<polygon fill="none" stroke="#404040" points="193.0517,-136.7441 186.0662,-134.9545 185.0314,-127.818 192.017,-129.6077 193.0517,-136.7441"/>
<text text-anchor="middle" x="270" y="-255" font-family="Helvetica,sans-Serif" font-size="10.00" fill="#000000"> +outerIdx</text>
<text text-anchor="middle" x="270" y="-244" font-family="Helvetica,sans-Serif" font-size="10.00" fill="#000000">+N</text>
<text text-anchor="middle" x="270" y="-233" font-family="Helvetica,sans-Serif" font-size="10.00" fill="#000000">+newPartSize</text>
<text text-anchor="middle" x="270" y="-222" font-family="Helvetica,sans-Serif" font-size="10.00" fill="#000000">+elems</text>
<text text-anchor="middle" x="270" y="-211" font-family="Helvetica,sans-Serif" font-size="10.00" fill="#000000">+ll</text>
<text text-anchor="middle" x="270" y="-200" font-family="Helvetica,sans-Serif" font-size="10.00" fill="#000000">+pred</text>
<text text-anchor="middle" x="270" y="-189" font-family="Helvetica,sans-Serif" font-size="10.00" fill="#000000">+offset</text>
<text text-anchor="middle" x="270" y="-178" font-family="Helvetica,sans-Serif" font-size="10.00" fill="#000000">+wgSize</text>
<text text-anchor="middle" x="270" y="-167" font-family="Helvetica,sans-Serif" font-size="10.00" fill="#000000">+partSize</text>
</g>
</g>
</svg>
