<?xml version="1.0" encoding="UTF-8" standalone="no"?>
<!DOCTYPE svg PUBLIC "-//W3C//DTD SVG 1.1//EN"
 "http://www.w3.org/Graphics/SVG/1.1/DTD/svg11.dtd">
<!-- Generated by graphviz version 2.40.1 (20161225.0304)
 -->
<!-- Title: /home/travis/build/AliceO2Group/AliceO2/Framework/Utils/include/DPLUtils/MakeRootTreeWriterSpec.h Pages: 1 -->
<!--zoomable 239 -->
<svg id="main" version="1.1" xmlns="http://www.w3.org/2000/svg" xmlns:xlink="http://www.w3.org/1999/xlink" xml:space="preserve" onload="init(evt)">
<style type="text/css"><![CDATA[
.edge:hover path { stroke: red; }
.edge:hover polygon { stroke: red; fill: red; }
]]></style>
<script type="text/javascript"><![CDATA[
var edges = document.getElementsByTagName('g');
if (edges && edges.length) {
  for (var i=0;i<edges.length;i++) {
    if (edges[i].id.substr(0,4)=='edge') {
      edges[i].setAttribute('class','edge');
    }
  }
}
]]></script>
        <defs>
                <circle id="rim" cx="0" cy="0" r="7"/>
                <circle id="rim2" cx="0" cy="0" r="3.5"/>
                <g id="zoomPlus">
                        <use xlink:href="#rim" fill="#404040">
                                <set attributeName="fill" to="#808080" begin="zoomplus.mouseover" end="zoomplus.mouseout"/>
                        </use>
                        <path d="M-4,0h8M0,-4v8" fill="none" stroke="white" stroke-width="1.5" pointer-events="none"/>
                </g>
                <g id="zoomMin">
                        <use xlink:href="#rim" fill="#404040">
                                <set attributeName="fill" to="#808080" begin="zoomminus.mouseover" end="zoomminus.mouseout"/>
                        </use>
                        <path d="M-4,0h8" fill="none" stroke="white" stroke-width="1.5" pointer-events="none"/>
                </g>
                <g id="dirArrow">
                        <path fill="none" stroke="white" stroke-width="1.5" d="M0,-3.0v7 M-2.5,-0.5L0,-3.0L2.5,-0.5"/>
                </g>
               <g id="resetDef">
                       <use xlink:href="#rim2" fill="#404040">
                               <set attributeName="fill" to="#808080" begin="reset.mouseover" end="reset.mouseout"/>
                       </use>
               </g>
        </defs>

<script type="text/javascript">
var viewWidth = 3353;
var viewHeight = 239;
var sectionId = 'dynsection-1';
</script>
<script xlink:href="../../svgpan.js"/>
<svg id="graph" class="graph">
<g id="viewport">
<title>/home/travis/build/AliceO2Group/AliceO2/Framework/Utils/include/DPLUtils/MakeRootTreeWriterSpec.h</title>
<!-- Node131 -->
<g id="node1" class="node">
<title>Node131</title>
<polygon fill="#bfbfbf" stroke="#000000" points="1608,-178.5 1608,-230.5 1801,-230.5 1801,-178.5 1608,-178.5"/>
<text text-anchor="start" x="1616" y="-218.5" font-family="Helvetica,sans-Serif" font-size="10.00" fill="#000000">/home/travis/build</text>
<text text-anchor="start" x="1616" y="-207.5" font-family="Helvetica,sans-Serif" font-size="10.00" fill="#000000">/AliceO2Group/AliceO2</text>
<text text-anchor="start" x="1616" y="-196.5" font-family="Helvetica,sans-Serif" font-size="10.00" fill="#000000">/Framework/Utils/include</text>
<text text-anchor="middle" x="1704.5" y="-185.5" font-family="Helvetica,sans-Serif" font-size="10.00" fill="#000000">/DPLUtils/MakeRootTreeWriterSpec.h</text>
</g>
<!-- Node132 -->
<g id="node2" class="node">
<title>Node132</title>
<g id="a_node2"><a xlink:href="../../dd/d16/CPV_2workflow_2src_2RecoWorkflow_8cxx.html" target="_top" xlink:title="/home/travis/build\l/AliceO2Group/AliceO2\l/Detectors/CPV/workflow\l/src/RecoWorkflow.cxx">
<polygon fill="none" stroke="#000000" points="0,-89.5 0,-141.5 137,-141.5 137,-89.5 0,-89.5"/>
<text text-anchor="start" x="8" y="-129.5" font-family="Helvetica,sans-Serif" font-size="10.00" fill="#000000">/home/travis/build</text>
<text text-anchor="start" x="8" y="-118.5" font-family="Helvetica,sans-Serif" font-size="10.00" fill="#000000">/AliceO2Group/AliceO2</text>
<text text-anchor="start" x="8" y="-107.5" font-family="Helvetica,sans-Serif" font-size="10.00" fill="#000000">/Detectors/CPV/workflow</text>
<text text-anchor="middle" x="68.5" y="-96.5" font-family="Helvetica,sans-Serif" font-size="10.00" fill="#000000">/src/RecoWorkflow.cxx</text>
</a>
</g>
</g>
<!-- Node131&#45;&gt;Node132 -->
<g id="edge1" class="edge">
<title>Node131&#45;&gt;Node132</title>
<path fill="none" stroke="#191970" d="M1597.3905,-201.9838C1268.6745,-194.013 287.9334,-168.2924 146.5,-142 143.4066,-141.4249 140.2688,-140.753 137.1171,-140.0051"/>
<polygon fill="#191970" stroke="#191970" points="1597.7846,-205.4942 1607.8663,-202.2371 1597.9539,-198.4963 1597.7846,-205.4942"/>
</g>
<!-- Node133 -->
<g id="node3" class="node">
<title>Node133</title>
<g id="a_node3"><a xlink:href="../../d2/dbf/EMCAL_2workflow_2src_2RecoWorkflow_8cxx.html" target="_top" xlink:title="/home/travis/build\l/AliceO2Group/AliceO2\l/Detectors/EMCAL/workflow\l/src/RecoWorkflow.cxx">
<polygon fill="none" stroke="#000000" points="155.5,-89.5 155.5,-141.5 305.5,-141.5 305.5,-89.5 155.5,-89.5"/>
<text text-anchor="start" x="163.5" y="-129.5" font-family="Helvetica,sans-Serif" font-size="10.00" fill="#000000">/home/travis/build</text>
<text text-anchor="start" x="163.5" y="-118.5" font-family="Helvetica,sans-Serif" font-size="10.00" fill="#000000">/AliceO2Group/AliceO2</text>
<text text-anchor="start" x="163.5" y="-107.5" font-family="Helvetica,sans-Serif" font-size="10.00" fill="#000000">/Detectors/EMCAL/workflow</text>
<text text-anchor="middle" x="230.5" y="-96.5" font-family="Helvetica,sans-Serif" font-size="10.00" fill="#000000">/src/RecoWorkflow.cxx</text>
</a>
</g>
</g>
<!-- Node131&#45;&gt;Node133 -->
<g id="edge2" class="edge">
<title>Node131&#45;&gt;Node133</title>
<path fill="none" stroke="#191970" d="M1597.5424,-203.2889C1316.2368,-199.5283 560.4728,-185.557 314.5,-142 311.6391,-141.4934 308.7401,-140.916 305.8245,-140.2811"/>
<polygon fill="#191970" stroke="#191970" points="1597.7068,-206.7913 1607.7522,-203.4237 1597.7993,-199.7919 1597.7068,-206.7913"/>
</g>
<!-- Node134 -->
<g id="node4" class="node">
<title>Node134</title>
<g id="a_node4"><a xlink:href="../../d2/de0/MUON_2MID_2Workflow_2src_2RecoWorkflow_8cxx.html" target="_top" xlink:title="Definition of MID reconstruction workflow. ">
<polygon fill="none" stroke="#000000" points="323.5,-89.5 323.5,-141.5 493.5,-141.5 493.5,-89.5 323.5,-89.5"/>
<text text-anchor="start" x="331.5" y="-129.5" font-family="Helvetica,sans-Serif" font-size="10.00" fill="#000000">/home/travis/build</text>
<text text-anchor="start" x="331.5" y="-118.5" font-family="Helvetica,sans-Serif" font-size="10.00" fill="#000000">/AliceO2Group/AliceO2</text>
<text text-anchor="start" x="331.5" y="-107.5" font-family="Helvetica,sans-Serif" font-size="10.00" fill="#000000">/Detectors/MUON/MID/Workflow</text>
<text text-anchor="middle" x="408.5" y="-96.5" font-family="Helvetica,sans-Serif" font-size="10.00" fill="#000000">/src/RecoWorkflow.cxx</text>
</a>
</g>
</g>
<!-- Node131&#45;&gt;Node134 -->
<g id="edge3" class="edge">
<title>Node131&#45;&gt;Node134</title>
<path fill="none" stroke="#191970" d="M1597.4839,-201.9905C1343.8073,-195.5483 711.5809,-176.464 502.5,-142 499.5723,-141.5174 496.6056,-140.977 493.6189,-140.3888"/>
<polygon fill="#191970" stroke="#191970" points="1597.7273,-205.4977 1607.8125,-202.2512 1597.904,-198.4999 1597.7273,-205.4977"/>
</g>
<!-- Node135 -->
<g id="node5" class="node">
<title>Node135</title>
<g id="a_node5"><a xlink:href="../../dd/d65/RecoWorkflowMC_8cxx.html" target="_top" xlink:title="Definition of MID reconstruction workflow for MC. ">
<polygon fill="none" stroke="#000000" points="511.5,-89.5 511.5,-141.5 681.5,-141.5 681.5,-89.5 511.5,-89.5"/>
<text text-anchor="start" x="519.5" y="-129.5" font-family="Helvetica,sans-Serif" font-size="10.00" fill="#000000">/home/travis/build</text>
<text text-anchor="start" x="519.5" y="-118.5" font-family="Helvetica,sans-Serif" font-size="10.00" fill="#000000">/AliceO2Group/AliceO2</text>
<text text-anchor="start" x="519.5" y="-107.5" font-family="Helvetica,sans-Serif" font-size="10.00" fill="#000000">/Detectors/MUON/MID/Workflow</text>
<text text-anchor="middle" x="596.5" y="-96.5" font-family="Helvetica,sans-Serif" font-size="10.00" fill="#000000">/src/RecoWorkflowMC.cxx</text>
</a>
</g>
</g>
<!-- Node131&#45;&gt;Node135 -->
<g id="edge4" class="edge">
<title>Node131&#45;&gt;Node135</title>
<path fill="none" stroke="#191970" d="M1597.8857,-200.8093C1374.2284,-192.5953 862.5047,-171.2021 690.5,-142 687.5746,-141.5033 684.61,-140.9508 681.625,-140.3522"/>
<polygon fill="#191970" stroke="#191970" points="1597.8705,-204.3109 1607.9917,-201.1786 1598.1262,-197.3156 1597.8705,-204.3109"/>
</g>
<!-- Node136 -->
<g id="node6" class="node">
<title>Node136</title>
<g id="a_node6"><a xlink:href="../../d8/d7e/PHOS_2workflow_2src_2RecoWorkflow_8cxx.html" target="_top" xlink:title="/home/travis/build\l/AliceO2Group/AliceO2\l/Detectors/PHOS/workflow\l/src/RecoWorkflow.cxx">
<polygon fill="none" stroke="#000000" points="699.5,-89.5 699.5,-141.5 843.5,-141.5 843.5,-89.5 699.5,-89.5"/>
<text text-anchor="start" x="707.5" y="-129.5" font-family="Helvetica,sans-Serif" font-size="10.00" fill="#000000">/home/travis/build</text>
<text text-anchor="start" x="707.5" y="-118.5" font-family="Helvetica,sans-Serif" font-size="10.00" fill="#000000">/AliceO2Group/AliceO2</text>
<text text-anchor="start" x="707.5" y="-107.5" font-family="Helvetica,sans-Serif" font-size="10.00" fill="#000000">/Detectors/PHOS/workflow</text>
<text text-anchor="middle" x="771.5" y="-96.5" font-family="Helvetica,sans-Serif" font-size="10.00" fill="#000000">/src/RecoWorkflow.cxx</text>
</a>
</g>
</g>
<!-- Node131&#45;&gt;Node136 -->
<g id="edge5" class="edge">
<title>Node131&#45;&gt;Node136</title>
<path fill="none" stroke="#191970" d="M1597.6775,-199.9046C1401.7495,-190.9381 992.2175,-169.5528 852.5,-142 849.5967,-141.4275 846.6527,-140.7826 843.692,-140.0803"/>
<polygon fill="#191970" stroke="#191970" points="1597.5522,-203.4024 1607.7011,-200.361 1597.8707,-196.4097 1597.5522,-203.4024"/>
</g>
<!-- Node137 -->
<g id="node7" class="node">
<title>Node137</title>
<g id="a_node7"><a xlink:href="../../d0/d80/TPC_2workflow_2src_2RecoWorkflow_8cxx.html" target="_top" xlink:title="/home/travis/build\l/AliceO2Group/AliceO2\l/Detectors/TPC/workflow\l/src/RecoWorkflow.cxx">
<polygon fill="none" stroke="#000000" points="861.5,-89.5 861.5,-141.5 997.5,-141.5 997.5,-89.5 861.5,-89.5"/>
<text text-anchor="start" x="869.5" y="-129.5" font-family="Helvetica,sans-Serif" font-size="10.00" fill="#000000">/home/travis/build</text>
<text text-anchor="start" x="869.5" y="-118.5" font-family="Helvetica,sans-Serif" font-size="10.00" fill="#000000">/AliceO2Group/AliceO2</text>
<text text-anchor="start" x="869.5" y="-107.5" font-family="Helvetica,sans-Serif" font-size="10.00" fill="#000000">/Detectors/TPC/workflow</text>
<text text-anchor="middle" x="929.5" y="-96.5" font-family="Helvetica,sans-Serif" font-size="10.00" fill="#000000">/src/RecoWorkflow.cxx</text>
</a>
</g>
</g>
<!-- Node131&#45;&gt;Node137 -->
<g id="edge6" class="edge">
<title>Node131&#45;&gt;Node137</title>
<path fill="none" stroke="#191970" d="M1597.4515,-198.0274C1430.821,-187.4232 1117.1572,-165.1972 1007.5,-142 1004.2818,-141.3192 1001.0122,-140.5468 997.7266,-139.7049"/>
<polygon fill="#191970" stroke="#191970" points="1597.5199,-201.5387 1607.7212,-198.6781 1597.9626,-194.5527 1597.5199,-201.5387"/>
</g>
<!-- Node138 -->
<g id="node8" class="node">
<title>Node138</title>
<g id="a_node8"><a xlink:href="../../dd/d1a/TRDDigitWriterSpec_8cxx.html" target="_top" xlink:title="/home/travis/build\l/AliceO2Group/AliceO2\l/Detectors/TRD/workflow\l/src/TRDDigitWriterSpec.cxx">
<polygon fill="none" stroke="#000000" points="1016,-89.5 1016,-141.5 1169,-141.5 1169,-89.5 1016,-89.5"/>
<text text-anchor="start" x="1024" y="-129.5" font-family="Helvetica,sans-Serif" font-size="10.00" fill="#000000">/home/travis/build</text>
<text text-anchor="start" x="1024" y="-118.5" font-family="Helvetica,sans-Serif" font-size="10.00" fill="#000000">/AliceO2Group/AliceO2</text>
<text text-anchor="start" x="1024" y="-107.5" font-family="Helvetica,sans-Serif" font-size="10.00" fill="#000000">/Detectors/TRD/workflow</text>
<text text-anchor="middle" x="1092.5" y="-96.5" font-family="Helvetica,sans-Serif" font-size="10.00" fill="#000000">/src/TRDDigitWriterSpec.cxx</text>
</a>
</g>
</g>
<!-- Node131&#45;&gt;Node138 -->
<g id="edge7" class="edge">
<title>Node131&#45;&gt;Node138</title>
<path fill="none" stroke="#191970" d="M1597.5124,-197.4785C1490.5742,-189.1312 1321.8733,-172.3472 1178.5,-142 1175.4431,-141.353 1172.3389,-140.6453 1169.2135,-139.8904"/>
<polygon fill="#191970" stroke="#191970" points="1597.4263,-200.9822 1607.6655,-198.2602 1597.9637,-194.0028 1597.4263,-200.9822"/>
</g>
<!-- Node139 -->
<g id="node9" class="node">
<title>Node139</title>
<g id="a_node9"><a xlink:href="../../d0/dfb/TRDTrackletWriterSpec_8cxx.html" target="_top" xlink:title="/home/travis/build\l/AliceO2Group/AliceO2\l/Detectors/TRD/workflow\l/src/TRDTrackletWriterSpec.cxx">
<polygon fill="none" stroke="#000000" points="1187.5,-89.5 1187.5,-141.5 1355.5,-141.5 1355.5,-89.5 1187.5,-89.5"/>
<text text-anchor="start" x="1195.5" y="-129.5" font-family="Helvetica,sans-Serif" font-size="10.00" fill="#000000">/home/travis/build</text>
<text text-anchor="start" x="1195.5" y="-118.5" font-family="Helvetica,sans-Serif" font-size="10.00" fill="#000000">/AliceO2Group/AliceO2</text>
<text text-anchor="start" x="1195.5" y="-107.5" font-family="Helvetica,sans-Serif" font-size="10.00" fill="#000000">/Detectors/TRD/workflow</text>
<text text-anchor="middle" x="1271.5" y="-96.5" font-family="Helvetica,sans-Serif" font-size="10.00" fill="#000000">/src/TRDTrackletWriterSpec.cxx</text>
</a>
</g>
</g>
<!-- Node131&#45;&gt;Node139 -->
<g id="edge8" class="edge">
<title>Node131&#45;&gt;Node139</title>
<path fill="none" stroke="#191970" d="M1597.8116,-187.5866C1530.5445,-176.2577 1442.0439,-160.1312 1364.5,-142 1361.5574,-141.312 1358.5689,-140.5897 1355.5554,-139.8414"/>
<polygon fill="#191970" stroke="#191970" points="1597.5579,-191.0928 1607.9988,-189.293 1598.7144,-184.189 1597.5579,-191.0928"/>
</g>
<!-- Node140 -->
<g id="node10" class="node">
<title>Node140</title>
<g id="a_node10"><a xlink:href="../../da/dcf/test__RootTreeWriter_8cxx.html" target="_top" xlink:title="/home/travis/build\l/AliceO2Group/AliceO2\l/Framework/Utils/test\l/test_RootTreeWriter.cxx">
<polygon fill="none" stroke="#000000" points="1373.5,-89.5 1373.5,-141.5 1507.5,-141.5 1507.5,-89.5 1373.5,-89.5"/>
<text text-anchor="start" x="1381.5" y="-129.5" font-family="Helvetica,sans-Serif" font-size="10.00" fill="#000000">/home/travis/build</text>
<text text-anchor="start" x="1381.5" y="-118.5" font-family="Helvetica,sans-Serif" font-size="10.00" fill="#000000">/AliceO2Group/AliceO2</text>
<text text-anchor="start" x="1381.5" y="-107.5" font-family="Helvetica,sans-Serif" font-size="10.00" fill="#000000">/Framework/Utils/test</text>
<text text-anchor="middle" x="1440.5" y="-96.5" font-family="Helvetica,sans-Serif" font-size="10.00" fill="#000000">/test_RootTreeWriter.cxx</text>
</a>
</g>
</g>
<!-- Node131&#45;&gt;Node140 -->
<g id="edge9" class="edge">
<title>Node131&#45;&gt;Node140</title>
<path fill="none" stroke="#191970" d="M1616.2007,-175.1676C1584.9964,-164.7543 1549.6684,-152.911 1517.5,-142 1514.2868,-140.9101 1510.9993,-139.7917 1507.6797,-138.6596"/>
<polygon fill="#191970" stroke="#191970" points="1615.1507,-178.5069 1625.7444,-178.3508 1617.3656,-171.8665 1615.1507,-178.5069"/>
</g>
<!-- Node141 -->
<g id="node11" class="node">
<title>Node141</title>
<g id="a_node11"><a xlink:href="../../d1/d02/test__RootTreeWriterWorkflow_8cxx.html" target="_top" xlink:title="/home/travis/build\l/AliceO2Group/AliceO2\l/Framework/Utils/test\l/test_RootTreeWriterWorkflow.cxx">
<polygon fill="none" stroke="#000000" points="1526,-89.5 1526,-141.5 1705,-141.5 1705,-89.5 1526,-89.5"/>
<text text-anchor="start" x="1534" y="-129.5" font-family="Helvetica,sans-Serif" font-size="10.00" fill="#000000">/home/travis/build</text>
<text text-anchor="start" x="1534" y="-118.5" font-family="Helvetica,sans-Serif" font-size="10.00" fill="#000000">/AliceO2Group/AliceO2</text>
<text text-anchor="start" x="1534" y="-107.5" font-family="Helvetica,sans-Serif" font-size="10.00" fill="#000000">/Framework/Utils/test</text>
<text text-anchor="middle" x="1615.5" y="-96.5" font-family="Helvetica,sans-Serif" font-size="10.00" fill="#000000">/test_RootTreeWriterWorkflow.cxx</text>
</a>
</g>
</g>
<!-- Node131&#45;&gt;Node141 -->
<g id="edge10" class="edge">
<title>Node131&#45;&gt;Node141</title>
<path fill="none" stroke="#191970" d="M1671.0029,-171.0029C1661.2529,-161.2529 1650.7511,-150.7511 1641.5341,-141.5341"/>
<polygon fill="#191970" stroke="#191970" points="1668.7325,-173.6822 1678.2784,-178.2784 1673.6822,-168.7325 1668.7325,-173.6822"/>
</g>
<!-- Node142 -->
<g id="node12" class="node">
<title>Node142</title>
<g id="a_node12"><a xlink:href="../../d1/dc0/CPVDigitWriterSpec_8h.html" target="_top" xlink:title="/home/travis/build\l/AliceO2Group/AliceO2\l/Steer/DigitizerWorkflow\l/src/CPVDigitWriterSpec.h">
<polygon fill="none" stroke="#000000" points="1723,-89.5 1723,-141.5 1864,-141.5 1864,-89.5 1723,-89.5"/>
<text text-anchor="start" x="1731" y="-129.5" font-family="Helvetica,sans-Serif" font-size="10.00" fill="#000000">/home/travis/build</text>
<text text-anchor="start" x="1731" y="-118.5" font-family="Helvetica,sans-Serif" font-size="10.00" fill="#000000">/AliceO2Group/AliceO2</text>
<text text-anchor="start" x="1731" y="-107.5" font-family="Helvetica,sans-Serif" font-size="10.00" fill="#000000">/Steer/DigitizerWorkflow</text>
<text text-anchor="middle" x="1793.5" y="-96.5" font-family="Helvetica,sans-Serif" font-size="10.00" fill="#000000">/src/CPVDigitWriterSpec.h</text>
</a>
</g>
</g>
<!-- Node131&#45;&gt;Node142 -->
<g id="edge11" class="edge">
<title>Node131&#45;&gt;Node142</title>
<path fill="none" stroke="#191970" d="M1737.9971,-171.0029C1747.7471,-161.2529 1758.2489,-150.7511 1767.4659,-141.5341"/>
<polygon fill="#191970" stroke="#191970" points="1735.3178,-168.7325 1730.7216,-178.2784 1740.2675,-173.6822 1735.3178,-168.7325"/>
</g>
<!-- Node144 -->
<g id="node14" class="node">
<title>Node144</title>
<g id="a_node14"><a xlink:href="../../d9/db2/EMCALDigitWriterSpec_8cxx.html" target="_top" xlink:title="/home/travis/build\l/AliceO2Group/AliceO2\l/Steer/DigitizerWorkflow\l/src/EMCALDigitWriterSpec.cxx">
<polygon fill="none" stroke="#000000" points="1882.5,-89.5 1882.5,-141.5 2048.5,-141.5 2048.5,-89.5 1882.5,-89.5"/>
<text text-anchor="start" x="1890.5" y="-129.5" font-family="Helvetica,sans-Serif" font-size="10.00" fill="#000000">/home/travis/build</text>
<text text-anchor="start" x="1890.5" y="-118.5" font-family="Helvetica,sans-Serif" font-size="10.00" fill="#000000">/AliceO2Group/AliceO2</text>
<text text-anchor="start" x="1890.5" y="-107.5" font-family="Helvetica,sans-Serif" font-size="10.00" fill="#000000">/Steer/DigitizerWorkflow</text>
<text text-anchor="middle" x="1965.5" y="-96.5" font-family="Helvetica,sans-Serif" font-size="10.00" fill="#000000">/src/EMCALDigitWriterSpec.cxx</text>
</a>
</g>
</g>
<!-- Node131&#45;&gt;Node144 -->
<g id="edge13" class="edge">
<title>Node131&#45;&gt;Node144</title>
<path fill="none" stroke="#191970" d="M1790.7525,-175.0882C1822.4728,-164.2717 1858.1491,-152.1062 1888.9563,-141.6011"/>
<polygon fill="#191970" stroke="#191970" points="1789.3803,-171.8582 1781.0451,-178.3984 1791.6396,-178.4836 1789.3803,-171.8582"/>
</g>
<!-- Node145 -->
<g id="node15" class="node">
<title>Node145</title>
<g id="a_node15"><a xlink:href="../../d8/dcd/FDDDigitWriterSpec_8h.html" target="_top" xlink:title="/home/travis/build\l/AliceO2Group/AliceO2\l/Steer/DigitizerWorkflow\l/src/FDDDigitWriterSpec.h">
<polygon fill="none" stroke="#000000" points="2066.5,-89.5 2066.5,-141.5 2208.5,-141.5 2208.5,-89.5 2066.5,-89.5"/>
<text text-anchor="start" x="2074.5" y="-129.5" font-family="Helvetica,sans-Serif" font-size="10.00" fill="#000000">/home/travis/build</text>
<text text-anchor="start" x="2074.5" y="-118.5" font-family="Helvetica,sans-Serif" font-size="10.00" fill="#000000">/AliceO2Group/AliceO2</text>
<text text-anchor="start" x="2074.5" y="-107.5" font-family="Helvetica,sans-Serif" font-size="10.00" fill="#000000">/Steer/DigitizerWorkflow</text>
<text text-anchor="middle" x="2137.5" y="-96.5" font-family="Helvetica,sans-Serif" font-size="10.00" fill="#000000">/src/FDDDigitWriterSpec.h</text>
</a>
</g>
</g>
<!-- Node131&#45;&gt;Node145 -->
<g id="edge14" class="edge">
<title>Node131&#45;&gt;Node145</title>
<path fill="none" stroke="#191970" d="M1811.4034,-189.6915C1881.8515,-178.9257 1975.8329,-162.6406 2057.5,-142 2060.337,-141.283 2063.219,-140.5162 2066.1217,-139.7119"/>
<polygon fill="#191970" stroke="#191970" points="1810.5473,-186.2811 1801.1845,-191.2397 1811.596,-193.2022 1810.5473,-186.2811"/>
</g>
<!-- Node146 -->
<g id="node16" class="node">
<title>Node146</title>
<g id="a_node16"><a xlink:href="../../d4/d85/FT0DigitWriterSpec_8h.html" target="_top" xlink:title="/home/travis/build\l/AliceO2Group/AliceO2\l/Steer/DigitizerWorkflow\l/src/FT0DigitWriterSpec.h">
<polygon fill="none" stroke="#000000" points="2227,-89.5 2227,-141.5 2366,-141.5 2366,-89.5 2227,-89.5"/>
<text text-anchor="start" x="2235" y="-129.5" font-family="Helvetica,sans-Serif" font-size="10.00" fill="#000000">/home/travis/build</text>
<text text-anchor="start" x="2235" y="-118.5" font-family="Helvetica,sans-Serif" font-size="10.00" fill="#000000">/AliceO2Group/AliceO2</text>
<text text-anchor="start" x="2235" y="-107.5" font-family="Helvetica,sans-Serif" font-size="10.00" fill="#000000">/Steer/DigitizerWorkflow</text>
<text text-anchor="middle" x="2296.5" y="-96.5" font-family="Helvetica,sans-Serif" font-size="10.00" fill="#000000">/src/FT0DigitWriterSpec.h</text>
</a>
</g>
</g>
<!-- Node131&#45;&gt;Node146 -->
<g id="edge16" class="edge">
<title>Node131&#45;&gt;Node146</title>
<path fill="none" stroke="#191970" d="M1811.7102,-197.7826C1916.2502,-189.7492 2079.2431,-173.2716 2217.5,-142 2220.6042,-141.2979 2223.7583,-140.5207 2226.9308,-139.6866"/>
<polygon fill="#191970" stroke="#191970" points="1811.1719,-194.3132 1801.4643,-198.5572 1811.6997,-201.2932 1811.1719,-194.3132"/>
</g>
<!-- Node147 -->
<g id="node17" class="node">
<title>Node147</title>
<g id="a_node17"><a xlink:href="../../d3/d12/FV0DigitWriterSpec_8h.html" target="_top" xlink:title="/home/travis/build\l/AliceO2Group/AliceO2\l/Steer/DigitizerWorkflow\l/src/FV0DigitWriterSpec.h">
<polygon fill="none" stroke="#000000" points="2384.5,-89.5 2384.5,-141.5 2524.5,-141.5 2524.5,-89.5 2384.5,-89.5"/>
<text text-anchor="start" x="2392.5" y="-129.5" font-family="Helvetica,sans-Serif" font-size="10.00" fill="#000000">/home/travis/build</text>
<text text-anchor="start" x="2392.5" y="-118.5" font-family="Helvetica,sans-Serif" font-size="10.00" fill="#000000">/AliceO2Group/AliceO2</text>
<text text-anchor="start" x="2392.5" y="-107.5" font-family="Helvetica,sans-Serif" font-size="10.00" fill="#000000">/Steer/DigitizerWorkflow</text>
<text text-anchor="middle" x="2454.5" y="-96.5" font-family="Helvetica,sans-Serif" font-size="10.00" fill="#000000">/src/FV0DigitWriterSpec.h</text>
</a>
</g>
</g>
<!-- Node131&#45;&gt;Node147 -->
<g id="edge18" class="edge">
<title>Node131&#45;&gt;Node147</title>
<path fill="none" stroke="#191970" d="M1811.3185,-202.1295C1944.6746,-197.4424 2179.1496,-183.4941 2375.5,-142 2378.3308,-141.4018 2381.2014,-140.7353 2384.0884,-140.0149"/>
<polygon fill="#191970" stroke="#191970" points="1810.9793,-198.6389 1801.1043,-202.4773 1811.2176,-205.6349 1810.9793,-198.6389"/>
</g>
<!-- Node148 -->
<g id="node18" class="node">
<title>Node148</title>
<g id="a_node18"><a xlink:href="../../d5/d5b/HMPIDDigitWriterSpec_8h.html" target="_top" xlink:title="/home/travis/build\l/AliceO2Group/AliceO2\l/Steer/DigitizerWorkflow\l/src/HMPIDDigitWriterSpec.h">
<polygon fill="none" stroke="#000000" points="2542.5,-89.5 2542.5,-141.5 2696.5,-141.5 2696.5,-89.5 2542.5,-89.5"/>
<text text-anchor="start" x="2550.5" y="-129.5" font-family="Helvetica,sans-Serif" font-size="10.00" fill="#000000">/home/travis/build</text>
<text text-anchor="start" x="2550.5" y="-118.5" font-family="Helvetica,sans-Serif" font-size="10.00" fill="#000000">/AliceO2Group/AliceO2</text>
<text text-anchor="start" x="2550.5" y="-107.5" font-family="Helvetica,sans-Serif" font-size="10.00" fill="#000000">/Steer/DigitizerWorkflow</text>
<text text-anchor="middle" x="2619.5" y="-96.5" font-family="Helvetica,sans-Serif" font-size="10.00" fill="#000000">/src/HMPIDDigitWriterSpec.h</text>
</a>
</g>
</g>
<!-- Node131&#45;&gt;Node148 -->
<g id="edge20" class="edge">
<title>Node131&#45;&gt;Node148</title>
<path fill="none" stroke="#191970" d="M1811.2559,-199.4287C2002.923,-189.8282 2398.0104,-167.6471 2533.5,-142 2536.4166,-141.4479 2539.3741,-140.8318 2542.3501,-140.1642"/>
<polygon fill="#191970" stroke="#191970" points="1810.9789,-195.9381 1801.1656,-199.9319 1811.3276,-202.9294 1810.9789,-195.9381"/>
</g>
<!-- Node149 -->
<g id="node19" class="node">
<title>Node149</title>
<g id="a_node19"><a xlink:href="../../d8/d60/MCHDigitWriterSpec_8h.html" target="_top" xlink:title="/home/travis/build\l/AliceO2Group/AliceO2\l/Steer/DigitizerWorkflow\l/src/MCHDigitWriterSpec.h">
<polygon fill="none" stroke="#000000" points="2714.5,-89.5 2714.5,-141.5 2858.5,-141.5 2858.5,-89.5 2714.5,-89.5"/>
<text text-anchor="start" x="2722.5" y="-129.5" font-family="Helvetica,sans-Serif" font-size="10.00" fill="#000000">/home/travis/build</text>
<text text-anchor="start" x="2722.5" y="-118.5" font-family="Helvetica,sans-Serif" font-size="10.00" fill="#000000">/AliceO2Group/AliceO2</text>
<text text-anchor="start" x="2722.5" y="-107.5" font-family="Helvetica,sans-Serif" font-size="10.00" fill="#000000">/Steer/DigitizerWorkflow</text>
<text text-anchor="middle" x="2786.5" y="-96.5" font-family="Helvetica,sans-Serif" font-size="10.00" fill="#000000">/src/MCHDigitWriterSpec.h</text>
</a>
</g>
</g>
<!-- Node131&#45;&gt;Node149 -->
<g id="edge22" class="edge">
<title>Node131&#45;&gt;Node149</title>
<path fill="none" stroke="#191970" d="M1811.0868,-201.2646C2032.7133,-193.9775 2536.6539,-174.3448 2705.5,-142 2708.4063,-141.4432 2711.353,-140.8117 2714.3158,-140.1206"/>
<polygon fill="#191970" stroke="#191970" points="1810.9507,-197.7671 1801.0703,-201.5918 1811.1793,-204.7633 1810.9507,-197.7671"/>
</g>
<!-- Node150 -->
<g id="node20" class="node">
<title>Node150</title>
<g id="a_node20"><a xlink:href="../../d9/d65/MIDDigitWriterSpec_8h.html" target="_top" xlink:title="/home/travis/build\l/AliceO2Group/AliceO2\l/Steer/DigitizerWorkflow\l/src/MIDDigitWriterSpec.h">
<polygon fill="none" stroke="#000000" points="2876.5,-89.5 2876.5,-141.5 3016.5,-141.5 3016.5,-89.5 2876.5,-89.5"/>
<text text-anchor="start" x="2884.5" y="-129.5" font-family="Helvetica,sans-Serif" font-size="10.00" fill="#000000">/home/travis/build</text>
<text text-anchor="start" x="2884.5" y="-118.5" font-family="Helvetica,sans-Serif" font-size="10.00" fill="#000000">/AliceO2Group/AliceO2</text>
<text text-anchor="start" x="2884.5" y="-107.5" font-family="Helvetica,sans-Serif" font-size="10.00" fill="#000000">/Steer/DigitizerWorkflow</text>
<text text-anchor="middle" x="2946.5" y="-96.5" font-family="Helvetica,sans-Serif" font-size="10.00" fill="#000000">/src/MIDDigitWriterSpec.h</text>
</a>
</g>
</g>
<!-- Node131&#45;&gt;Node150 -->
<g id="edge24" class="edge">
<title>Node131&#45;&gt;Node150</title>
<path fill="none" stroke="#191970" d="M1811.3156,-202.4393C2059.0625,-197.0643 2666.9499,-180.2929 2867.5,-142 2870.3419,-141.4574 2873.222,-140.8378 2876.1169,-140.1566"/>
<polygon fill="#191970" stroke="#191970" points="1811.1453,-198.942 1801.2229,-202.6562 1811.2958,-205.9404 1811.1453,-198.942"/>
</g>
<!-- Node151 -->
<g id="node21" class="node">
<title>Node151</title>
<g id="a_node21"><a xlink:href="../../d4/d33/PHOSDigitWriterSpec_8h.html" target="_top" xlink:title="/home/travis/build\l/AliceO2Group/AliceO2\l/Steer/DigitizerWorkflow\l/src/PHOSDigitWriterSpec.h">
<polygon fill="none" stroke="#000000" points="3035,-89.5 3035,-141.5 3184,-141.5 3184,-89.5 3035,-89.5"/>
<text text-anchor="start" x="3043" y="-129.5" font-family="Helvetica,sans-Serif" font-size="10.00" fill="#000000">/home/travis/build</text>
<text text-anchor="start" x="3043" y="-118.5" font-family="Helvetica,sans-Serif" font-size="10.00" fill="#000000">/AliceO2Group/AliceO2</text>
<text text-anchor="start" x="3043" y="-107.5" font-family="Helvetica,sans-Serif" font-size="10.00" fill="#000000">/Steer/DigitizerWorkflow</text>
<text text-anchor="middle" x="3109.5" y="-96.5" font-family="Helvetica,sans-Serif" font-size="10.00" fill="#000000">/src/PHOSDigitWriterSpec.h</text>
</a>
</g>
</g>
<!-- Node131&#45;&gt;Node151 -->
<g id="edge26" class="edge">
<title>Node131&#45;&gt;Node151</title>
<path fill="none" stroke="#191970" d="M1811.3894,-202.9961C2082.7605,-198.6079 2793.2711,-183.404 3025.5,-142 3028.5109,-141.4632 3031.564,-140.8485 3034.6344,-140.1714"/>
<polygon fill="#191970" stroke="#191970" points="1811.0836,-199.5004 1801.1409,-203.16 1811.1956,-206.4995 1811.0836,-199.5004"/>
</g>
<!-- Node152 -->
<g id="node22" class="node">
<title>Node152</title>
<g id="a_node22"><a xlink:href="../../d9/d31/ZDCDigitWriterSpec_8h.html" target="_top" xlink:title="/home/travis/build\l/AliceO2Group/AliceO2\l/Steer/DigitizerWorkflow\l/src/ZDCDigitWriterSpec.h">
<polygon fill="none" stroke="#000000" points="3202,-89.5 3202,-141.5 3345,-141.5 3345,-89.5 3202,-89.5"/>
<text text-anchor="start" x="3210" y="-129.5" font-family="Helvetica,sans-Serif" font-size="10.00" fill="#000000">/home/travis/build</text>
<text text-anchor="start" x="3210" y="-118.5" font-family="Helvetica,sans-Serif" font-size="10.00" fill="#000000">/AliceO2Group/AliceO2</text>
<text text-anchor="start" x="3210" y="-107.5" font-family="Helvetica,sans-Serif" font-size="10.00" fill="#000000">/Steer/DigitizerWorkflow</text>
<text text-anchor="middle" x="3273.5" y="-96.5" font-family="Helvetica,sans-Serif" font-size="10.00" fill="#000000">/src/ZDCDigitWriterSpec.h</text>
</a>
</g>
</g>
<!-- Node131&#45;&gt;Node152 -->
<g id="edge28" class="edge">
<title>Node131&#45;&gt;Node152</title>
<path fill="none" stroke="#191970" d="M1811.4825,-203.8589C2106.6322,-201.4776 2928.0578,-190.5526 3193.5,-142 3196.2345,-141.4998 3199.0038,-140.9279 3201.7877,-140.2977"/>
<polygon fill="#191970" stroke="#191970" points="1811.1789,-200.3611 1801.2069,-203.94 1811.2343,-207.3608 1811.1789,-200.3611"/>
</g>
<!-- Node143 -->
<g id="node13" class="node">
<title>Node143</title>
<g id="a_node13"><a xlink:href="../../d2/dd7/SimpleDigitizerWorkflow_8cxx.html" target="_top" xlink:title="/home/travis/build\l/AliceO2Group/AliceO2\l/Steer/DigitizerWorkflow\l/src/SimpleDigitizerWorkflow.cxx">
<polygon fill="none" stroke="#000000" points="2531.5,-.5 2531.5,-52.5 2707.5,-52.5 2707.5,-.5 2531.5,-.5"/>
<text text-anchor="start" x="2539.5" y="-40.5" font-family="Helvetica,sans-Serif" font-size="10.00" fill="#000000">/home/travis/build</text>
<text text-anchor="start" x="2539.5" y="-29.5" font-family="Helvetica,sans-Serif" font-size="10.00" fill="#000000">/AliceO2Group/AliceO2</text>
<text text-anchor="start" x="2539.5" y="-18.5" font-family="Helvetica,sans-Serif" font-size="10.00" fill="#000000">/Steer/DigitizerWorkflow</text>
<text text-anchor="middle" x="2619.5" y="-7.5" font-family="Helvetica,sans-Serif" font-size="10.00" fill="#000000">/src/SimpleDigitizerWorkflow.cxx</text>
</a>
</g>
</g>
<!-- Node142&#45;&gt;Node143 -->
<g id="edge12" class="edge">
<title>Node142&#45;&gt;Node143</title>
<path fill="none" stroke="#191970" d="M1874.4941,-89.0678C2014.803,-62.6148 2366.3418,-40.6089 2531.4861,-31.2588"/>
<polygon fill="#191970" stroke="#191970" points="1873.4992,-85.6964 1864.3635,-91.062 1874.8512,-92.5646 1873.4992,-85.6964"/>
</g>
<!-- Node145&#45;&gt;Node143 -->
<g id="edge15" class="edge">
<title>Node145&#45;&gt;Node143</title>
<path fill="none" stroke="#191970" d="M2218.7494,-89.1052C2331.9062,-62.4993 2452.0192,-45.6534 2531.4851,-36.0669"/>
<polygon fill="#191970" stroke="#191970" points="2217.7915,-85.7353 2208.8742,-91.4564 2219.413,-92.5449 2217.7915,-85.7353"/>
</g>
<!-- Node146&#45;&gt;Node143 -->
<g id="edge17" class="edge">
<title>Node146&#45;&gt;Node143</title>
<path fill="none" stroke="#191970" d="M2376.1116,-88.8944C2433.0725,-72.2339 2487.2604,-58.2966 2531.2686,-47.4536"/>
<polygon fill="#191970" stroke="#191970" points="2374.8035,-85.631 2366.1994,-91.8132 2376.7809,-92.3459 2374.8035,-85.631"/>
</g>
<!-- Node147&#45;&gt;Node143 -->
<g id="edge19" class="edge">
<title>Node147&#45;&gt;Node143</title>
<path fill="none" stroke="#191970" d="M2512.1137,-84.4235C2531.4156,-74.0122 2552.7228,-62.5192 2571.2344,-52.5341"/>
<polygon fill="#191970" stroke="#191970" points="2510.2527,-81.4506 2503.113,-89.2784 2513.5759,-87.6115 2510.2527,-81.4506"/>
</g>
<!-- Node148&#45;&gt;Node143 -->
<g id="edge21" class="edge">
<title>Node148&#45;&gt;Node143</title>
<path fill="none" stroke="#191970" d="M2619.5,-79.1155C2619.5,-70.2061 2619.5,-60.8475 2619.5,-52.5341"/>
<polygon fill="#191970" stroke="#191970" points="2616.0001,-79.2784 2619.5,-89.2784 2623.0001,-79.2785 2616.0001,-79.2784"/>
</g>
<!-- Node149&#45;&gt;Node143 -->
<g id="edge23" class="edge">
<title>Node149&#45;&gt;Node143</title>
<path fill="none" stroke="#191970" d="M2728.453,-84.5648C2708.8473,-74.1162 2687.1714,-62.5644 2668.3506,-52.5341"/>
<polygon fill="#191970" stroke="#191970" points="2726.8266,-87.664 2737.2977,-89.2784 2730.1189,-81.4865 2726.8266,-87.664"/>
</g>
<!-- Node150&#45;&gt;Node143 -->
<g id="edge25" class="edge">
<title>Node150&#45;&gt;Node143</title>
<path fill="none" stroke="#191970" d="M2866.6656,-88.8289C2808.6307,-71.9873 2752.8043,-57.8748 2707.7476,-46.9957"/>
<polygon fill="#191970" stroke="#191970" points="2865.7968,-92.2213 2876.3771,-91.6669 2867.7604,-85.5023 2865.7968,-92.2213"/>
</g>
<!-- Node151&#45;&gt;Node143 -->
<g id="edge27" class="edge">
<title>Node151&#45;&gt;Node143</title>
<path fill="none" stroke="#191970" d="M3024.5703,-88.9215C2910.1804,-62.773 2788.1562,-45.8212 2707.7548,-36.1384"/>
<polygon fill="#191970" stroke="#191970" points="3024.0199,-92.3865 3034.5516,-91.2313 3025.5982,-85.5667 3024.0199,-92.3865"/>
</g>
<!-- Node152&#45;&gt;Node143 -->
<g id="edge29" class="edge">
<title>Node152&#45;&gt;Node143</title>
<path fill="none" stroke="#191970" d="M3191.8247,-88.7999C3016.5574,-51.5678 2819.3771,-36.4424 2707.949,-30.3264"/>
<polygon fill="#191970" stroke="#191970" points="3191.2283,-92.2516 3201.741,-90.9354 3192.702,-85.4085 3191.2283,-92.2516"/>
</g>
</g>
</svg>
        <g id="navigator" transform="translate(0 0)" fill="#404254">
                <rect fill="#f2f5e9" fill-opacity="0.5" stroke="#606060" stroke-width=".5" x="0" y="0" width="60" height="60"/>
                <use id="zoomplus" xlink:href="#zoomPlus" x="17" y="9" onmousedown="handleZoom(evt,'in')"/>
                <use id="zoomminus" xlink:href="#zoomMin" x="42" y="9" onmousedown="handleZoom(evt,'out')"/>
                <use id="reset" xlink:href="#resetDef" x="30" y="36" onmousedown="handleReset()"/>
                <g id="arrowUp" xlink:href="#dirArrow" transform="translate(30 24)" onmousedown="handlePan(0,-1)">
                  <use xlink:href="#rim" fill="#404040">
                        <set attributeName="fill" to="#808080" begin="arrowUp.mouseover" end="arrowUp.mouseout"/>
                  </use>
                  <path fill="none" stroke="white" stroke-width="1.5" d="M0,-3.0v7 M-2.5,-0.5L0,-3.0L2.5,-0.5"/>
                </g>
                <g id="arrowRight" xlink:href="#dirArrow" transform="rotate(90) translate(36 -43)" onmousedown="handlePan(1,0)">
                  <use xlink:href="#rim" fill="#404040">
                        <set attributeName="fill" to="#808080" begin="arrowRight.mouseover" end="arrowRight.mouseout"/>
                  </use>
                  <path fill="none" stroke="white" stroke-width="1.5" d="M0,-3.0v7 M-2.5,-0.5L0,-3.0L2.5,-0.5"/>
                </g>
                <g id="arrowDown" xlink:href="#dirArrow" transform="rotate(180) translate(-30 -48)" onmousedown="handlePan(0,1)">
                  <use xlink:href="#rim" fill="#404040">
                        <set attributeName="fill" to="#808080" begin="arrowDown.mouseover" end="arrowDown.mouseout"/>
                  </use>
                  <path fill="none" stroke="white" stroke-width="1.5" d="M0,-3.0v7 M-2.5,-0.5L0,-3.0L2.5,-0.5"/>
                </g>
                <g id="arrowLeft" xlink:href="#dirArrow" transform="rotate(270) translate(-36 17)" onmousedown="handlePan(-1,0)">
                  <use xlink:href="#rim" fill="#404040">
                        <set attributeName="fill" to="#808080" begin="arrowLeft.mouseover" end="arrowLeft.mouseout"/>
                  </use>
                  <path fill="none" stroke="white" stroke-width="1.5" d="M0,-3.0v7 M-2.5,-0.5L0,-3.0L2.5,-0.5"/>
                </g>
        </g>
        <svg viewBox="0 0 15 15" width="100%" height="30px" preserveAspectRatio="xMaxYMin meet">
         <g id="arrow_out" transform="scale(0.3 0.3)">
          <a xlink:href="MakeRootTreeWriterSpec_8h__dep__incl_org.svg" target="_base">
           <rect id="button" ry="5" rx="5" y="6" x="6" height="38" width="38"
                fill="#f2f5e9" fill-opacity="0.5" stroke="#606060" stroke-width="1.0"/>
           <path id="arrow"
             d="M 11.500037,31.436501 C 11.940474,20.09759 22.043105,11.32322 32.158766,21.979434 L 37.068811,17.246167 C 37.068811,17.246167 37.088388,32 37.088388,32 L 22.160133,31.978069 C 22.160133,31.978069 26.997745,27.140456 26.997745,27.140456 C 18.528582,18.264221 13.291696,25.230495 11.500037,31.436501 z"
             style="fill:#404040;"/>
          </a>
         </g>
        </svg>
</svg>
