<?xml version="1.0" encoding="UTF-8" standalone="no"?>
<!DOCTYPE svg PUBLIC "-//W3C//DTD SVG 1.1//EN"
 "http://www.w3.org/Graphics/SVG/1.1/DTD/svg11.dtd">
<!-- Generated by graphviz version 2.40.1 (20161225.0304)
 -->
<!-- Title: GPUCA_NAMESPACE::gpu::GPUTPCClusterFinder::Memory Pages: 1 -->
<svg width="530pt" height="375pt"
 viewBox="0.00 0.00 529.86 375.00" xmlns="http://www.w3.org/2000/svg" xmlns:xlink="http://www.w3.org/1999/xlink">
<g id="graph0" class="graph" transform="scale(1 1) rotate(0) translate(4 371)">
<title>GPUCA_NAMESPACE::gpu::GPUTPCClusterFinder::Memory</title>
<!-- Node1 -->
<g id="node1" class="node">
<title>Node1</title>
<polygon fill="#bfbfbf" stroke="#000000" points="180.859,-.5 180.859,-79.5 320.859,-79.5 320.859,-.5 180.859,-.5"/>
<text text-anchor="start" x="188.859" y="-67.5" font-family="Helvetica,sans-Serif" font-size="10.00" fill="#000000">GPUCA_NAMESPACE::gpu</text>
<text text-anchor="start" x="188.859" y="-56.5" font-family="Helvetica,sans-Serif" font-size="10.00" fill="#000000">::GPUTPCClusterFinder</text>
<text text-anchor="middle" x="250.859" y="-45.5" font-family="Helvetica,sans-Serif" font-size="10.00" fill="#000000">::Memory</text>
<polyline fill="none" stroke="#000000" points="180.859,-38.5 320.859,-38.5 "/>
<text text-anchor="middle" x="250.859" y="-26.5" font-family="Helvetica,sans-Serif" font-size="10.00" fill="#000000"> </text>
<polyline fill="none" stroke="#000000" points="180.859,-19.5 320.859,-19.5 "/>
<text text-anchor="middle" x="250.859" y="-7.5" font-family="Helvetica,sans-Serif" font-size="10.00" fill="#000000"> </text>
</g>
<!-- Node2 -->
<g id="node2" class="node">
<title>Node2</title>
<g id="a_node2"><a xlink:href="../../d6/d42/structGPUCA__NAMESPACE_1_1gpu_1_1GPUTPCClusterFinder_1_1Memory_1_1counters__t.html" target="_top" xlink:title="{GPUCA_NAMESPACE::gpu\l::GPUTPCClusterFinder\l::Memory::counters_t\n||}">
<polygon fill="none" stroke="#000000" points="102.859,-138.5 102.859,-217.5 242.859,-217.5 242.859,-138.5 102.859,-138.5"/>
<text text-anchor="start" x="110.859" y="-205.5" font-family="Helvetica,sans-Serif" font-size="10.00" fill="#000000">GPUCA_NAMESPACE::gpu</text>
<text text-anchor="start" x="110.859" y="-194.5" font-family="Helvetica,sans-Serif" font-size="10.00" fill="#000000">::GPUTPCClusterFinder</text>
<text text-anchor="middle" x="172.859" y="-183.5" font-family="Helvetica,sans-Serif" font-size="10.00" fill="#000000">::Memory::counters_t</text>
<polyline fill="none" stroke="#000000" points="102.859,-176.5 242.859,-176.5 "/>
<text text-anchor="middle" x="172.859" y="-164.5" font-family="Helvetica,sans-Serif" font-size="10.00" fill="#000000"> </text>
<polyline fill="none" stroke="#000000" points="102.859,-157.5 242.859,-157.5 "/>
<text text-anchor="middle" x="172.859" y="-145.5" font-family="Helvetica,sans-Serif" font-size="10.00" fill="#000000"> </text>
</a>
</g>
</g>
<!-- Node2&#45;&gt;Node1 -->
<g id="edge1" class="edge">
<title>Node2&#45;&gt;Node1</title>
<path fill="none" stroke="#404040" d="M195.2106,-138.4547C203.6964,-123.4415 213.4767,-106.1379 222.4481,-90.2653"/>
<polygon fill="none" stroke="#404040" points="222.5993,-89.9978 222.0694,-82.8062 228.504,-79.551 229.0339,-86.7427 222.5993,-89.9978"/>
<text text-anchor="middle" x="243.859" y="-101" font-family="Helvetica,sans-Serif" font-size="10.00" fill="#000000"> +counters</text>
</g>
<!-- Node3 -->
<g id="node3" class="node">
<title>Node3</title>
<polygon fill="none" stroke="#bfbfbf" points="24.359,-309.5 24.359,-366.5 69.359,-366.5 69.359,-309.5 24.359,-309.5"/>
<text text-anchor="middle" x="46.859" y="-354.5" font-family="Helvetica,sans-Serif" font-size="10.00" fill="#000000">size_t</text>
<polyline fill="none" stroke="#bfbfbf" points="24.359,-347.5 69.359,-347.5 "/>
<text text-anchor="middle" x="46.859" y="-335.5" font-family="Helvetica,sans-Serif" font-size="10.00" fill="#000000"> </text>
<polyline fill="none" stroke="#bfbfbf" points="24.359,-328.5 69.359,-328.5 "/>
<text text-anchor="middle" x="46.859" y="-316.5" font-family="Helvetica,sans-Serif" font-size="10.00" fill="#000000"> </text>
</g>
<!-- Node3&#45;&gt;Node2 -->
<g id="edge2" class="edge">
<title>Node3&#45;&gt;Node2</title>
<path fill="none" stroke="#404040" d="M24.0999,-317.651C17.1964,-310.0519 10.4848,-300.8546 6.859,-291 .1065,-272.6472 -3.9955,-263.2666 6.859,-247 25.9132,-218.4451 59.2383,-201.6901 91.0536,-191.8665"/>
<polygon fill="none" stroke="#404040" points="91.1375,-191.8427 95.8106,-186.3506 102.6775,-188.5519 98.0045,-194.0439 91.1375,-191.8427"/>
<text text-anchor="middle" x="36.359" y="-283" font-family="Helvetica,sans-Serif" font-size="10.00" fill="#000000"> +nPeaks</text>
<text text-anchor="middle" x="36.359" y="-272" font-family="Helvetica,sans-Serif" font-size="10.00" fill="#000000">+nPositions</text>
<text text-anchor="middle" x="36.359" y="-261" font-family="Helvetica,sans-Serif" font-size="10.00" fill="#000000">+nClusters</text>
<text text-anchor="middle" x="36.359" y="-250" font-family="Helvetica,sans-Serif" font-size="10.00" fill="#000000">+nDigits</text>
</g>
<!-- Node5 -->
<g id="node5" class="node">
<title>Node5</title>
<g id="a_node5"><a xlink:href="../../db/d3d/structGPUCA__NAMESPACE_1_1gpu_1_1CfFragment.html" target="_top" xlink:title="{GPUCA_NAMESPACE::gpu\l::CfFragment\n||+ GPUdDefault()\l+ GPUhd()\l+ GPUhdi()\l+ GPUhdi()\l}">
<polygon fill="none" stroke="#000000" points="265.859,-127.5 265.859,-228.5 405.859,-228.5 405.859,-127.5 265.859,-127.5"/>
<text text-anchor="start" x="273.859" y="-216.5" font-family="Helvetica,sans-Serif" font-size="10.00" fill="#000000">GPUCA_NAMESPACE::gpu</text>
<text text-anchor="middle" x="335.859" y="-205.5" font-family="Helvetica,sans-Serif" font-size="10.00" fill="#000000">::CfFragment</text>
<polyline fill="none" stroke="#000000" points="265.859,-198.5 405.859,-198.5 "/>
<text text-anchor="middle" x="335.859" y="-186.5" font-family="Helvetica,sans-Serif" font-size="10.00" fill="#000000"> </text>
<polyline fill="none" stroke="#000000" points="265.859,-179.5 405.859,-179.5 "/>
<text text-anchor="start" x="273.859" y="-167.5" font-family="Helvetica,sans-Serif" font-size="10.00" fill="#000000">+ GPUdDefault()</text>
<text text-anchor="start" x="273.859" y="-156.5" font-family="Helvetica,sans-Serif" font-size="10.00" fill="#000000">+ GPUhd()</text>
<text text-anchor="start" x="273.859" y="-145.5" font-family="Helvetica,sans-Serif" font-size="10.00" fill="#000000">+ GPUhdi()</text>
<text text-anchor="start" x="273.859" y="-134.5" font-family="Helvetica,sans-Serif" font-size="10.00" fill="#000000">+ GPUhdi()</text>
</a>
</g>
</g>
<!-- Node3&#45;&gt;Node5 -->
<g id="edge6" class="edge">
<title>Node3&#45;&gt;Node5</title>
<path fill="none" stroke="#404040" d="M60.0148,-309.3866C71.5176,-285.6784 88.1648,-254.6723 99.859,-247 156.7377,-209.6829 187.541,-251.1573 251.859,-229 252.5647,-228.7569 253.2708,-228.5072 253.9771,-228.2512"/>
<polygon fill="none" stroke="#404040" points="254.2871,-228.1251 258.3361,-222.158 265.4015,-223.6006 261.3524,-229.5676 254.2871,-228.1251"/>
<text text-anchor="middle" x="130.859" y="-266.5" font-family="Helvetica,sans-Serif" font-size="10.00" fill="#000000"> +digitsStart</text>
</g>
<!-- Node4 -->
<g id="node4" class="node">
<title>Node4</title>
<polygon fill="none" stroke="#bfbfbf" points="192.359,-309.5 192.359,-366.5 253.359,-366.5 253.359,-309.5 192.359,-309.5"/>
<text text-anchor="middle" x="222.859" y="-354.5" font-family="Helvetica,sans-Serif" font-size="10.00" fill="#000000">unsigned</text>
<polyline fill="none" stroke="#bfbfbf" points="192.359,-347.5 253.359,-347.5 "/>
<text text-anchor="middle" x="222.859" y="-335.5" font-family="Helvetica,sans-Serif" font-size="10.00" fill="#000000"> </text>
<polyline fill="none" stroke="#bfbfbf" points="192.359,-328.5 253.359,-328.5 "/>
<text text-anchor="middle" x="222.859" y="-316.5" font-family="Helvetica,sans-Serif" font-size="10.00" fill="#000000"> </text>
</g>
<!-- Node4&#45;&gt;Node2 -->
<g id="edge3" class="edge">
<title>Node4&#45;&gt;Node2</title>
<path fill="none" stroke="#404040" d="M192.3043,-315.905C184.8848,-308.8594 177.9237,-300.4154 173.859,-291 165.6809,-272.0564 164.0536,-249.6059 164.9749,-229.7271"/>
<polygon fill="none" stroke="#404040" points="164.9763,-229.7053 161.4196,-223.4323 165.8421,-217.7365 169.3988,-224.0095 164.9763,-229.7053"/>
<text text-anchor="middle" x="215.859" y="-277.5" font-family="Helvetica,sans-Serif" font-size="10.00" fill="#000000"> +maxTimeBin</text>
<text text-anchor="middle" x="215.859" y="-266.5" font-family="Helvetica,sans-Serif" font-size="10.00" fill="#000000">+nPagesSubslice</text>
<text text-anchor="middle" x="215.859" y="-255.5" font-family="Helvetica,sans-Serif" font-size="10.00" fill="#000000">+nPages</text>
</g>
<!-- Node4&#45;&gt;Node5 -->
<g id="edge9" class="edge">
<title>Node4&#45;&gt;Node5</title>
<path fill="none" stroke="#404040" d="M244.4949,-309.2875C248.9541,-303.2747 253.5902,-296.9526 257.859,-291 269.8808,-274.2359 282.6882,-255.893 294.3762,-238.9542"/>
<polygon fill="none" stroke="#404040" points="294.6884,-238.5006 294.7952,-231.2903 301.492,-228.6156 301.3852,-235.826 294.6884,-238.5006"/>
<text text-anchor="middle" x="308.359" y="-266.5" font-family="Helvetica,sans-Serif" font-size="10.00" fill="#000000"> +index</text>
</g>
<!-- Node5&#45;&gt;Node1 -->
<g id="edge4" class="edge">
<title>Node5&#45;&gt;Node1</title>
<path fill="none" stroke="#404040" d="M304.6908,-127.3975C297.215,-115.2603 289.2345,-102.3038 281.7704,-90.1857"/>
<polygon fill="none" stroke="#404040" points="281.663,-90.0112 275.1105,-87.0003 275.3696,-79.7938 281.9221,-82.8047 281.663,-90.0112"/>
<text text-anchor="middle" x="322.359" y="-101" font-family="Helvetica,sans-Serif" font-size="10.00" fill="#000000"> +fragment</text>
</g>
<!-- Node6 -->
<g id="node6" class="node">
<title>Node6</title>
<g id="a_node6"><a xlink:href="../../dc/d10/classshort.html" target="_top" xlink:title="{short\n||}">
<polygon fill="none" stroke="#000000" points="321.359,-309.5 321.359,-366.5 362.359,-366.5 362.359,-309.5 321.359,-309.5"/>
<text text-anchor="middle" x="341.859" y="-354.5" font-family="Helvetica,sans-Serif" font-size="10.00" fill="#000000">short</text>
<polyline fill="none" stroke="#000000" points="321.359,-347.5 362.359,-347.5 "/>
<text text-anchor="middle" x="341.859" y="-335.5" font-family="Helvetica,sans-Serif" font-size="10.00" fill="#000000"> </text>
<polyline fill="none" stroke="#000000" points="321.359,-328.5 362.359,-328.5 "/>
<text text-anchor="middle" x="341.859" y="-316.5" font-family="Helvetica,sans-Serif" font-size="10.00" fill="#000000"> </text>
</a>
</g>
</g>
<!-- Node6&#45;&gt;Node5 -->
<g id="edge5" class="edge">
<title>Node6&#45;&gt;Node5</title>
<path fill="none" stroke="#404040" d="M340.7863,-309.3952C340.0716,-290.3358 339.1037,-264.5272 338.215,-240.8285"/>
<polygon fill="none" stroke="#404040" points="338.209,-240.6664 333.987,-234.8205 337.7593,-228.6748 341.9813,-234.5206 338.209,-240.6664"/>
<text text-anchor="middle" x="362.359" y="-266.5" font-family="Helvetica,sans-Serif" font-size="10.00" fill="#000000"> +length</text>
</g>
<!-- Node7 -->
<g id="node7" class="node">
<title>Node7</title>
<polygon fill="none" stroke="#bfbfbf" points="393.359,-309.5 393.359,-366.5 422.359,-366.5 422.359,-309.5 393.359,-309.5"/>
<text text-anchor="middle" x="407.859" y="-354.5" font-family="Helvetica,sans-Serif" font-size="10.00" fill="#000000">int</text>
<polyline fill="none" stroke="#bfbfbf" points="393.359,-347.5 422.359,-347.5 "/>
<text text-anchor="middle" x="407.859" y="-335.5" font-family="Helvetica,sans-Serif" font-size="10.00" fill="#000000"> </text>
<polyline fill="none" stroke="#bfbfbf" points="393.359,-328.5 422.359,-328.5 "/>
<text text-anchor="middle" x="407.859" y="-316.5" font-family="Helvetica,sans-Serif" font-size="10.00" fill="#000000"> </text>
</g>
<!-- Node7&#45;&gt;Node5 -->
<g id="edge7" class="edge">
<title>Node7&#45;&gt;Node5</title>
<path fill="none" stroke="#404040" d="M403.8468,-309.1722C400.5809,-290.7835 394.9807,-266.7778 385.859,-247 384.6566,-244.393 383.3492,-241.7848 381.9596,-239.1905"/>
<polygon fill="none" stroke="#404040" points="381.8625,-239.023 375.3923,-235.8393 375.8425,-228.6423 382.3127,-231.826 381.8625,-239.023"/>
<text text-anchor="middle" x="416.859" y="-266.5" font-family="Helvetica,sans-Serif" font-size="10.00" fill="#000000"> +start</text>
</g>
<!-- Node8 -->
<g id="node8" class="node">
<title>Node8</title>
<polygon fill="none" stroke="#bfbfbf" points="445.859,-309.5 445.859,-366.5 483.859,-366.5 483.859,-309.5 445.859,-309.5"/>
<text text-anchor="middle" x="464.859" y="-354.5" font-family="Helvetica,sans-Serif" font-size="10.00" fill="#000000">bool</text>
<polyline fill="none" stroke="#bfbfbf" points="445.859,-347.5 483.859,-347.5 "/>
<text text-anchor="middle" x="464.859" y="-335.5" font-family="Helvetica,sans-Serif" font-size="10.00" fill="#000000"> </text>
<polyline fill="none" stroke="#bfbfbf" points="445.859,-328.5 483.859,-328.5 "/>
<text text-anchor="middle" x="464.859" y="-316.5" font-family="Helvetica,sans-Serif" font-size="10.00" fill="#000000"> </text>
</g>
<!-- Node8&#45;&gt;Node5 -->
<g id="edge8" class="edge">
<title>Node8&#45;&gt;Node5</title>
<path fill="none" stroke="#404040" d="M461.429,-309.0972C457.9951,-289.9939 451.2006,-265.2128 437.859,-247 431.571,-238.4162 423.8727,-230.5621 415.5502,-223.4783"/>
<polygon fill="none" stroke="#404040" points="415.3139,-223.29 408.1289,-222.6779 405.9304,-215.81 413.1155,-216.4222 415.3139,-223.29"/>
<text text-anchor="middle" x="489.359" y="-272" font-family="Helvetica,sans-Serif" font-size="10.00" fill="#000000"> +hasFuture</text>
<text text-anchor="middle" x="489.359" y="-261" font-family="Helvetica,sans-Serif" font-size="10.00" fill="#000000">+hasBacklog</text>
</g>
</g>
</svg>
